{"glyphs":{"0":{"ha":1171,"x_min":44,"x_max":1129,"o":"m 115 243 q 79 313 115 243 q 44 562 44 382 q 115 880 44 741 q 309 1096 185 1020 q 587 1172 432 1172 q 865 1096 741 1172 q 1059 880 988 1020 q 1129 562 1129 741 q 1059 243 1129 382 q 865 27 988 103 q 587 -49 741 -49 q 309 27 432 -49 q 115 243 185 103 m 769 795 q 802 753 769 795 q 836 562 836 711 q 769 328 836 412 q 587 244 701 244 q 405 328 472 244 q 337 562 337 412 q 405 795 337 711 q 587 879 472 879 q 769 795 701 879 m 838 864 q 886 808 838 864 q 934 562 934 751 q 838 259 934 372 q 587 146 742 146 q 335 259 431 146 q 239 562 239 372 q 335 864 239 751 q 587 977 431 977 q 838 864 742 977 m 974 831 q 1003 773 974 831 q 1031 562 1031 714 q 974 292 1031 409 q 816 112 917 175 q 587 49 715 49 q 357 112 458 49 q 199 292 256 175 q 142 562 142 409 q 199 831 142 714 q 357 1011 256 948 q 587 1074 458 1074 q 816 1011 715 1074 q 974 831 917 948 m 439 761 q 412 726 439 761 q 386 562 386 692 q 439 362 386 431 q 587 293 492 293 q 734 362 681 293 q 787 562 787 431 q 734 761 787 692 q 587 830 681 830 q 439 761 492 830 m 370 830 q 329 781 370 830 q 288 562 288 732 q 370 293 288 391 q 587 195 452 195 q 803 293 722 195 q 885 562 885 391 q 803 830 885 732 q 587 928 722 928 q 370 830 452 928 m 301 899 q 246 835 301 899 q 191 562 191 772 q 301 224 191 351 q 587 98 411 98 q 872 224 762 98 q 983 562 983 351 q 872 899 983 772 q 587 1025 762 1025 q 301 899 411 1025 m 130 791 q 112 738 130 791 q 93 562 93 686 q 130 332 93 437 q 233 154 168 227 q 390 41 298 81 q 587 0 481 0 q 784 41 692 0 q 940 154 875 81 q 1043 332 1006 227 q 1080 562 1080 437 q 1043 791 1080 686 q 940 969 1006 897 q 784 1082 875 1042 q 587 1123 692 1123 q 390 1082 481 1123 q 233 969 298 1042 q 130 791 168 897 z "},"1":{"ha":592,"x_min":39,"x_max":531,"o":"m 39 879 l 39 928 l 531 928 l 531 0 l 482 0 l 482 879 l 433 879 l 433 0 l 385 0 l 385 879 l 336 879 l 336 0 l 287 0 l 287 879 l 238 879 l 238 0 l 189 0 l 189 879 l 39 879 m 39 977 l 39 1025 l 531 1025 l 531 977 l 39 977 m 39 1074 l 39 1123 l 531 1123 l 531 1074 l 39 1074 z "},"2":{"ha":810,"x_min":35,"x_max":771,"o":"m 52 195 l 52 244 l 714 244 l 714 195 l 52 195 m 52 98 l 52 146 l 714 146 l 714 98 l 52 98 m 52 0 l 52 49 l 714 49 l 714 0 l 52 0 m 127 271 l 71 271 q 164 397 118 336 q 241 500 210 459 q 301 581 272 541 q 348 644 330 620 q 382 690 366 667 q 407 725 399 712 q 421 749 415 737 q 430 767 428 760 q 432 781 432 774 q 406 821 432 812 q 315 830 380 830 q 104 802 210 830 l 94 849 q 179 868 111 857 q 312 880 248 880 q 379 876 351 880 q 431 861 408 871 q 467 830 454 850 q 479 781 479 810 q 449 707 479 752 q 296 496 419 661 q 127 271 195 363 m 238 271 l 181 271 q 462 652 434 612 q 526 768 519 733 q 528 788 528 777 q 315 928 528 928 q 182 917 250 928 q 84 894 115 905 l 75 941 q 315 977 191 977 q 396 971 359 977 q 467 951 433 965 q 524 917 500 938 q 562 863 548 895 q 576 788 576 830 q 533 679 576 745 q 277 325 490 613 q 238 271 252 290 m 351 271 l 294 271 q 575 665 526 587 q 625 795 625 743 q 600 905 625 859 q 531 977 575 951 q 433 1014 486 1002 q 315 1025 380 1025 q 64 987 189 1025 l 54 1037 q 313 1076 188 1076 q 426 1067 374 1076 q 525 1038 478 1059 q 603 985 571 1017 q 654 905 635 954 q 673 795 673 857 q 653 705 673 751 q 567 566 632 659 q 351 271 503 472 m 469 271 l 412 271 q 619 556 555 460 q 703 700 683 651 q 722 802 722 749 q 702 922 722 868 q 646 1013 682 976 q 559 1075 610 1050 q 447 1112 508 1100 q 316 1123 387 1123 q 45 1082 186 1123 l 35 1131 q 315 1172 178 1172 q 499 1150 416 1172 q 643 1084 581 1128 q 738 968 704 1040 q 771 802 771 896 q 752 689 771 742 q 668 539 732 636 q 469 271 603 442 z "},"3":{"ha":850,"x_min":34,"x_max":806,"o":"m 364 245 q 92 277 207 245 l 102 323 q 364 294 195 294 q 465 347 465 294 q 368 389 465 389 l 220 389 l 220 437 l 368 437 q 472 416 431 437 q 513 347 513 394 q 472 270 513 296 q 364 245 430 245 m 505 726 l 458 736 q 465 770 465 747 q 364 830 465 830 q 102 801 195 830 l 92 846 q 364 879 207 879 q 472 852 430 879 q 513 770 513 825 q 505 726 513 741 m 83 892 l 73 940 q 364 977 200 977 q 541 921 470 977 q 611 770 611 866 q 596 694 611 732 l 551 712 q 562 770 562 738 q 506 886 562 845 q 364 928 450 928 q 83 892 207 928 m 680 648 l 640 672 q 660 770 660 719 q 575 956 660 886 q 364 1025 490 1025 q 64 986 209 1025 l 54 1035 q 364 1074 194 1074 q 537 1038 459 1074 q 662 931 615 1001 q 709 770 709 861 q 680 648 709 705 m 753 577 l 718 614 q 758 770 758 686 q 704 956 758 874 q 562 1080 651 1037 q 364 1123 473 1123 q 44 1082 198 1123 l 34 1131 q 364 1172 182 1172 q 536 1143 455 1172 q 677 1062 617 1114 q 771 934 736 1010 q 806 770 806 859 q 753 577 806 664 m 364 196 q 506 236 450 196 q 562 347 562 275 q 507 449 562 412 q 374 486 452 486 l 220 486 l 220 535 l 374 535 q 542 484 473 535 q 611 347 611 433 q 541 200 611 254 q 364 147 470 147 q 73 184 200 147 l 83 231 q 364 196 207 196 m 364 98 q 575 166 490 98 q 660 347 660 233 q 577 519 660 454 q 377 584 494 584 l 220 584 l 220 633 l 378 633 q 544 595 468 633 q 664 491 620 557 q 709 347 709 425 q 662 190 709 258 q 537 85 615 121 q 364 50 459 50 q 54 89 194 50 l 64 138 q 364 98 209 98 m 364 1 q 562 43 473 1 q 704 165 651 85 q 758 347 758 245 q 725 485 758 421 q 639 592 692 549 q 518 658 586 634 q 378 682 450 682 l 220 682 l 220 730 l 381 730 q 542 703 465 730 q 677 626 618 675 q 771 504 736 577 q 806 347 806 431 q 747 140 806 231 q 586 1 687 50 q 364 -48 486 -48 q 34 -7 182 -48 l 44 41 q 364 1 198 1 z "},"4":{"ha":864,"x_min":44,"x_max":827,"o":"m 655 0 l 606 0 l 606 170 l 655 170 l 655 0 m 753 0 l 704 0 l 704 170 l 753 170 l 753 0 m 655 463 l 606 463 l 606 658 l 655 658 l 655 463 m 753 463 l 704 463 l 704 658 l 753 658 l 753 463 m 45 391 l 45 439 l 827 439 l 827 391 l 45 391 m 45 293 l 45 342 l 827 342 l 827 293 l 45 293 m 45 195 l 45 244 l 827 244 l 827 195 l 45 195 m 349 1122 l 405 1123 l 101 464 l 44 464 l 349 1122 m 460 1122 l 514 1122 l 212 464 l 155 464 l 460 1122 m 569 1122 l 625 1122 l 325 464 l 268 464 l 569 1122 m 680 1122 l 736 1123 l 442 464 l 385 464 l 680 1122 z "},"5":{"ha":961,"x_min":28,"x_max":924,"o":"m 819 928 l 819 879 l 320 879 l 320 406 l 271 406 l 271 879 l 222 879 l 222 406 l 174 406 l 174 879 l 125 879 l 125 406 l 76 406 l 76 928 l 819 928 m 819 1025 l 819 977 l 76 977 l 76 1025 l 819 1025 m 819 1123 l 819 1074 l 76 1074 l 76 1123 l 819 1123 m 448 294 q 582 353 582 294 q 551 404 582 388 q 471 419 519 419 q 353 401 397 419 l 353 450 q 472 465 412 465 q 550 454 515 465 q 607 418 584 444 q 631 353 631 393 q 579 272 631 299 q 448 245 528 245 q 256 286 322 245 l 296 315 q 448 294 340 294 m 448 196 q 614 237 548 196 q 680 353 680 279 q 623 470 680 429 q 484 511 566 511 q 353 496 422 511 l 353 547 q 485 557 436 557 q 657 503 587 557 q 728 353 728 448 q 648 202 728 258 q 448 147 568 147 q 180 224 275 147 l 219 254 q 448 196 300 196 m 448 98 q 683 168 588 98 q 777 353 777 237 q 737 490 777 432 q 633 576 696 549 q 494 604 570 604 q 353 593 419 604 l 353 642 q 496 651 431 651 q 662 613 586 651 q 782 507 737 575 q 826 353 826 438 q 775 193 826 263 q 638 86 724 123 q 448 50 552 50 q 254 79 343 50 q 104 163 164 109 l 142 194 q 276 123 196 148 q 448 98 355 98 m 448 1 q 613 26 535 1 q 749 97 692 52 q 841 209 807 142 q 875 353 875 275 q 844 497 875 431 q 761 607 812 564 q 644 675 709 651 q 509 700 578 700 q 450 698 474 700 q 397 692 427 696 q 353 686 367 688 l 353 736 q 512 746 419 746 q 667 718 593 746 q 799 640 742 690 q 890 515 856 590 q 924 353 924 441 q 886 190 924 265 q 784 62 848 114 q 632 -19 720 10 q 448 -48 545 -48 q 211 -8 321 -48 q 28 102 102 31 l 67 132 q 234 35 134 69 q 448 1 333 1 z "},"6":{"ha":1086,"x_min":50,"x_max":1049,"o":"m 342 702 q 403 834 342 790 q 559 879 464 879 q 751 838 685 879 l 711 808 q 559 830 667 830 q 437 800 484 830 q 391 702 391 770 l 391 408 q 401 356 391 378 q 426 323 411 335 q 467 304 441 311 q 516 296 492 298 q 573 294 539 294 q 707 353 707 294 q 680 404 707 388 q 610 419 653 419 q 429 381 513 419 l 429 430 q 611 465 513 465 q 715 438 673 465 q 756 353 756 411 q 705 272 756 299 q 573 245 654 245 q 500 249 533 245 q 438 265 468 254 q 387 294 408 276 q 355 341 367 312 q 342 408 342 370 l 342 702 m 245 702 q 288 854 245 791 q 401 947 331 918 q 559 977 471 977 q 827 899 732 977 l 788 869 q 559 928 707 928 q 369 869 444 928 q 294 702 294 810 l 294 408 q 315 309 294 351 q 376 242 336 267 q 464 207 415 218 q 573 196 513 196 q 739 237 673 196 q 805 353 805 279 q 750 470 805 429 q 616 511 695 511 q 429 475 517 511 l 429 527 q 617 557 520 557 q 785 503 716 557 q 854 353 854 448 q 774 202 854 258 q 573 147 694 147 q 446 162 504 147 q 342 208 387 178 q 271 290 296 239 q 245 408 245 340 l 245 702 m 147 702 q 180 862 147 790 q 269 979 212 933 q 399 1049 325 1025 q 559 1074 474 1074 q 753 1044 664 1074 q 903 960 843 1015 l 865 930 q 731 1001 811 976 q 559 1025 652 1025 q 418 1004 484 1025 q 303 943 353 983 q 224 841 253 903 q 196 702 196 779 l 196 408 q 225 271 196 331 q 307 174 255 211 q 426 117 359 136 q 573 98 494 98 q 808 168 713 98 q 903 353 903 237 q 862 490 903 432 q 759 576 822 549 q 620 604 696 604 q 429 572 520 604 l 429 622 q 621 651 524 651 q 787 613 711 651 q 907 507 863 575 q 951 353 951 438 q 900 193 951 263 q 763 86 849 123 q 573 50 677 50 q 408 73 484 50 q 273 139 332 96 q 181 252 214 183 q 147 408 147 321 l 147 702 m 50 702 q 90 898 50 809 q 199 1047 130 987 q 361 1139 269 1106 q 559 1172 454 1172 q 796 1132 686 1172 q 979 1021 905 1093 l 940 992 q 773 1089 873 1055 q 559 1123 674 1123 q 380 1095 464 1123 q 234 1015 297 1067 q 135 882 171 963 q 98 702 98 802 l 98 408 q 123 264 98 330 q 191 150 147 198 q 293 68 234 102 q 424 17 353 34 q 573 1 494 1 q 739 26 661 1 q 875 97 817 52 q 966 209 932 142 q 1000 353 1000 275 q 968 497 1000 431 q 882 607 935 564 q 761 675 829 651 q 621 700 693 700 q 429 669 518 700 l 429 720 q 624 746 522 746 q 784 718 707 746 q 920 640 861 690 q 1014 515 979 590 q 1049 353 1049 441 q 1011 190 1049 265 q 909 62 974 114 q 758 -19 845 10 q 573 -48 671 -48 q 369 -18 464 -48 q 203 70 275 13 q 91 214 132 127 q 50 408 50 301 l 50 702 z "},"7":{"ha":878,"x_min":39,"x_max":847,"o":"m 796 1123 l 847 1123 l 570 0 l 519 0 l 796 1123 m 415 928 l 404 879 l 39 879 l 39 928 l 415 928 m 438 1025 l 427 977 l 39 977 l 39 1025 l 438 1025 m 460 1123 l 450 1074 l 39 1074 l 39 1123 l 460 1123 m 494 1123 l 545 1123 l 268 0 l 218 0 l 494 1123 m 595 1123 l 646 1123 l 369 0 l 318 0 l 595 1123 m 696 1123 l 746 1123 l 469 0 l 419 0 l 696 1123 z "},"8":{"ha":1123,"x_min":47,"x_max":1079,"o":"m 479 732 l 661 732 q 818 704 743 732 q 952 627 894 676 q 1044 504 1010 577 q 1079 346 1079 431 q 1021 140 1079 231 q 866 0 963 49 q 650 -49 768 -49 l 490 -49 q 318 -20 399 -49 q 177 60 237 9 q 82 185 117 111 q 47 349 47 260 q 101 542 47 455 l 136 505 q 96 349 96 433 q 150 164 96 245 q 292 42 203 84 q 490 0 381 0 l 650 0 q 841 42 755 0 q 979 164 927 85 q 1030 346 1030 244 q 998 485 1030 420 q 914 592 966 549 q 795 659 862 635 q 658 684 728 684 l 479 684 q 340 783 340 684 q 379 853 340 828 q 476 879 418 879 l 637 879 q 744 852 703 879 q 786 770 786 825 q 778 734 786 747 l 732 743 q 737 770 737 750 q 637 830 737 830 l 476 830 q 414 818 439 830 q 389 783 389 806 q 413 743 389 753 q 479 732 437 732 m 647 391 l 466 391 q 308 419 384 391 q 175 497 233 447 q 82 621 117 547 q 47 783 47 696 q 105 984 47 895 q 261 1123 163 1074 q 476 1172 359 1172 l 637 1172 q 809 1143 728 1172 q 949 1062 890 1114 q 1044 934 1009 1010 q 1079 770 1079 859 q 1025 577 1079 664 l 990 614 q 1030 770 1030 686 q 977 956 1030 874 q 834 1080 924 1037 q 637 1123 745 1123 l 476 1123 q 329 1098 398 1123 q 208 1029 259 1073 q 126 921 157 985 q 96 783 96 857 q 128 640 96 706 q 212 531 160 574 q 331 464 264 488 q 469 439 398 439 l 648 439 q 746 416 707 439 q 786 346 786 393 q 748 270 786 295 q 650 244 710 244 l 490 244 q 382 270 423 244 q 340 349 340 295 q 348 391 340 377 l 395 380 q 389 349 389 371 q 416 305 389 317 q 490 293 442 293 l 650 293 q 737 346 737 293 q 647 391 737 391 m 653 488 l 469 488 q 240 573 334 488 q 145 783 145 658 q 241 992 145 911 q 476 1074 337 1074 l 637 1074 q 810 1038 732 1074 q 935 931 888 1001 q 981 770 981 861 q 953 648 981 705 l 913 672 q 932 770 932 719 q 848 956 932 886 q 637 1025 763 1025 l 476 1025 q 275 958 357 1025 q 194 783 194 891 q 217 679 194 726 q 278 601 239 631 q 366 554 316 570 q 470 537 415 537 l 654 537 q 767 515 715 537 q 851 448 819 492 q 884 346 884 404 q 817 200 884 253 q 650 146 751 146 l 490 146 q 313 200 383 146 q 243 349 243 253 q 257 423 243 387 l 302 405 q 292 349 292 380 q 348 235 292 275 q 490 195 404 195 l 650 195 q 783 235 730 195 q 835 346 835 275 q 782 450 835 412 q 653 488 728 488 m 656 586 l 473 586 q 310 639 376 586 q 243 783 243 692 q 310 924 243 871 q 476 977 377 977 l 637 977 q 813 921 743 977 q 884 770 884 866 q 870 701 884 732 l 825 719 q 835 770 835 739 q 779 886 835 845 q 637 928 722 928 l 476 928 q 345 888 397 928 q 292 783 292 849 q 344 673 292 711 q 473 635 397 635 l 658 635 q 886 550 791 635 q 981 346 981 466 q 936 189 981 258 q 816 85 891 121 q 650 49 741 49 l 490 49 q 317 84 395 49 q 192 189 239 120 q 145 349 145 258 q 174 471 145 414 l 214 447 q 194 349 194 400 q 234 213 194 271 q 341 126 275 155 q 490 98 408 98 l 650 98 q 851 165 770 98 q 932 346 932 233 q 893 474 932 418 q 792 558 854 530 q 656 586 730 586 z "},"9":{"ha":1086,"x_min":39,"x_max":1038,"o":"m 745 422 q 685 289 745 334 q 528 245 624 245 q 337 286 403 245 l 376 315 q 528 294 420 294 q 650 324 604 294 q 696 422 696 354 l 696 716 q 687 767 696 746 q 662 801 677 789 q 621 820 646 813 q 572 828 595 826 q 515 830 549 830 q 380 770 380 830 q 415 720 380 736 q 505 705 450 705 q 659 743 589 705 l 659 694 q 504 659 587 659 q 420 669 457 659 q 357 705 382 680 q 332 770 332 731 q 383 852 332 825 q 515 879 434 879 q 587 874 555 879 q 650 859 620 870 q 701 830 680 848 q 733 783 721 812 q 745 716 745 754 l 745 422 m 843 422 q 800 270 843 333 q 687 177 757 206 q 528 147 617 147 q 261 224 356 147 l 300 254 q 528 196 380 196 q 719 255 644 196 q 794 422 794 313 l 794 716 q 773 815 794 773 q 712 881 751 857 q 624 917 673 905 q 515 928 575 928 q 349 886 414 928 q 283 770 283 845 q 314 683 283 720 q 393 629 345 646 q 498 612 441 612 q 659 648 583 612 l 659 597 q 498 566 580 566 q 311 621 388 566 q 234 770 234 675 q 314 921 234 866 q 515 977 394 977 q 642 961 584 977 q 746 916 701 946 q 817 834 791 885 q 843 716 843 783 l 843 422 m 941 422 q 908 262 941 334 q 819 145 876 191 q 688 74 763 99 q 528 50 614 50 q 334 79 424 50 q 184 163 245 109 l 222 194 q 356 123 277 148 q 528 98 436 98 q 669 120 604 98 q 785 181 735 141 q 863 283 835 221 q 892 422 892 345 l 892 716 q 862 853 892 793 q 781 950 833 913 q 662 1006 729 987 q 515 1025 594 1025 q 280 956 374 1025 q 185 770 185 886 q 211 663 185 711 q 279 584 236 614 q 378 536 323 553 q 495 519 433 519 q 659 551 579 519 l 659 502 q 494 473 576 473 q 314 511 396 473 q 184 617 233 549 q 136 770 136 686 q 188 931 136 861 q 325 1038 239 1001 q 515 1074 410 1074 q 680 1051 604 1074 q 815 984 756 1028 q 907 872 873 941 q 941 716 941 803 l 941 422 m 1038 422 q 998 225 1038 315 q 888 77 958 136 q 726 -15 819 18 q 528 -48 633 -48 q 292 -8 401 -48 q 109 102 182 31 l 148 132 q 314 35 215 69 q 528 1 414 1 q 707 29 624 1 q 854 109 791 57 q 953 241 917 161 q 989 422 989 322 l 989 716 q 965 860 989 793 q 897 974 941 926 q 794 1056 854 1022 q 664 1106 735 1090 q 515 1123 593 1123 q 349 1098 427 1123 q 213 1027 271 1072 q 121 915 155 981 q 87 770 87 848 q 110 652 87 708 q 172 556 133 597 q 262 485 211 515 q 373 439 314 454 q 494 424 433 424 q 659 454 581 424 l 659 404 q 491 378 578 378 q 320 406 402 378 q 176 484 239 434 q 76 608 114 534 q 39 770 39 683 q 76 934 39 859 q 178 1062 114 1010 q 330 1143 243 1114 q 515 1172 417 1172 q 719 1141 624 1172 q 885 1054 813 1111 q 997 910 956 997 q 1038 716 1038 823 l 1038 422 z "},"\u0000":{"ha":151,"x_min":0,"x_max":0,"o":""},"\r":{"ha":151,"x_min":0,"x_max":0,"o":""},"\u0002":{"ha":151,"x_min":0,"x_max":0,"o":""},"\t":{"ha":151,"x_min":0,"x_max":0,"o":""},"\n":{"ha":151,"x_min":0,"x_max":0,"o":""}," ":{"ha":151,"x_min":0,"x_max":0,"o":""},"!":{"ha":467,"x_min":64,"x_max":406,"o":"m 64 146 l 64 195 l 406 195 l 406 146 l 64 146 m 64 49 l 64 98 l 406 98 l 406 49 l 64 49 m 64 -49 l 64 0 l 406 0 l 406 -49 l 64 -49 m 357 1123 l 406 1123 l 406 293 l 357 293 l 357 1123 m 259 1123 l 308 1123 l 308 293 l 259 293 l 259 1123 m 161 1123 l 210 1123 l 210 293 l 161 293 l 161 1123 m 64 1123 l 113 1123 l 113 293 l 64 293 l 64 1123 z "},"\"":{"ha":748,"x_min":57,"x_max":691,"o":"m 642 683 l 642 1123 l 691 1123 l 691 683 l 642 683 m 545 683 l 545 1123 l 593 1123 l 593 683 l 545 683 m 447 683 l 447 1123 l 496 1123 l 496 683 l 447 683 m 252 683 l 252 1123 l 301 1123 l 301 683 l 252 683 m 155 683 l 155 1123 l 203 1123 l 203 683 l 155 683 m 57 683 l 57 1123 l 106 1123 l 106 683 l 57 683 z "},"#":{"ha":1409,"x_min":26,"x_max":1382,"o":"m 753 357 l 741 309 l 555 309 l 568 357 l 753 357 m 728 260 l 716 211 l 530 211 l 543 260 l 728 260 m 703 161 l 692 113 l 505 113 l 517 161 l 703 161 m 1234 357 l 1222 309 l 1050 309 l 1063 357 l 1234 357 m 1210 260 l 1198 211 l 1025 211 l 1038 260 l 1210 260 m 1185 161 l 1173 113 l 1000 113 l 1012 161 l 1185 161 m 260 357 l 248 309 l 76 309 l 89 357 l 260 357 m 236 260 l 224 211 l 51 211 l 64 260 l 236 260 m 211 161 l 199 113 l 26 113 l 38 161 l 211 161 m 901 955 l 888 906 l 703 906 l 715 955 l 901 955 m 876 857 l 864 808 l 677 808 l 690 857 l 876 857 m 851 758 l 840 711 l 652 711 l 665 758 l 851 758 m 1382 955 l 1370 906 l 1198 906 l 1211 955 l 1382 955 m 1358 857 l 1345 808 l 1173 808 l 1185 857 l 1358 857 m 1333 758 l 1321 711 l 1147 711 l 1160 758 l 1333 758 m 490 1172 l 541 1172 l 227 -82 l 176 -82 l 490 1172 m 408 955 l 396 906 l 224 906 l 237 955 l 408 955 m 384 857 l 372 808 l 199 808 l 212 857 l 384 857 m 359 758 l 347 711 l 174 711 l 186 758 l 359 758 m 693 1172 l 743 1172 l 429 -82 l 378 -82 l 693 1172 m 591 1172 l 642 1172 l 328 -82 l 277 -82 l 591 1172 m 1186 1172 l 1236 1172 l 922 -82 l 871 -82 l 1186 1172 m 1084 1172 l 1135 1172 l 821 -82 l 770 -82 l 1084 1172 m 983 1172 l 1034 1172 l 720 -82 l 669 -82 l 983 1172 z "},"$":{"ha":953,"x_min":32,"x_max":922,"o":"m 440 684 l 522 684 q 706 636 628 684 q 821 512 783 589 q 859 342 859 436 q 833 209 859 271 q 759 100 807 147 q 635 27 710 54 q 467 0 560 0 q 244 34 349 0 q 71 131 140 68 l 32 102 q 222 -9 108 31 q 467 -49 336 -49 q 622 -29 551 -49 q 746 27 694 -9 q 834 111 798 62 q 890 218 871 160 q 908 342 908 277 q 883 492 908 422 q 810 616 858 562 q 689 701 763 670 q 524 732 616 732 l 440 732 q 400 745 411 732 q 389 781 389 758 q 409 817 389 804 q 488 830 429 830 q 654 808 607 830 l 694 838 q 488 879 625 879 q 342 781 342 879 q 365 710 342 737 q 440 684 388 684 m 517 635 l 440 635 q 326 675 361 635 q 291 781 291 715 q 338 887 291 847 q 488 928 385 928 q 731 869 646 928 l 770 899 q 648 957 722 937 q 488 977 574 977 q 303 922 365 977 q 242 781 242 868 q 292 640 242 694 q 440 586 341 586 l 517 586 q 698 517 635 586 q 762 342 762 448 q 686 166 762 235 q 467 98 610 98 q 286 123 370 98 q 146 193 201 148 l 108 163 q 264 79 170 109 q 467 49 359 49 q 720 132 630 49 q 810 342 810 215 q 733 551 810 467 q 517 635 655 635 m 515 537 l 440 537 q 257 606 321 537 q 193 781 193 675 q 269 957 193 888 q 488 1025 345 1025 q 669 1000 585 1025 q 808 930 753 975 l 846 960 q 690 1044 784 1015 q 488 1074 596 1074 q 235 991 325 1074 q 144 781 144 908 q 223 571 144 654 q 440 488 301 488 l 514 488 q 629 448 593 488 q 664 342 664 408 q 617 236 664 276 q 467 195 570 195 q 223 254 308 195 l 184 224 q 307 166 233 186 q 467 146 381 146 q 651 201 590 146 q 713 342 713 255 q 663 482 713 427 q 515 537 614 537 m 515 439 l 440 439 q 252 486 332 439 q 134 609 173 532 q 96 781 96 686 q 122 914 96 852 q 196 1023 148 976 q 320 1096 245 1069 q 488 1123 395 1123 q 710 1089 606 1123 q 883 992 814 1055 l 922 1021 q 732 1132 846 1093 q 488 1172 618 1172 q 333 1152 404 1172 q 209 1096 261 1132 q 120 1012 157 1061 q 65 905 83 963 q 47 781 47 846 q 73 629 47 700 q 147 505 98 559 q 271 421 195 452 q 440 391 347 391 l 513 391 q 554 377 543 391 q 566 342 566 364 q 546 306 566 319 q 467 293 526 293 q 300 315 347 293 l 260 285 q 467 244 330 244 q 613 342 613 244 q 590 412 613 385 q 515 439 567 439 m 566 -74 l 566 -202 l 517 -202 l 517 -77 l 566 -74 m 370 -202 l 370 -71 l 419 -77 l 419 -202 l 370 -202 m 566 1318 l 566 1190 l 517 1194 l 517 1318 l 566 1318 m 370 1187 l 370 1318 l 419 1318 l 419 1194 l 370 1187 z "},"%":{"ha":2090,"x_min":39,"x_max":2054,"o":"m 1274 205 q 1258 244 1274 205 q 1242 366 1242 282 q 1274 527 1242 450 q 1362 660 1307 604 q 1493 748 1417 715 q 1651 781 1569 781 q 1807 748 1733 781 q 1936 660 1882 715 q 2022 527 1990 604 q 2054 366 2054 450 q 2022 205 2054 282 q 1936 73 1990 128 q 1807 -16 1882 17 q 1651 -49 1733 -49 q 1493 -16 1569 -49 q 1362 73 1417 17 q 1274 205 1307 128 m 1729 452 q 1745 434 1729 452 q 1761 366 1761 416 q 1729 280 1761 316 q 1651 244 1697 244 q 1569 280 1603 244 q 1535 366 1535 316 q 1569 452 1535 416 q 1651 488 1603 488 q 1729 452 1697 488 m 1798 521 q 1828 489 1798 521 q 1859 366 1859 456 q 1798 211 1859 276 q 1651 146 1737 146 q 1500 211 1563 146 q 1437 366 1437 275 q 1500 522 1437 457 q 1651 586 1563 586 q 1798 521 1737 586 m 1867 590 q 1912 544 1867 590 q 1957 366 1957 497 q 1867 142 1957 235 q 1651 49 1777 49 q 1495 92 1567 49 q 1381 208 1423 134 q 1339 366 1339 281 q 1381 525 1339 452 q 1495 641 1423 598 q 1651 684 1567 684 q 1867 590 1777 684 m 1604 418 q 1594 407 1604 418 q 1584 366 1584 396 q 1604 315 1584 336 q 1651 293 1624 293 q 1694 315 1676 293 q 1712 366 1712 336 q 1694 418 1712 396 q 1651 439 1676 439 q 1604 418 1624 439 m 1534 487 q 1510 462 1534 487 q 1486 366 1486 437 q 1534 245 1486 296 q 1651 195 1583 195 q 1764 245 1717 195 q 1810 366 1810 296 q 1764 487 1810 437 q 1651 537 1717 537 q 1534 487 1583 537 m 1466 556 q 1427 516 1466 556 q 1388 366 1388 477 q 1466 177 1388 256 q 1651 98 1543 98 q 1832 177 1757 98 q 1908 366 1908 256 q 1832 556 1908 477 q 1651 635 1757 635 q 1466 556 1543 635 m 1339 550 q 1315 507 1339 550 q 1291 366 1291 465 q 1339 183 1291 267 q 1471 49 1388 98 q 1651 0 1554 0 q 1829 49 1747 0 q 1958 183 1910 98 q 2005 366 2005 267 q 1958 550 2005 465 q 1829 683 1910 634 q 1651 732 1747 732 q 1471 683 1554 732 q 1339 550 1388 634 m 71 596 q 55 634 71 596 q 39 757 39 673 q 71 918 39 841 q 159 1050 104 995 q 290 1139 214 1106 q 448 1172 366 1172 q 604 1139 530 1172 q 733 1050 679 1106 q 819 918 787 995 q 851 757 851 841 q 819 596 851 673 q 733 463 787 519 q 604 375 679 408 q 448 342 530 342 q 290 375 366 342 q 159 463 214 408 q 71 596 104 519 m 526 843 q 542 825 526 843 q 558 757 558 807 q 526 671 558 707 q 448 635 494 635 q 366 671 400 635 q 332 757 332 707 q 366 843 332 807 q 448 879 400 879 q 526 843 494 879 m 595 912 q 625 879 595 912 q 656 757 656 847 q 595 602 656 667 q 448 537 534 537 q 297 602 360 537 q 234 757 234 666 q 297 912 234 848 q 448 977 360 977 q 595 912 534 977 m 664 981 q 709 934 664 981 q 753 757 753 888 q 664 533 753 626 q 448 439 574 439 q 292 482 364 439 q 178 598 220 525 q 136 757 136 671 q 178 916 136 842 q 292 1031 220 989 q 448 1074 364 1074 q 664 981 574 1074 m 400 808 q 390 798 400 808 q 380 757 380 787 q 400 705 380 727 q 448 684 420 684 q 491 705 473 684 q 509 757 509 727 q 491 808 509 787 q 448 830 473 830 q 400 808 420 830 m 331 878 q 307 852 331 878 q 283 757 283 827 q 331 636 283 686 q 448 586 380 586 q 561 636 514 586 q 607 757 607 686 q 561 878 607 827 q 448 928 514 928 q 331 878 380 928 m 262 946 q 224 907 262 946 q 185 757 185 867 q 262 567 185 646 q 448 488 340 488 q 629 567 554 488 q 705 757 705 646 q 629 946 705 867 q 448 1025 554 1025 q 262 946 340 1025 m 136 940 q 112 898 136 940 q 87 757 87 856 q 136 573 87 658 q 268 440 184 489 q 448 391 351 391 q 626 440 544 391 q 755 573 707 489 q 802 757 802 658 q 755 940 802 856 q 626 1074 707 1025 q 448 1123 544 1123 q 268 1074 351 1123 q 136 940 184 1025 m 1270 1122 l 1320 1122 l 1006 -98 l 956 -98 l 1270 1122 m 1168 1122 l 1219 1122 l 905 -98 l 854 -98 l 1168 1122 m 1067 1122 l 1118 1122 l 804 -98 l 753 -98 l 1067 1122 z "},"&":{"ha":1430,"x_min":47,"x_max":1392,"o":"m 1244 530 l 1244 578 l 1392 578 l 1392 530 l 1244 530 m 1244 436 l 1244 485 l 1392 485 l 1392 436 l 1244 436 m 1170 393 l 1170 1123 l 1219 1123 l 1219 393 q 1229 352 1219 363 q 1259 342 1240 342 l 1350 342 l 1350 293 l 1257 293 q 1195 318 1219 293 q 1170 393 1170 343 m 1072 393 l 1072 1123 l 1121 1123 l 1121 393 q 1158 283 1121 321 q 1253 244 1196 244 l 1350 244 l 1350 195 l 1255 195 q 1126 248 1179 195 q 1072 393 1072 301 m 975 393 l 975 1123 l 1023 1123 l 1023 393 q 1056 260 1023 317 q 1141 175 1089 203 q 1255 146 1194 146 l 1350 146 l 1350 98 l 1257 98 q 1118 132 1182 98 q 1015 235 1055 167 q 975 393 975 304 m 877 393 l 877 1123 l 926 1123 l 926 393 q 953 250 926 315 q 1026 140 980 184 q 1131 73 1072 97 q 1255 49 1190 49 l 1350 49 l 1350 0 l 1255 0 q 1113 28 1181 0 q 992 105 1044 56 q 908 230 939 155 q 877 393 877 305 m 389 391 q 451 342 389 342 l 828 342 l 828 293 l 451 293 q 370 316 401 293 q 340 391 340 339 q 451 484 340 484 l 854 484 l 854 435 l 451 435 q 405 427 420 435 q 389 391 389 418 m 779 830 l 779 781 l 451 781 q 406 768 424 781 q 389 732 389 755 q 451 675 389 675 l 854 675 l 854 627 l 451 627 q 370 651 401 627 q 340 732 340 676 q 372 802 340 774 q 451 830 405 830 l 779 830 m 779 928 l 779 879 l 451 879 q 339 835 388 879 q 291 732 291 791 q 337 618 291 659 q 451 578 384 578 l 854 578 l 854 529 l 451 529 q 430 530 437 529 q 326 486 361 524 q 291 398 291 448 q 337 284 291 325 q 451 244 384 244 l 828 244 l 828 195 l 451 195 q 303 251 364 195 q 242 398 242 306 q 349 553 242 515 q 271 624 300 578 q 242 732 242 670 q 305 869 242 810 q 451 928 368 928 l 779 928 m 779 1025 l 779 977 l 451 977 q 271 904 348 977 q 193 732 193 831 q 269 558 193 629 q 213 485 233 533 q 193 398 193 437 q 269 217 193 288 q 451 146 345 146 l 828 146 l 828 98 l 451 98 q 299 136 370 98 q 187 244 229 174 q 144 398 144 313 q 212 560 144 486 q 144 732 144 637 q 186 878 144 810 q 299 986 229 946 q 451 1025 370 1025 l 779 1025 m 779 1123 l 779 1074 l 451 1074 q 275 1028 357 1074 q 144 902 193 981 q 96 732 96 823 q 156 557 96 638 q 111 476 126 522 q 96 398 96 431 q 124 260 96 325 q 201 149 153 195 q 315 76 250 102 q 451 49 380 49 l 828 49 l 828 0 l 451 0 q 296 28 369 0 q 167 106 222 56 q 79 232 112 156 q 47 398 47 307 q 103 557 47 479 q 47 732 47 632 q 102 927 47 836 q 251 1070 157 1017 q 451 1123 344 1123 l 779 1123 m 1392 627 l 1244 627 l 1244 675 l 1392 675 l 1392 627 z "},"'":{"ha":358,"x_min":57,"x_max":301,"o":"m 252 683 l 252 1123 l 301 1123 l 301 683 l 252 683 m 155 683 l 155 1123 l 203 1123 l 203 683 l 155 683 m 57 683 l 57 1123 l 106 1123 l 106 683 l 57 683 z "},"(":{"ha":570,"x_min":52,"x_max":525,"o":"m 345 336 l 345 739 q 381 844 345 809 q 473 880 418 880 l 525 880 l 525 831 l 475 831 q 415 811 437 831 q 393 739 393 791 l 393 336 q 415 264 393 283 q 475 244 437 244 l 525 244 l 525 195 l 473 195 q 381 231 418 195 q 345 336 345 266 m 247 336 l 247 739 q 313 913 247 848 q 471 977 378 977 l 525 977 l 525 928 l 469 928 q 344 880 392 928 q 296 739 296 831 l 296 336 q 344 195 296 243 q 469 146 392 146 l 525 146 l 525 98 l 471 98 q 313 162 378 98 q 247 336 247 227 m 149 336 l 149 739 q 195 918 149 840 q 314 1035 241 996 q 472 1075 387 1075 l 525 1075 l 525 1026 l 471 1026 q 368 1006 417 1026 q 281 951 319 987 q 221 860 243 916 q 198 739 198 805 l 198 336 q 221 215 198 270 q 281 124 243 159 q 368 68 319 88 q 471 49 417 49 l 525 49 l 525 0 l 472 0 q 314 40 387 0 q 195 157 241 79 q 149 336 149 235 m 52 336 l 52 739 q 86 918 52 836 q 180 1056 121 1001 q 313 1142 238 1111 q 471 1173 389 1173 l 525 1173 l 525 1124 l 470 1124 q 331 1097 398 1124 q 213 1021 264 1069 q 131 899 162 972 q 100 739 100 825 l 100 336 q 131 176 100 250 q 213 54 162 102 q 331 -22 264 5 q 470 -49 398 -49 l 525 -49 l 525 -98 l 471 -98 q 313 -67 389 -98 q 180 19 238 -36 q 86 157 121 74 q 52 336 52 239 z "},")":{"ha":568,"x_min":45,"x_max":519,"o":"m 519 739 l 519 336 q 484 157 519 239 q 391 19 449 74 q 257 -67 332 -36 q 100 -98 182 -98 l 45 -98 l 45 -49 l 100 -49 q 239 -22 172 -49 q 357 54 306 5 q 439 176 408 102 q 470 336 470 250 l 470 739 q 439 899 470 825 q 357 1021 408 972 q 239 1097 306 1069 q 100 1124 172 1124 l 45 1124 l 45 1173 l 100 1173 q 257 1142 182 1173 q 391 1056 332 1111 q 484 918 449 1001 q 519 739 519 836 m 421 739 l 421 336 q 375 157 421 235 q 256 40 329 79 q 98 0 183 0 l 45 0 l 45 49 l 100 49 q 202 68 153 49 q 289 124 251 88 q 350 215 327 159 q 372 336 372 270 l 372 739 q 350 860 372 805 q 289 951 327 916 q 202 1006 251 987 q 100 1026 153 1026 l 45 1026 l 45 1075 l 98 1075 q 256 1035 183 1075 q 375 918 329 996 q 421 739 421 840 m 323 739 l 323 336 q 258 162 323 227 q 100 98 192 98 l 45 98 l 45 146 l 102 146 q 227 195 178 146 q 275 336 275 243 l 275 739 q 227 880 275 831 q 102 928 178 928 l 45 928 l 45 977 l 100 977 q 258 913 192 977 q 323 739 323 848 m 226 739 l 226 336 q 189 231 226 266 q 98 195 152 195 l 45 195 l 45 244 l 96 244 q 155 264 133 244 q 177 336 177 283 l 177 739 q 155 811 177 791 q 96 831 133 831 l 45 831 l 45 880 l 98 880 q 189 844 152 880 q 226 739 226 809 z "},"*":{"ha":923,"x_min":41,"x_max":882,"o":"m 389 688 l 139 833 l 163 875 l 340 772 l 340 977 l 389 977 l 389 688 m 535 688 l 535 977 l 584 977 l 584 772 l 760 875 l 785 833 l 535 688 m 608 562 l 858 706 l 882 664 l 705 562 l 882 459 l 858 417 l 608 562 m 535 435 l 785 290 l 760 248 l 584 350 l 584 146 l 535 146 l 535 435 m 389 435 l 389 146 l 340 146 l 340 350 l 163 248 l 139 290 l 389 435 m 315 562 l 66 417 l 41 459 l 218 562 l 41 664 l 66 706 l 315 562 m 90 375 l 412 561 l 90 747 l 114 790 l 437 603 l 437 977 l 486 977 l 486 604 l 809 790 l 833 748 l 509 561 l 833 374 l 809 332 l 486 518 l 486 146 l 437 146 l 437 519 l 114 332 l 90 375 z "},"+":{"ha":835,"x_min":52,"x_max":784,"o":"m 52 635 l 52 684 l 254 684 l 254 880 l 302 880 l 302 245 l 254 245 l 254 440 l 52 440 l 52 489 l 254 489 l 254 538 l 52 538 l 52 587 l 254 587 l 254 635 l 52 635 m 547 880 l 595 880 l 595 684 l 784 684 l 784 635 l 595 635 l 595 587 l 784 587 l 784 538 l 595 538 l 595 489 l 784 489 l 784 440 l 595 440 l 595 245 l 547 245 l 547 880 m 449 880 l 498 880 l 498 245 l 449 245 l 449 880 m 351 880 l 400 880 l 400 245 l 351 245 l 351 880 z "},",":{"ha":351,"x_min":54,"x_max":298,"o":"m 54 50 l 54 245 l 102 245 l 102 50 l 54 50 m 54 -97 l 54 -48 q 101 -42 82 -48 q 130 -28 121 -36 q 145 -5 140 -21 q 151 20 150 10 q 151 50 151 30 l 151 245 l 200 245 l 200 50 q 200 26 200 35 q 197 0 199 17 q 189 -29 194 -18 q 173 -54 183 -40 q 147 -77 162 -68 q 108 -91 132 -85 q 54 -97 84 -97 m 54 -195 l 54 -146 q 112 -142 85 -146 q 157 -133 138 -138 q 191 -117 176 -127 q 215 -97 205 -106 q 231 -72 224 -87 q 241 -45 238 -56 q 247 -14 245 -34 q 249 17 248 5 q 249 50 249 28 l 249 245 l 298 245 l 298 50 q 297 15 298 28 q 295 -20 297 3 q 288 -58 292 -43 q 276 -92 284 -72 q 255 -125 267 -113 q 225 -153 243 -138 q 182 -176 206 -168 q 126 -189 159 -184 q 54 -195 93 -195 z "},"-":{"ha":658,"x_min":61,"x_max":598,"o":"m 61 635 l 61 684 l 598 684 l 598 635 l 61 635 m 61 537 l 61 586 l 598 586 l 598 537 l 61 537 m 61 439 l 61 488 l 598 488 l 598 439 l 61 439 z "},".":{"ha":355,"x_min":55,"x_max":299,"o":"m 55 195 l 55 244 l 299 244 l 299 195 l 55 195 m 55 98 l 55 146 l 299 146 l 299 98 l 55 98 m 55 0 l 55 49 l 299 49 l 299 0 l 55 0 z "},"/":{"ha":622,"x_min":26,"x_max":593,"o":"m 543 1122 l 593 1122 l 279 -132 l 229 -132 l 543 1122 m 441 1122 l 492 1122 l 178 -132 l 127 -132 l 441 1122 m 340 1122 l 391 1122 l 77 -132 l 26 -132 l 340 1122 z "},":":{"ha":365,"x_min":61,"x_max":305,"o":"m 61 391 l 61 439 l 305 439 l 305 391 l 61 391 m 61 293 l 61 342 l 305 342 l 305 293 l 61 293 m 61 195 l 61 244 l 305 244 l 305 195 l 61 195 m 61 781 l 61 830 l 305 830 l 305 781 l 61 781 m 61 684 l 61 732 l 305 732 l 305 684 l 61 684 m 61 586 l 61 635 l 305 635 l 305 586 l 61 586 z "},";":{"ha":363,"x_min":61,"x_max":305,"o":"m 61 244 l 61 439 l 110 439 l 110 244 l 61 244 m 61 98 l 61 146 q 109 153 90 146 q 138 166 128 159 q 152 189 147 174 q 158 215 157 205 q 159 244 159 224 l 159 439 l 208 439 l 208 244 q 207 220 208 229 q 204 194 207 212 q 196 166 201 177 q 180 140 191 155 q 154 118 170 126 q 115 103 139 109 q 61 98 92 98 m 61 0 l 61 49 q 119 53 93 49 q 164 62 145 56 q 198 78 183 67 q 222 98 213 89 q 239 123 232 107 q 249 150 245 139 q 254 180 252 161 q 256 211 256 200 q 256 244 256 222 l 256 439 l 305 439 l 305 244 q 305 210 305 222 q 302 174 304 197 q 296 137 300 151 q 283 102 292 123 q 263 69 275 82 q 232 42 251 56 q 190 19 214 27 q 133 5 166 11 q 61 0 100 0 m 61 781 l 61 830 l 305 830 l 305 781 l 61 781 m 61 684 l 61 732 l 305 732 l 305 684 l 61 684 m 61 586 l 61 635 l 305 635 l 305 586 l 61 586 z "},"<":{"ha":931,"x_min":49,"x_max":879,"o":"m 879 416 l 879 363 l 494 515 l 562 541 l 879 416 m 879 311 l 879 258 l 359 464 l 427 490 l 879 311 m 879 205 l 879 153 l 231 410 l 293 437 l 879 205 m 879 968 l 879 916 l 49 587 l 49 640 l 879 968 m 879 1074 l 879 1021 l 49 692 l 49 745 l 879 1074 m 879 863 l 879 810 l 49 482 l 49 534 l 879 863 m 879 758 l 879 706 l 115 404 l 879 101 l 879 49 l 49 377 l 49 430 l 879 758 z "},"=":{"ha":658,"x_min":61,"x_max":598,"o":"m 61 391 l 61 440 l 598 440 l 598 391 l 61 391 m 61 294 l 61 342 l 598 342 l 598 294 l 61 294 m 61 196 l 61 245 l 598 245 l 598 196 l 61 196 m 61 782 l 61 831 l 598 831 l 598 782 l 61 782 m 61 684 l 61 733 l 598 733 l 598 684 l 61 684 m 61 587 l 61 635 l 598 635 l 598 587 l 61 587 z "},">":{"ha":931,"x_min":54,"x_max":884,"o":"m 54 364 l 54 416 l 819 719 l 54 1021 l 54 1074 l 884 745 l 884 692 l 54 364 m 54 259 l 54 312 l 884 640 l 884 588 l 54 259 m 54 49 l 54 102 l 884 430 l 884 378 l 54 49 m 54 154 l 54 206 l 884 535 l 884 483 l 54 154 m 54 917 l 54 969 l 703 713 l 640 685 l 54 917 m 54 811 l 54 864 l 574 659 l 507 633 l 54 811 m 54 707 l 54 759 l 439 607 l 371 581 l 54 707 z "},"?":{"ha":964,"x_min":28,"x_max":924,"o":"m 448 1123 q 234 1089 333 1123 q 67 992 134 1055 l 28 1021 q 211 1132 102 1093 q 448 1172 321 1172 q 632 1143 545 1172 q 784 1062 720 1114 q 886 934 848 1010 q 924 770 924 859 q 891 608 924 683 q 805 484 859 534 q 680 406 751 434 q 532 378 610 378 q 502 378 524 378 q 460 379 480 379 q 427 378 441 379 l 427 424 l 530 424 q 657 448 595 424 q 767 516 719 473 q 845 627 816 560 q 875 770 875 693 q 841 915 875 848 q 749 1027 807 981 q 613 1098 692 1072 q 448 1123 535 1123 m 448 1025 q 276 1001 355 1025 q 142 930 196 976 l 104 960 q 254 1044 164 1015 q 448 1074 343 1074 q 638 1038 552 1074 q 775 931 724 1001 q 826 770 826 861 q 784 617 826 686 q 672 511 743 549 q 516 473 601 473 q 427 468 473 473 l 427 517 q 515 519 474 519 q 644 547 585 519 q 740 633 703 575 q 777 770 777 692 q 683 956 777 886 q 448 1025 588 1025 m 448 928 q 219 869 300 928 l 180 899 q 448 977 275 977 q 648 921 568 977 q 728 770 728 866 q 664 621 728 675 q 505 566 599 566 q 427 563 475 566 l 427 614 q 505 612 466 612 q 629 653 578 612 q 680 770 680 694 q 614 886 680 845 q 448 928 548 928 m 448 830 q 296 808 340 830 l 256 838 q 448 879 322 879 q 579 852 528 879 q 631 770 631 825 q 591 686 631 713 q 492 659 552 659 q 427 660 448 659 l 427 709 q 492 705 450 705 q 557 720 532 705 q 582 770 582 736 q 448 830 582 830 m 421 50 l 421 1 l 123 1 l 123 50 l 421 50 m 421 147 l 421 98 l 123 98 l 123 147 l 421 147 m 421 245 l 421 196 l 123 196 l 123 245 l 421 245 m 199 293 l 151 293 l 151 705 l 199 705 l 199 293 m 297 293 l 248 293 l 248 705 l 297 705 l 297 293 m 395 293 l 346 293 l 346 705 l 395 705 l 395 293 z "},"@":{"ha":1495,"x_min":41,"x_max":1452,"o":"m 905 154 l 909 106 q 696 98 810 98 q 521 134 604 98 q 377 231 437 170 q 280 377 316 292 q 245 556 245 462 q 284 739 245 652 q 390 889 323 826 q 550 988 457 951 q 744 1025 642 1025 q 942 990 847 1025 q 1105 894 1036 954 q 1215 751 1174 834 q 1257 576 1257 668 l 1257 429 q 1227 354 1257 381 q 1154 328 1198 328 q 1078 351 1108 328 q 1047 416 1047 374 l 1047 580 q 961 763 1047 696 q 741 830 876 830 q 624 807 679 830 q 531 746 569 785 q 470 655 492 707 q 448 546 448 603 q 530 354 448 428 q 739 279 613 279 l 824 281 l 824 237 q 738 235 779 235 q 571 271 648 235 q 447 380 495 308 q 399 546 399 452 q 497 783 399 687 q 741 879 595 879 q 923 843 842 879 q 1049 739 1003 807 q 1096 580 1096 670 l 1096 416 q 1113 387 1096 397 q 1154 376 1129 376 q 1193 391 1177 376 q 1208 429 1208 405 l 1208 576 q 1146 778 1208 686 q 978 923 1084 869 q 744 977 871 977 q 519 921 623 977 q 355 768 416 865 q 294 556 294 671 q 326 399 294 475 q 412 268 358 323 q 541 180 466 213 q 696 146 616 146 q 905 154 838 146 m 916 58 l 920 10 q 696 1 827 1 q 483 44 585 1 q 308 162 381 88 q 191 339 234 236 q 147 556 147 442 q 194 776 147 671 q 321 957 241 881 q 512 1078 401 1033 q 744 1123 623 1123 q 1048 1050 907 1123 q 1272 850 1189 977 q 1354 576 1354 724 l 1354 429 q 1297 284 1354 339 q 1154 230 1239 230 q 1008 282 1067 230 q 949 422 949 335 l 949 580 q 892 692 949 652 q 741 732 835 732 q 603 679 661 732 q 545 546 545 625 q 602 416 545 463 q 750 369 659 369 l 824 371 l 824 327 q 746 326 784 326 q 569 384 641 326 q 496 546 496 441 q 566 712 496 643 q 741 781 636 781 q 927 728 857 781 q 998 580 998 675 l 998 416 q 1043 315 998 352 q 1154 279 1087 279 q 1262 319 1219 279 q 1305 429 1305 359 l 1305 576 q 1261 770 1305 677 q 1142 929 1217 862 q 963 1035 1067 996 q 744 1074 859 1074 q 532 1033 633 1074 q 357 923 431 992 q 240 758 283 854 q 196 556 196 662 q 263 304 196 420 q 447 118 331 187 q 696 50 562 50 q 916 58 812 50 m 928 -38 l 933 -87 q 692 -97 829 -97 q 437 -46 558 -97 q 230 90 317 4 q 92 296 143 176 q 41 549 41 416 q 96 807 41 684 q 243 1021 151 930 q 466 1166 336 1112 q 740 1221 596 1221 q 925 1197 834 1221 q 1095 1131 1017 1173 q 1240 1029 1173 1089 q 1353 899 1306 969 q 1426 745 1399 828 q 1452 576 1452 663 l 1452 429 q 1368 212 1452 294 q 1157 130 1284 130 q 940 208 1027 130 q 854 416 854 286 l 854 580 q 824 621 854 606 q 743 635 794 635 q 674 607 705 635 q 643 546 643 579 q 669 481 643 506 q 732 457 696 457 l 824 458 l 824 415 q 742 414 777 414 q 637 450 681 414 q 594 546 594 486 q 637 642 594 601 q 743 684 681 684 q 858 655 814 684 q 903 580 903 627 l 903 416 q 975 242 903 307 q 1157 178 1047 178 q 1334 246 1265 178 q 1403 429 1403 314 l 1403 576 q 1352 805 1403 696 q 1212 995 1300 915 q 1000 1124 1124 1076 q 740 1172 877 1172 q 491 1123 610 1172 q 283 992 372 1074 q 143 793 195 909 q 90 549 90 677 q 139 322 90 432 q 269 131 188 212 q 462 1 351 50 q 692 -48 573 -48 q 928 -38 801 -48 z "},"A":{"ha":1301,"x_min":22,"x_max":1278,"o":"m 548 330 l 568 378 l 734 378 l 754 330 l 548 330 m 510 232 l 529 281 l 772 281 l 793 232 l 510 232 m 472 134 l 491 183 l 811 183 l 831 134 l 472 134 m 75 0 l 22 0 l 467 1123 l 519 1123 l 963 0 l 911 0 l 493 1057 l 75 0 m 499 941 l 527 879 l 180 0 l 127 0 l 499 941 m 553 812 l 579 745 l 286 0 l 233 0 l 553 812 m 605 678 l 631 610 l 390 0 l 338 0 l 605 678 m 1278 0 l 1225 0 l 782 1123 l 834 1123 l 1278 0 m 729 1123 l 1173 0 l 1121 0 l 677 1123 l 729 1123 m 624 1123 l 1068 0 l 1015 0 l 572 1123 l 624 1123 z "},"B":{"ha":1198,"x_min":63,"x_max":1151,"o":"m 809 391 q 793 427 809 418 q 747 435 777 435 l 432 435 l 432 484 l 747 484 q 858 391 858 484 q 827 316 858 339 q 747 293 797 293 l 432 293 l 432 342 l 747 342 q 809 391 809 342 m 405 0 l 356 0 l 356 830 l 747 830 q 825 802 793 830 q 858 732 858 774 q 827 651 858 676 q 747 627 797 627 l 432 627 l 432 675 l 747 675 q 809 732 809 675 q 791 768 809 755 q 747 781 774 781 l 405 781 l 405 0 m 432 578 l 747 578 q 860 618 814 578 q 907 732 907 659 q 858 835 907 791 q 747 879 810 879 l 307 879 l 307 0 l 258 0 l 258 928 l 747 928 q 893 869 830 928 q 956 732 956 810 q 927 624 956 670 q 849 553 898 578 q 956 398 956 515 q 895 251 956 306 q 747 195 833 195 l 432 195 l 432 244 l 747 244 q 860 284 814 244 q 907 398 907 325 q 871 486 907 448 q 768 530 836 524 q 747 529 761 529 l 432 529 l 432 578 m 1053 732 q 986 560 1053 637 q 1053 398 1053 486 q 1011 244 1053 313 q 898 136 968 174 q 747 98 828 98 l 432 98 l 432 146 l 747 146 q 928 217 852 146 q 1004 398 1004 288 q 984 485 1004 437 q 929 558 964 533 q 1004 732 1004 629 q 927 904 1004 831 q 747 977 850 977 l 210 977 l 210 0 l 161 0 l 161 1025 l 747 1025 q 898 986 827 1025 q 1011 878 969 946 q 1053 732 1053 810 m 1042 557 q 1102 732 1102 638 q 1054 902 1102 823 q 923 1028 1005 981 q 747 1074 841 1074 l 112 1074 l 112 0 l 63 0 l 63 1123 l 747 1123 q 947 1070 854 1123 q 1096 927 1040 1017 q 1151 732 1151 836 q 1095 557 1151 632 q 1151 398 1151 479 q 1118 232 1151 307 q 1030 106 1086 156 q 902 28 975 56 q 747 0 829 0 l 432 0 l 432 49 l 747 49 q 883 76 818 49 q 996 149 948 102 q 1073 260 1044 195 q 1102 398 1102 325 q 1087 476 1102 431 q 1042 557 1072 522 z "},"C":{"ha":1183,"x_min":38,"x_max":1153,"o":"m 911 739 l 871 713 q 775 799 834 767 q 648 830 717 830 q 458 751 537 830 q 380 562 380 673 q 458 372 380 450 q 648 293 537 293 q 775 325 717 293 q 871 411 834 357 l 910 382 q 798 281 867 319 q 648 244 728 244 q 525 269 584 244 q 424 337 467 294 q 356 438 381 380 q 331 562 331 497 q 356 685 331 626 q 424 786 381 743 q 525 854 467 829 q 648 879 584 879 q 798 841 729 879 q 911 739 867 804 m 991 795 l 951 768 q 821 885 901 842 q 648 928 741 928 q 465 879 549 928 q 331 745 380 829 q 282 562 282 661 q 331 378 282 462 q 465 244 380 294 q 648 195 549 195 q 821 239 741 195 q 951 356 901 282 l 991 328 q 844 195 935 244 q 648 146 753 146 q 440 202 536 146 q 289 353 345 258 q 233 562 233 449 q 289 770 233 674 q 440 921 345 865 q 648 977 536 977 q 844 928 753 977 q 991 795 935 879 m 1073 849 l 1032 823 q 867 971 968 916 q 648 1025 766 1025 q 468 989 554 1025 q 320 890 382 952 q 221 742 258 828 q 184 562 184 656 q 221 381 184 467 q 320 233 258 295 q 468 134 382 171 q 648 98 554 98 q 867 153 766 98 q 1032 301 968 208 l 1072 272 q 889 109 1001 169 q 648 49 778 49 q 391 118 509 49 q 204 304 273 186 q 136 562 136 422 q 204 819 136 701 q 391 1005 273 937 q 648 1074 509 1074 q 890 1014 779 1074 q 1073 849 1002 953 m 1153 905 l 1112 878 q 912 1057 1035 991 q 648 1123 790 1123 q 430 1079 534 1123 q 251 959 326 1034 q 131 780 176 884 q 87 562 87 675 q 131 343 87 448 q 251 164 176 239 q 430 44 326 89 q 648 0 534 0 q 913 66 790 0 q 1113 246 1036 133 l 1152 216 q 935 23 1068 94 q 648 -49 802 -49 q 411 0 524 -49 q 217 130 298 48 q 86 325 135 212 q 38 562 38 437 q 86 799 38 686 q 217 993 135 911 q 411 1123 298 1075 q 648 1172 524 1172 q 936 1100 803 1172 q 1153 905 1069 1028 z "},"D":{"ha":1231,"x_min":63,"x_max":1187,"o":"m 356 293 l 356 830 q 689 830 356 830 q 828 751 770 830 q 886 562 886 672 q 828 372 886 450 q 689 293 770 293 l 356 293 m 405 342 l 689 342 q 792 406 749 342 q 836 562 836 471 q 792 717 836 653 q 689 781 749 781 l 405 781 l 405 342 m 307 244 l 689 244 q 863 337 790 244 q 936 562 936 431 q 902 721 936 648 q 812 837 869 794 q 689 879 755 879 l 307 879 l 307 244 m 258 195 l 258 928 l 689 928 q 837 879 768 928 q 946 746 905 830 q 986 562 986 661 q 946 378 986 463 q 837 244 905 293 q 689 195 768 195 l 258 195 m 210 146 l 689 146 q 862 202 782 146 q 989 353 941 258 q 1036 562 1036 449 q 989 769 1036 673 q 861 921 941 865 q 689 977 781 977 l 210 977 l 210 146 m 161 98 l 161 1025 l 689 1025 q 886 963 795 1025 q 1032 794 978 901 q 1086 562 1086 687 q 1032 329 1086 436 q 886 160 978 222 q 689 98 795 98 l 161 98 m 112 49 l 689 49 q 861 90 778 49 q 1004 199 943 130 q 1100 362 1064 267 q 1137 562 1137 458 q 1100 760 1137 665 q 1004 924 1064 855 q 861 1034 943 993 q 689 1074 778 1074 l 112 1074 l 112 49 m 689 0 l 63 0 l 63 1123 l 689 1123 q 936 1048 821 1123 q 1119 843 1050 972 q 1187 562 1187 713 q 1146 343 1187 448 q 1039 164 1106 239 q 880 44 972 89 q 689 0 788 0 z "},"E":{"ha":981,"x_min":63,"x_max":924,"o":"m 307 0 l 258 0 l 258 1123 l 307 1123 l 307 0 m 210 0 l 161 0 l 161 1123 l 210 1123 l 210 0 m 112 0 l 63 0 l 63 1123 l 112 1123 l 112 0 m 405 244 l 924 244 l 924 195 l 405 195 l 405 146 l 924 146 l 924 98 l 405 98 l 405 49 l 924 49 l 924 0 l 356 0 l 356 1123 l 924 1123 l 924 1074 l 405 1074 l 405 1025 l 924 1025 l 924 977 l 405 977 l 405 928 l 924 928 l 924 879 l 405 879 l 405 684 l 671 684 l 671 635 l 405 635 l 405 586 l 671 586 l 671 537 l 405 537 l 405 488 l 671 488 l 671 439 l 405 439 l 405 244 z "},"F":{"ha":949,"x_min":63,"x_max":897,"o":"m 405 0 l 356 0 l 356 1123 l 897 1123 l 897 1074 l 405 1074 l 405 1025 l 897 1025 l 897 977 l 405 977 l 405 928 l 897 928 l 897 879 l 405 879 l 405 635 l 873 635 l 873 586 l 405 586 l 405 537 l 873 537 l 873 488 l 405 488 l 405 439 l 873 439 l 873 391 l 405 391 l 405 0 m 307 0 l 258 0 l 258 1123 l 307 1123 l 307 0 m 210 0 l 161 0 l 161 1123 l 210 1123 l 210 0 m 112 0 l 63 0 l 63 1123 l 112 1123 l 112 0 z "},"G":{"ha":1261,"x_min":38,"x_max":1204,"o":"m 960 587 l 1009 587 l 1009 0 l 960 0 l 960 587 m 1156 587 l 1204 587 l 1204 0 l 1156 0 l 1156 587 m 1058 587 l 1107 587 l 1107 0 l 1058 0 l 1058 587 m 911 587 l 911 0 q 644 -49 783 -49 q 414 -5 524 -49 q 221 118 304 39 q 88 312 138 196 q 38 562 38 427 q 86 799 38 686 q 217 993 135 911 q 411 1123 298 1075 q 648 1172 524 1172 q 936 1100 803 1172 q 1153 905 1069 1028 l 1112 878 q 912 1057 1035 991 q 648 1123 790 1123 q 430 1079 534 1123 q 251 959 326 1034 q 131 780 176 884 q 87 562 87 675 q 133 332 87 439 q 255 154 178 226 q 432 41 331 82 q 642 0 533 0 q 863 36 757 0 l 863 83 q 650 49 762 49 q 493 72 570 49 q 352 139 417 94 q 239 244 288 183 q 163 388 191 306 q 136 562 136 469 q 204 819 136 701 q 391 1005 273 937 q 648 1074 509 1074 q 890 1014 779 1074 q 1073 849 1002 953 l 1032 823 q 867 971 968 916 q 648 1025 766 1025 q 468 989 554 1025 q 320 890 382 952 q 221 742 258 828 q 184 562 184 656 q 209 402 184 477 q 278 273 234 328 q 380 178 321 218 q 507 118 438 138 q 648 98 576 98 q 863 136 761 98 l 863 184 q 653 146 762 146 q 495 174 570 146 q 361 254 420 202 q 268 385 302 305 q 233 562 233 465 q 289 770 233 674 q 440 921 345 865 q 648 977 536 977 q 844 928 753 977 q 991 795 935 879 l 951 768 q 821 885 901 842 q 648 928 741 928 q 465 879 549 928 q 331 745 380 829 q 282 562 282 661 q 302 433 282 492 q 356 330 321 373 q 437 256 391 286 q 537 210 484 225 q 648 195 591 195 q 863 240 763 195 l 863 287 q 654 244 766 244 q 533 264 590 244 q 430 321 476 283 q 358 421 385 359 q 331 562 331 484 q 356 685 331 626 q 424 786 381 743 q 525 854 467 829 q 648 879 584 879 q 798 841 729 879 q 911 739 867 804 l 871 713 q 775 799 834 767 q 648 830 717 830 q 458 751 537 830 q 380 562 380 673 q 402 440 380 493 q 464 356 425 388 q 550 309 503 325 q 653 293 598 293 q 863 340 766 293 l 863 587 l 911 587 z "},"H":{"ha":1252,"x_min":63,"x_max":1186,"o":"m 1137 1123 l 1186 1123 l 1186 0 l 1137 0 l 1137 1123 m 63 1123 l 112 1123 l 112 0 l 63 0 l 63 1123 m 1040 1123 l 1088 1123 l 1088 0 l 1040 0 l 1040 1123 m 942 1123 l 991 1123 l 991 0 l 942 0 l 942 1123 m 844 1123 l 893 1123 l 893 0 l 844 0 l 844 440 l 405 440 l 405 0 l 356 0 l 356 1123 l 405 1123 l 405 684 l 844 684 l 844 1123 m 258 1123 l 307 1123 l 307 0 l 258 0 l 258 1123 m 161 1123 l 210 1123 l 210 0 l 161 0 l 161 1123 m 844 489 l 844 538 l 405 538 l 405 489 l 844 489 m 844 587 l 844 635 l 405 635 l 405 587 l 844 587 z "},"I":{"ha":471,"x_min":63,"x_max":405,"o":"m 356 1123 l 405 1123 l 405 0 l 356 0 l 356 1123 m 258 1123 l 307 1123 l 307 0 l 258 0 l 258 1123 m 161 1123 l 210 1123 l 210 0 l 161 0 l 161 1123 m 63 1123 l 112 1123 l 112 0 l 63 0 l 63 1123 z "},"J":{"ha":604,"x_min":32,"x_max":542,"o":"m 115 244 l 32 244 l 32 293 l 115 293 q 176 320 151 293 q 200 392 200 347 l 200 1123 l 249 1123 l 249 392 q 210 286 249 328 q 115 244 172 244 m 115 146 l 32 146 l 32 195 l 115 195 q 244 253 191 195 q 298 392 298 311 l 298 1123 l 347 1123 l 347 392 q 279 218 347 290 q 115 146 212 146 m 115 49 l 32 49 l 32 98 l 115 98 q 314 184 232 98 q 395 392 395 270 l 395 1123 l 444 1123 l 444 392 q 400 220 444 299 q 281 95 357 141 q 115 49 205 49 m 115 -49 l 32 -49 l 32 0 l 115 0 q 262 31 193 0 q 383 115 332 62 q 463 240 433 168 q 493 392 493 313 l 493 1123 l 542 1123 l 542 392 q 508 221 542 302 q 417 80 475 140 q 281 -14 360 21 q 115 -49 202 -49 z "},"K":{"ha":1133,"x_min":63,"x_max":1103,"o":"m 405 0 l 356 0 l 356 1123 l 405 1123 l 405 0 m 307 0 l 258 0 l 258 1123 l 307 1123 l 307 0 m 210 0 l 161 0 l 161 1123 l 210 1123 l 210 0 m 112 0 l 63 0 l 63 1123 l 112 1123 l 112 0 m 762 562 l 1048 1123 l 1103 1123 l 816 562 l 1103 0 l 1048 0 l 762 562 m 652 562 l 939 1123 l 994 1123 l 707 562 l 994 0 l 939 0 l 652 562 m 543 562 l 830 1123 l 884 1123 l 597 562 l 884 0 l 830 0 l 543 562 m 433 562 l 721 1123 l 775 1123 l 488 562 l 775 0 l 721 0 l 433 562 z "},"L":{"ha":840,"x_min":63,"x_max":795,"o":"m 63 1123 l 112 1123 l 112 0 l 63 0 l 63 1123 m 356 1123 l 405 1123 l 405 244 l 795 244 l 795 195 l 405 195 l 405 146 l 795 146 l 795 98 l 405 98 l 405 49 l 795 49 l 795 0 l 356 0 l 356 1123 m 258 1123 l 307 1123 l 307 0 l 258 0 l 258 1123 m 161 1123 l 210 1123 l 210 0 l 161 0 l 161 1123 z "},"M":{"ha":1279,"x_min":63,"x_max":1213,"o":"m 871 410 l 920 502 l 920 0 l 871 0 l 871 410 m 969 597 l 1018 689 l 1018 0 l 969 0 l 969 597 m 1067 781 l 1116 874 l 1116 0 l 1067 0 l 1067 781 m 739 433 l 711 484 l 1048 1123 l 1103 1123 l 739 433 m 683 539 l 654 591 l 937 1123 l 992 1123 l 683 539 m 356 496 l 405 404 l 405 0 l 356 0 l 356 496 m 258 682 l 307 590 l 307 0 l 258 0 l 258 682 m 161 868 l 210 775 l 210 0 l 161 0 l 161 868 m 555 293 l 500 293 l 112 1030 l 112 0 l 63 0 l 63 1123 l 118 1123 l 555 293 m 666 293 l 610 293 l 174 1123 l 229 1123 l 666 293 m 1164 1030 l 776 293 l 720 293 l 284 1123 l 339 1123 l 749 345 l 1158 1123 l 1213 1123 l 1213 0 l 1164 0 l 1164 1030 z "},"N":{"ha":1219,"x_min":63,"x_max":1154,"o":"m 861 541 l 812 621 l 812 1123 l 861 1123 l 861 541 m 958 380 l 909 463 l 909 1123 l 958 1123 l 958 380 m 1056 218 l 1007 301 l 1007 1123 l 1056 1123 l 1056 218 m 356 583 l 405 502 l 405 0 l 356 0 l 356 583 m 258 743 l 307 661 l 307 0 l 258 0 l 258 743 m 161 905 l 210 822 l 210 0 l 161 0 l 161 905 m 178 1123 l 235 1123 l 925 0 l 868 0 l 178 1123 m 293 1123 l 351 1123 l 1040 0 l 982 0 l 293 1123 m 408 1123 l 465 1123 l 1105 79 l 1105 1123 l 1154 1123 l 1154 0 q 1096 0 1154 0 l 408 1123 m 112 1044 l 112 0 l 63 0 l 63 1123 q 121 1123 63 1123 l 810 0 l 753 0 l 112 1044 z "},"O":{"ha":1297,"x_min":38,"x_max":1259,"o":"m 458 751 q 419 712 458 751 q 380 562 380 673 q 458 372 380 450 q 648 293 537 293 q 838 372 760 293 q 917 562 917 450 q 838 751 917 673 q 648 830 760 830 q 458 751 537 830 m 356 438 q 343 468 356 438 q 331 562 331 497 q 356 685 331 626 q 424 786 381 743 q 525 854 467 829 q 648 879 584 879 q 771 854 713 879 q 873 786 830 829 q 941 685 916 743 q 966 562 966 626 q 941 438 966 497 q 873 337 916 380 q 771 269 830 294 q 648 244 713 244 q 525 269 584 244 q 424 337 467 294 q 356 438 381 380 m 331 745 q 307 703 331 745 q 282 562 282 661 q 331 378 282 462 q 465 244 380 294 q 648 195 549 195 q 832 244 748 195 q 965 378 916 294 q 1015 562 1015 462 q 965 745 1015 661 q 832 879 916 829 q 648 928 748 928 q 465 879 549 928 q 331 745 380 829 m 289 353 q 261 401 289 353 q 233 562 233 449 q 289 770 233 674 q 440 921 345 865 q 648 977 536 977 q 857 921 761 977 q 1008 770 952 865 q 1063 562 1063 674 q 1008 353 1063 449 q 857 202 952 258 q 648 146 761 146 q 440 202 536 146 q 289 353 345 258 m 221 742 q 203 699 221 742 q 184 562 184 656 q 221 381 184 467 q 320 233 258 295 q 468 134 382 171 q 648 98 554 98 q 829 134 743 98 q 977 233 915 171 q 1076 381 1039 295 q 1112 562 1112 467 q 1076 742 1112 656 q 977 890 1039 828 q 829 989 915 952 q 648 1025 743 1025 q 468 989 554 1025 q 320 890 382 952 q 221 742 258 828 m 204 304 q 170 363 204 304 q 136 562 136 422 q 204 819 136 701 q 391 1005 273 937 q 648 1074 509 1074 q 905 1005 787 1074 q 1092 819 1023 937 q 1161 562 1161 701 q 1092 304 1161 422 q 905 118 1023 186 q 648 49 787 49 q 391 118 509 49 q 204 304 273 186 m 131 780 q 109 728 131 780 q 87 562 87 675 q 131 343 87 448 q 251 164 176 239 q 430 44 326 89 q 648 0 534 0 q 866 44 762 0 q 1046 164 970 89 q 1165 343 1121 239 q 1210 562 1210 448 q 1165 780 1210 675 q 1046 959 1121 884 q 866 1079 970 1034 q 648 1123 762 1123 q 430 1079 534 1123 q 251 959 326 1034 q 131 780 176 884 m 86 325 q 62 381 86 325 q 38 562 38 437 q 86 799 38 686 q 217 993 135 911 q 411 1123 298 1075 q 648 1172 524 1172 q 885 1123 772 1172 q 1080 993 998 1075 q 1210 799 1162 911 q 1259 562 1259 686 q 1210 325 1259 437 q 1080 130 1162 212 q 885 0 998 48 q 648 -49 772 -49 q 411 0 524 -49 q 217 130 298 48 q 86 325 135 212 z "},"P":{"ha":1181,"x_min":63,"x_max":1137,"o":"m 443 532 l 726 532 q 845 579 796 532 q 893 712 893 626 q 842 828 893 777 q 726 879 791 879 l 307 879 l 307 0 l 258 0 l 258 928 l 726 928 q 877 862 812 928 q 942 712 942 796 q 879 546 942 608 q 726 483 816 483 l 443 483 l 443 532 m 443 434 l 726 434 q 857 468 797 434 q 954 567 917 503 q 991 712 991 631 q 911 897 991 817 q 726 977 831 977 l 210 977 l 210 0 l 161 0 l 161 1025 l 726 1025 q 881 982 808 1025 q 997 866 954 939 q 1040 712 1040 793 q 996 544 1040 620 q 881 427 953 469 q 726 385 810 385 l 443 385 l 443 434 m 443 336 l 726 336 q 865 365 799 336 q 981 443 932 394 q 1059 563 1030 492 q 1088 712 1088 633 q 1039 891 1088 807 q 906 1024 989 975 q 726 1074 822 1074 l 112 1074 l 112 0 l 63 0 l 63 1123 l 726 1123 q 930 1066 835 1123 q 1081 915 1025 1010 q 1137 712 1137 820 q 1104 535 1137 616 q 1015 400 1071 454 q 884 317 958 347 q 726 288 809 288 l 443 288 l 443 336 m 405 0 l 356 0 l 356 830 l 726 830 q 809 795 774 830 q 844 712 844 760 q 726 581 844 581 l 443 581 l 443 629 l 726 629 q 777 648 759 629 q 795 712 795 666 q 775 762 795 742 q 726 781 755 781 l 405 781 l 405 0 z "},"Q":{"ha":1303,"x_min":38,"x_max":1259,"o":"m 711 332 l 661 319 l 607 407 l 648 433 l 711 332 m 880 -33 l 926 -13 l 999 -132 l 958 -158 l 880 -33 m 798 377 l 758 351 l 691 458 l 732 484 l 798 377 m 969 9 l 1010 35 l 1081 -79 l 1040 -106 l 969 9 m 865 454 l 836 410 l 774 508 l 815 536 l 865 454 m 1050 63 l 1088 96 l 1164 -26 l 1122 -53 l 1050 63 m 458 751 q 419 712 458 751 q 380 562 380 673 q 458 372 380 450 q 648 293 537 293 q 838 372 760 293 q 917 562 917 450 q 838 751 917 673 q 648 830 760 830 q 458 751 537 830 m 356 438 q 343 468 356 438 q 331 562 331 497 q 356 685 331 626 q 424 786 381 743 q 525 854 467 829 q 648 879 584 879 q 771 854 713 879 q 873 786 830 829 q 941 685 916 743 q 966 562 966 626 q 941 438 966 497 q 873 337 916 380 q 771 269 830 294 q 648 244 713 244 q 525 269 584 244 q 424 337 467 294 q 356 438 381 380 m 331 745 q 307 703 331 745 q 282 562 282 661 q 331 378 282 462 q 465 244 380 294 q 648 195 549 195 q 832 244 748 195 q 965 378 916 294 q 1015 562 1015 462 q 965 745 1015 661 q 832 879 916 829 q 648 928 748 928 q 465 879 549 928 q 331 745 380 829 m 289 353 q 261 401 289 353 q 233 562 233 449 q 289 770 233 674 q 440 921 345 865 q 648 977 536 977 q 857 921 761 977 q 1008 770 952 865 q 1063 562 1063 674 q 1008 353 1063 449 q 857 202 952 258 q 648 146 761 146 q 440 202 536 146 q 289 353 345 258 m 221 742 q 203 699 221 742 q 184 562 184 656 q 221 381 184 467 q 320 233 258 295 q 468 134 382 171 q 648 98 554 98 q 829 134 743 98 q 977 233 915 171 q 1076 381 1039 295 q 1112 562 1112 467 q 1076 742 1112 656 q 977 890 1039 828 q 829 989 915 952 q 648 1025 743 1025 q 468 989 554 1025 q 320 890 382 952 q 221 742 258 828 m 204 304 q 170 363 204 304 q 136 562 136 422 q 204 819 136 701 q 391 1005 273 937 q 648 1074 509 1074 q 905 1005 787 1074 q 1092 819 1023 937 q 1161 562 1161 701 q 1092 304 1161 422 q 905 118 1023 186 q 648 49 787 49 q 391 118 509 49 q 204 304 273 186 m 131 780 q 109 728 131 780 q 87 562 87 675 q 131 343 87 448 q 251 164 176 239 q 430 44 326 89 q 648 0 534 0 q 866 44 762 0 q 1046 164 970 89 q 1165 343 1121 239 q 1210 562 1210 448 q 1165 780 1210 675 q 1046 959 1121 884 q 866 1079 970 1034 q 648 1123 762 1123 q 430 1079 534 1123 q 251 959 326 1034 q 131 780 176 884 m 86 325 q 62 381 86 325 q 38 562 38 437 q 86 799 38 686 q 217 993 135 911 q 411 1123 298 1075 q 648 1172 524 1172 q 885 1123 772 1172 q 1080 993 998 1075 q 1210 799 1162 911 q 1259 562 1259 686 q 1210 325 1259 437 q 1080 130 1162 212 q 885 0 998 48 q 648 -49 772 -49 q 411 0 524 -49 q 217 130 298 48 q 86 325 135 212 z "},"R":{"ha":1172,"x_min":63,"x_max":1131,"o":"m 432 559 l 726 559 q 840 602 793 559 q 886 726 886 646 q 838 832 886 785 q 726 879 789 879 l 307 879 l 307 0 l 258 0 l 258 928 l 726 928 q 872 866 809 928 q 935 726 935 805 q 874 569 935 628 q 726 510 813 510 l 432 510 l 432 559 m 432 461 l 726 461 q 908 535 832 461 q 984 726 984 610 q 906 901 984 825 q 726 977 829 977 l 210 977 l 210 0 l 161 0 l 161 1025 l 726 1025 q 878 984 807 1025 q 991 873 949 943 q 1033 726 1033 804 q 942 502 1033 592 q 726 412 852 412 l 432 412 l 432 461 m 432 363 l 726 363 q 903 410 821 363 q 1033 541 984 457 q 1082 726 1082 625 q 1033 898 1082 817 q 903 1026 985 978 q 726 1074 821 1074 l 112 1074 l 112 0 l 63 0 l 63 1123 l 726 1123 q 926 1068 833 1123 q 1075 922 1020 1014 q 1131 726 1131 830 q 1079 513 1131 605 q 938 370 1027 422 l 1064 0 l 1013 0 l 892 347 q 850 332 865 336 l 964 0 l 912 0 l 802 321 q 758 316 795 319 l 863 0 l 812 0 l 708 315 l 664 315 l 763 0 l 711 0 l 612 315 l 432 315 l 432 363 m 405 0 l 356 0 l 356 830 l 726 830 q 805 799 772 830 q 838 726 838 768 q 726 608 838 608 l 432 608 l 432 656 l 726 656 q 772 672 755 656 q 789 726 789 687 q 771 765 789 749 q 726 781 753 781 l 405 781 l 405 0 z "},"S":{"ha":947,"x_min":26,"x_max":917,"o":"m 517 684 l 435 684 q 359 710 382 684 q 336 781 336 737 q 482 879 336 879 q 688 838 619 879 l 649 808 q 482 830 602 830 q 404 817 424 830 q 384 781 384 804 q 395 745 384 758 q 435 732 406 732 l 519 732 q 684 701 610 732 q 805 616 758 670 q 878 492 852 562 q 903 342 903 422 q 884 218 903 277 q 829 111 866 160 q 740 27 792 62 q 617 -29 688 -9 q 462 -49 545 -49 q 217 -9 331 -49 q 26 102 102 31 l 66 131 q 239 34 135 68 q 462 0 343 0 q 630 27 555 0 q 753 100 705 54 q 828 209 802 147 q 854 342 854 271 q 816 512 854 436 q 700 636 778 589 q 517 684 623 684 m 435 635 l 512 635 q 727 551 650 635 q 805 342 805 467 q 715 132 805 215 q 462 49 625 49 q 259 79 353 49 q 102 163 165 109 l 140 193 q 280 123 196 148 q 462 98 365 98 q 681 166 605 98 q 756 342 756 235 q 693 517 756 448 q 511 586 629 586 l 435 586 q 286 640 336 586 q 237 781 237 694 q 298 922 237 868 q 482 977 359 977 q 642 957 568 977 q 764 899 716 937 l 726 869 q 482 928 641 928 q 333 887 380 928 q 286 781 286 847 q 320 675 286 715 q 435 635 355 635 m 435 537 l 509 537 q 658 482 608 537 q 707 342 707 427 q 646 201 707 255 q 462 146 585 146 q 301 166 376 146 q 179 224 227 186 l 218 254 q 462 195 302 195 q 611 236 564 195 q 659 342 659 276 q 623 448 659 408 q 509 488 588 488 l 435 488 q 217 571 296 488 q 139 781 139 654 q 229 991 139 908 q 482 1074 319 1074 q 685 1044 591 1074 q 841 960 779 1015 l 803 930 q 663 1000 747 975 q 482 1025 579 1025 q 263 957 339 1025 q 188 781 188 888 q 252 606 188 675 q 435 537 315 537 m 435 439 l 509 439 q 585 412 562 439 q 608 342 608 385 q 462 244 608 244 q 255 285 324 244 l 294 315 q 462 293 342 293 q 540 306 520 293 q 560 342 560 319 q 549 377 560 364 q 508 391 538 391 l 435 391 q 266 421 341 391 q 141 505 190 452 q 67 629 93 559 q 41 781 41 700 q 60 905 41 846 q 115 1012 78 963 q 204 1096 152 1061 q 327 1152 256 1132 q 482 1172 399 1172 q 727 1132 613 1172 q 917 1021 841 1093 l 878 992 q 705 1089 808 1055 q 482 1123 601 1123 q 314 1096 389 1123 q 191 1023 239 1069 q 116 914 142 976 q 90 781 90 852 q 129 609 90 686 q 247 486 168 532 q 435 439 326 439 z "},"T":{"ha":821,"x_min":41,"x_max":774,"o":"m 41 1074 l 41 1123 l 774 1123 l 774 1074 l 41 1074 m 41 977 l 41 1025 l 774 1025 l 774 977 l 41 977 m 41 879 l 41 928 l 774 928 l 774 879 l 578 879 l 578 0 l 530 0 l 530 879 l 481 879 l 481 0 l 432 0 l 432 879 l 383 879 l 383 0 l 334 0 l 334 879 l 286 879 l 286 0 l 237 0 l 237 879 l 41 879 z "},"U":{"ha":1257,"x_min":56,"x_max":1196,"o":"m 854 494 l 854 1123 l 903 1123 l 903 494 q 821 317 903 391 q 626 244 740 244 q 431 317 512 244 q 349 494 349 391 l 349 1123 l 398 1123 l 398 494 q 465 352 398 411 q 626 293 532 293 q 787 352 720 293 q 854 494 854 411 m 951 494 l 951 1123 l 1000 1123 l 1000 494 q 970 359 1000 423 q 890 248 941 295 q 771 174 840 201 q 626 146 702 146 q 481 174 550 146 q 361 248 412 201 q 281 359 311 295 q 252 494 252 423 l 252 1123 l 300 1123 l 300 494 q 344 344 300 413 q 463 235 388 275 q 626 195 538 195 q 789 235 714 195 q 908 344 864 275 q 951 494 951 413 m 1049 494 l 1049 1123 l 1098 1123 l 1098 494 q 1060 321 1098 404 q 960 179 1023 239 q 809 84 897 119 q 626 49 722 49 q 443 84 530 49 q 292 179 355 119 q 192 321 229 239 q 154 494 154 404 l 154 1123 l 203 1123 l 203 494 q 260 295 203 387 q 414 151 317 204 q 626 98 511 98 q 838 151 741 98 q 992 295 935 204 q 1049 494 1049 387 m 1147 494 l 1147 1123 l 1196 1123 l 1196 494 q 1119 222 1196 347 q 911 24 1042 97 q 626 -49 780 -49 q 341 24 472 -49 q 133 222 210 97 q 56 494 56 347 l 56 1123 l 105 1123 l 105 494 q 146 302 105 394 q 258 145 188 211 q 424 39 328 79 q 626 0 521 0 q 828 39 731 0 q 994 145 924 79 q 1105 302 1064 211 q 1147 494 1147 394 z "},"V":{"ha":1307,"x_min":25,"x_max":1281,"o":"m 25 1123 l 78 1123 l 496 66 l 913 1123 l 966 1123 l 522 0 l 469 0 l 25 1123 m 530 244 l 502 182 l 130 1123 l 182 1123 l 530 244 m 582 378 l 556 311 l 235 1123 l 288 1123 l 582 378 m 633 513 l 608 445 l 340 1123 l 393 1123 l 633 513 m 1228 1123 l 1281 1123 l 837 0 l 785 0 l 1228 1123 m 1124 1123 l 1176 1123 l 732 0 l 680 0 l 1124 1123 m 1018 1123 l 1071 1123 l 627 0 l 574 0 l 1018 1123 z "},"W":{"ha":1613,"x_min":28,"x_max":1584,"o":"m 385 345 l 361 249 l 130 1123 l 180 1123 l 385 345 m 435 533 l 410 439 l 231 1123 l 280 1123 l 435 533 m 486 728 l 460 633 l 331 1123 l 382 1123 l 486 728 m 680 0 l 629 0 l 926 1122 l 925 1123 l 977 1123 l 977 1122 l 1109 666 l 1230 1123 l 1281 1123 l 983 0 l 932 0 l 800 455 l 680 0 m 578 0 l 528 0 l 825 1123 l 875 1123 l 578 0 m 477 0 l 427 0 l 724 1123 l 774 1123 l 477 0 m 1287 0 l 1236 0 l 1533 1123 l 1584 1123 l 1287 0 m 1185 0 l 1135 0 l 1432 1123 l 1482 1123 l 1185 0 m 1084 0 l 1034 0 l 1332 1123 l 1381 1123 l 1084 0 m 351 96 l 623 1123 l 673 1123 l 376 0 l 325 0 l 28 1123 l 79 1123 l 351 96 m 825 551 l 957 92 l 983 189 l 850 646 l 825 551 m 876 742 l 1008 285 l 1034 380 l 901 838 l 876 742 m 926 932 l 1059 475 l 1084 571 l 952 1029 l 926 932 z "},"X":{"ha":1217,"x_min":21,"x_max":1200,"o":"m 404 607 l 374 561 l 21 1123 l 79 1123 l 404 607 m 644 240 l 673 286 l 853 0 l 795 0 l 644 240 m 461 698 l 432 652 l 136 1123 l 193 1123 l 461 698 m 702 332 l 730 378 l 968 0 l 911 0 l 702 332 m 519 790 l 490 745 l 252 1123 l 309 1123 l 519 790 m 760 424 l 789 470 l 1084 0 l 1027 0 l 760 424 m 576 882 l 548 836 l 367 1123 l 425 1123 l 576 882 m 817 515 l 846 562 l 1200 0 l 1142 0 l 817 515 m 1108 1123 l 1166 1123 l 459 0 l 401 0 l 1108 1123 m 994 1123 l 1050 1123 l 344 0 l 286 0 l 994 1123 m 878 1123 l 935 1123 l 228 0 l 170 0 l 878 1123 m 762 1123 l 820 1123 l 113 0 l 55 0 l 762 1123 z "},"Y":{"ha":1096,"x_min":24,"x_max":1072,"o":"m 439 565 l 414 511 l 121 1123 l 170 1123 l 439 565 m 488 672 l 463 618 l 219 1123 l 268 1123 l 488 672 m 536 779 l 512 725 l 317 1123 l 366 1123 l 536 779 m 475 378 l 828 1123 l 877 1123 l 524 378 l 524 0 l 475 0 l 475 378 m 572 378 l 926 1123 l 975 1123 l 621 378 l 621 0 l 572 0 l 572 378 m 670 378 l 1023 1123 l 1072 1123 l 719 378 l 719 0 l 670 0 l 670 378 m 401 430 l 730 1123 l 779 1123 l 426 378 l 426 0 l 377 0 l 377 378 l 24 1123 l 73 1123 l 401 430 z "},"Z":{"ha":1186,"x_min":54,"x_max":1129,"o":"m 594 293 l 675 342 l 1129 342 l 1129 293 l 594 293 m 434 195 l 516 244 l 1129 244 l 1129 195 l 434 195 m 272 98 l 355 146 l 1129 146 l 1129 98 l 272 98 m 589 830 l 508 781 l 54 781 l 54 830 l 589 830 m 749 928 l 667 879 l 54 879 l 54 928 l 749 928 m 911 1025 l 828 977 l 54 977 l 54 1025 l 911 1025 m 1129 1008 l 1129 951 l 54 229 l 54 286 l 1129 1008 m 1129 893 l 1129 836 l 54 113 l 54 172 l 1129 893 m 1129 779 l 1129 722 l 126 49 l 1129 49 l 1129 0 l 54 0 q 54 58 54 0 l 1129 779 m 1057 1074 l 54 1074 l 54 1123 l 1129 1123 q 1129 1065 1129 1123 l 54 344 l 54 400 l 1057 1074 z "},"[":{"ha":446,"x_min":64,"x_max":406,"o":"m 259 98 l 259 977 l 406 977 l 406 928 l 308 928 l 308 146 l 406 146 l 406 98 l 259 98 m 161 1074 l 406 1074 l 406 1025 l 210 1025 l 210 49 l 406 49 l 406 1 l 161 1 l 161 1074 m 64 1172 l 406 1172 l 406 1123 l 113 1123 l 113 -49 l 406 -49 l 406 -98 l 64 -98 l 64 1172 z "},"\\":{"ha":623,"x_min":29,"x_max":597,"o":"m 232 1122 l 283 1122 l 597 -132 l 546 -132 l 232 1122 m 130 1122 l 181 1122 l 495 -132 l 445 -132 l 130 1122 m 29 1122 l 79 1122 l 394 -132 l 344 -132 l 29 1122 z "},"]":{"ha":444,"x_min":40,"x_max":382,"o":"m 40 1172 l 382 1172 l 382 -98 l 40 -98 l 40 -49 l 333 -49 l 333 1123 l 40 1123 l 40 1172 m 40 1074 l 284 1074 l 284 1 l 40 1 l 40 49 l 235 49 l 235 1025 l 40 1025 l 40 1074 m 186 977 l 186 98 l 40 98 l 40 146 l 138 146 l 138 928 l 40 928 l 40 977 l 186 977 z "},"^":{"ha":660,"x_min":41,"x_max":620,"o":"m 94 440 l 41 440 l 252 977 l 305 977 l 515 440 l 463 440 l 278 911 l 94 440 m 620 440 l 568 440 l 357 977 l 410 977 l 620 440 m 199 440 l 146 440 l 285 795 l 313 732 l 199 440 z "},"_":{"ha":711,"x_min":62,"x_max":648,"o":"m 62 -49 l 62 0 l 648 0 l 648 -49 l 62 -49 m 62 -146 l 62 -98 l 648 -98 l 648 -146 l 62 -146 m 62 -244 l 62 -195 l 648 -195 l 648 -244 l 62 -244 z "},"`":{"ha":656,"x_min":40,"x_max":608,"o":"m 570 1059 l 608 1094 l 156 1315 l 118 1280 l 570 1059 m 492 988 l 531 1023 l 79 1244 l 40 1208 l 492 988 z "},"a":{"ha":1156,"x_min":37,"x_max":1098,"o":"m 756 481 q 703 616 756 568 q 561 663 649 663 q 433 612 486 663 q 379 488 379 560 q 390 415 379 448 q 419 362 401 383 q 464 327 438 340 q 518 307 490 313 q 578 300 546 300 q 719 338 655 300 l 719 290 q 577 255 653 255 q 485 268 528 255 q 407 308 442 281 q 351 381 372 335 q 330 488 330 428 q 396 647 330 582 q 561 712 462 712 q 738 651 670 712 q 805 481 805 589 l 805 0 l 756 0 l 756 481 m 903 481 l 903 0 l 854 0 l 854 481 q 772 685 854 610 q 561 761 690 761 q 361 682 441 761 q 281 488 281 602 q 306 364 281 419 q 371 276 330 309 q 464 225 412 243 q 572 208 515 208 q 719 244 649 208 l 719 193 q 571 162 646 162 q 444 183 504 162 q 336 243 383 203 q 260 346 288 283 q 233 488 233 410 q 327 716 233 622 q 561 810 422 810 q 736 770 659 810 q 858 655 813 730 q 903 481 903 580 m 1000 481 l 1000 0 l 951 0 l 951 481 q 900 680 951 593 q 760 812 849 766 q 561 859 671 859 q 369 809 456 859 q 233 674 282 759 q 184 488 184 589 q 216 330 184 401 q 301 212 248 258 q 424 141 355 166 q 568 115 493 115 q 719 147 645 115 l 719 98 q 567 68 642 68 q 351 121 450 68 q 194 271 253 174 q 135 488 135 368 q 168 651 135 574 q 257 785 201 728 q 393 874 313 841 q 561 907 472 907 q 785 854 685 907 q 943 704 885 802 q 1000 481 1000 606 m 1098 481 l 1098 0 l 1049 0 l 1049 481 q 985 729 1049 620 q 809 897 920 838 q 561 956 698 956 q 320 893 429 956 q 149 723 211 830 q 86 488 86 615 q 113 330 86 405 q 186 199 140 255 q 293 102 233 143 q 424 41 354 62 q 567 20 494 20 q 719 50 647 20 l 719 0 q 564 -26 644 -26 q 405 -3 482 -26 q 261 65 327 20 q 144 171 195 110 q 66 315 94 233 q 37 488 37 397 q 77 689 37 593 q 185 853 117 784 q 352 964 254 923 q 561 1005 450 1005 q 772 967 673 1005 q 943 862 871 929 q 1057 696 1015 794 q 1098 481 1098 597 z "},"b":{"ha":1001,"x_min":63,"x_max":952,"o":"m 828 494 l 827 494 q 903 676 903 569 q 828 853 903 778 q 649 928 752 928 l 112 928 l 112 0 l 63 0 l 63 977 l 649 977 q 799 936 729 977 q 911 825 869 895 q 952 676 952 755 q 894 490 952 568 q 952 312 952 409 q 910 148 952 219 q 800 41 868 77 q 649 5 732 5 l 340 5 l 340 54 l 649 54 q 828 129 753 54 q 903 312 903 203 q 882 411 903 362 q 827 493 860 460 q 828 494 827 494 m 649 250 l 340 250 l 340 201 l 649 201 q 725 231 694 201 q 757 312 757 261 q 724 390 757 356 q 649 423 692 423 l 340 423 l 340 374 l 649 374 q 690 355 672 374 q 708 312 708 336 q 691 266 708 282 q 649 250 674 250 m 649 152 l 340 152 l 340 103 l 649 103 q 794 163 733 103 q 854 312 854 223 q 824 418 854 368 q 745 495 794 468 q 824 569 794 521 q 854 676 854 616 q 793 818 854 758 q 649 879 732 879 l 161 879 l 161 0 l 210 0 l 210 830 l 649 830 q 759 784 711 830 q 806 676 806 737 q 760 565 806 608 q 649 521 713 521 l 500 521 l 340 521 l 340 472 l 500 472 l 649 472 q 759 424 711 472 q 806 312 806 376 q 760 197 806 241 q 649 152 713 152 m 649 618 l 340 618 l 340 570 l 649 570 q 726 598 694 570 q 757 676 757 627 q 724 749 757 718 q 649 781 692 781 l 258 781 l 258 0 l 307 0 l 307 732 l 649 732 q 690 715 672 732 q 708 676 708 698 q 691 633 708 648 q 649 618 674 618 z "},"c":{"ha":1023,"x_min":37,"x_max":994,"o":"m 766 640 l 726 610 q 574 684 667 684 q 436 626 494 684 q 379 488 379 569 q 436 350 379 408 q 574 293 494 293 q 660 313 620 293 q 727 367 699 332 l 765 335 q 681 268 731 292 q 574 244 631 244 q 402 316 473 244 q 330 488 330 387 q 402 661 330 589 q 574 732 473 732 q 682 708 631 732 q 766 640 732 683 m 842 701 l 803 671 q 702 752 762 723 q 574 781 642 781 q 367 695 453 781 q 281 488 281 609 q 367 281 281 368 q 574 195 453 195 q 703 225 642 195 q 804 306 763 254 l 841 275 q 724 181 793 215 q 574 146 654 146 q 403 192 481 146 q 278 317 324 238 q 233 488 233 395 q 278 660 233 581 q 403 784 324 739 q 574 830 481 830 q 724 796 654 830 q 842 701 794 762 m 918 762 l 880 732 q 745 840 825 800 q 574 879 665 879 q 423 848 495 879 q 298 765 351 817 q 215 640 245 712 q 184 488 184 568 q 215 337 184 409 q 298 212 245 264 q 423 129 351 159 q 574 98 495 98 q 745 137 665 98 q 880 245 825 176 l 917 213 q 766 93 855 136 q 574 49 676 49 q 404 84 485 49 q 263 177 322 119 q 170 317 205 236 q 135 488 135 399 q 170 659 135 578 q 263 799 205 741 q 404 893 322 858 q 574 928 485 928 q 767 884 677 928 q 918 762 857 840 m 994 823 l 955 794 q 787 928 886 879 q 574 977 688 977 q 385 938 475 977 q 229 834 294 899 q 125 678 163 768 q 86 488 86 587 q 125 299 86 389 q 229 143 163 208 q 385 39 294 77 q 574 0 475 0 q 787 49 688 0 q 955 182 886 98 l 994 153 q 809 5 918 59 q 574 -49 699 -49 q 366 -6 465 -49 q 195 109 267 37 q 80 280 123 180 q 37 488 37 379 q 80 697 37 597 q 195 868 123 796 q 366 983 267 940 q 574 1025 465 1025 q 809 971 699 1025 q 994 823 919 918 z "},"d":{"ha":1157,"x_min":63,"x_max":1111,"o":"m 356 293 l 356 684 q 627 684 356 684 q 756 627 702 684 q 810 490 810 570 q 756 350 810 407 q 627 293 703 293 l 356 293 m 405 342 l 627 342 q 721 385 682 342 q 760 490 760 427 q 721 592 760 549 q 627 635 682 635 l 405 635 l 405 342 m 307 244 l 627 244 q 791 316 723 244 q 860 490 860 387 q 791 661 860 590 q 627 732 722 732 l 307 732 l 307 244 m 258 195 l 258 781 l 627 781 q 826 695 743 781 q 910 490 910 610 q 827 281 910 367 q 627 195 743 195 l 258 195 m 210 146 l 627 146 q 793 192 716 146 q 915 317 869 237 q 960 490 960 396 q 915 660 960 581 q 792 784 869 739 q 627 830 715 830 l 210 830 l 210 146 m 161 98 l 161 879 l 627 879 q 818 827 729 879 q 958 685 906 774 q 1010 490 1010 595 q 958 293 1010 383 q 818 150 906 202 q 627 98 729 98 l 161 98 m 112 49 l 627 49 q 842 107 743 49 q 1001 268 942 166 q 1061 490 1061 370 q 1001 709 1061 608 q 842 869 942 810 q 627 928 742 928 l 112 928 l 112 49 m 627 0 l 63 0 l 63 977 l 627 977 q 867 911 755 977 q 1045 733 979 846 q 1111 490 1111 621 q 1072 299 1111 390 q 967 143 1033 208 q 812 39 902 77 q 627 0 723 0 z "},"e":{"ha":926,"x_min":63,"x_max":872,"o":"m 307 0 l 258 0 l 258 977 l 307 977 l 307 0 m 210 0 l 161 0 l 161 977 l 210 977 l 210 0 m 112 0 l 63 0 l 63 977 l 112 977 l 112 0 m 405 244 l 872 244 l 872 195 l 405 195 l 405 146 l 872 146 l 872 98 l 405 98 l 405 49 l 872 49 l 872 0 l 356 0 l 356 977 l 872 977 l 872 928 l 405 928 l 405 879 l 872 879 l 872 830 l 405 830 l 405 781 l 872 781 l 872 732 l 405 732 l 405 611 l 845 611 l 845 562 l 405 562 l 405 513 l 845 513 l 845 465 l 405 465 l 405 416 l 845 416 l 845 367 l 405 367 l 405 244 z "},"f":{"ha":869,"x_min":63,"x_max":822,"o":"m 405 0 l 356 0 l 356 977 l 822 977 l 822 928 l 405 928 l 405 879 l 822 879 l 822 830 l 405 830 l 405 781 l 822 781 l 822 732 l 405 732 l 405 583 l 789 583 l 789 534 l 405 534 l 405 486 l 789 486 l 789 437 l 405 437 l 405 388 l 789 388 l 789 339 l 405 339 l 405 0 m 307 0 l 258 0 l 258 977 l 307 977 l 307 0 m 210 0 l 161 0 l 161 977 l 210 977 l 210 0 m 112 0 l 63 0 l 63 977 l 112 977 l 112 0 z "},"g":{"ha":1149,"x_min":37,"x_max":1092,"o":"m 750 495 l 799 495 l 799 0 q 574 -49 690 -49 q 366 -6 465 -49 q 195 109 267 37 q 80 280 123 180 q 37 488 37 379 q 80 697 37 597 q 195 868 123 796 q 366 983 267 940 q 574 1025 465 1025 q 809 971 699 1025 q 994 823 919 918 l 955 794 q 787 928 886 879 q 574 977 688 977 q 385 938 475 977 q 229 834 294 899 q 125 678 163 768 q 86 488 86 587 q 125 299 86 389 q 229 143 163 208 q 385 39 294 77 q 574 0 475 0 q 750 33 666 0 l 750 83 q 574 49 665 49 q 404 84 485 49 q 263 177 322 119 q 170 317 205 236 q 135 488 135 399 q 170 659 135 578 q 263 799 205 741 q 404 893 322 858 q 574 928 485 928 q 767 884 677 928 q 918 762 857 840 l 880 732 q 745 840 825 800 q 574 879 665 879 q 423 848 495 879 q 298 765 351 817 q 215 640 245 712 q 184 488 184 568 q 215 337 184 409 q 298 212 245 264 q 423 129 351 159 q 574 98 495 98 q 750 136 668 98 l 750 186 q 574 146 668 146 q 403 192 481 146 q 278 317 324 238 q 233 488 233 395 q 278 660 233 581 q 403 784 324 739 q 574 830 481 830 q 724 796 654 830 q 842 701 794 762 l 803 671 q 702 752 762 723 q 574 781 642 781 q 367 695 453 781 q 281 488 281 609 q 367 281 281 368 q 574 195 453 195 q 750 241 669 195 l 750 291 q 574 244 671 244 q 402 316 473 244 q 330 488 330 387 q 402 661 330 589 q 574 732 473 732 q 682 708 631 732 q 766 640 732 683 l 726 610 q 574 684 667 684 q 436 626 494 684 q 379 488 379 569 q 436 350 379 408 q 574 293 494 293 q 750 351 678 293 l 750 495 m 1043 495 l 1092 495 l 1092 0 l 1043 0 l 1043 495 m 945 495 l 994 495 l 994 0 l 945 0 l 945 495 m 848 495 l 897 495 l 897 0 l 848 0 l 848 495 z "},"h":{"ha":1154,"x_min":63,"x_max":1089,"o":"m 1040 977 l 1089 977 l 1089 0 l 1040 0 l 1040 977 m 63 977 l 112 977 l 112 0 l 63 0 l 63 977 m 943 977 l 991 977 l 991 0 l 943 0 l 943 977 m 845 977 l 894 977 l 894 0 l 845 0 l 845 977 m 747 977 l 796 977 l 796 0 l 747 0 l 747 391 l 405 391 l 405 0 l 356 0 l 356 977 l 405 977 l 405 635 l 747 635 l 747 977 m 258 977 l 307 977 l 307 0 l 258 0 l 258 977 m 161 977 l 210 977 l 210 0 l 161 0 l 161 977 m 747 439 l 747 488 l 405 488 l 405 439 l 747 439 m 747 537 l 747 586 l 405 586 l 405 537 l 747 537 z "},"i":{"ha":469,"x_min":63,"x_max":405,"o":"m 356 977 l 405 977 l 405 0 l 356 0 l 356 977 m 258 977 l 307 977 l 307 0 l 258 0 l 258 977 m 161 977 l 210 977 l 210 0 l 161 0 l 161 977 m 63 977 l 112 977 l 112 0 l 63 0 l 63 977 z "},"j":{"ha":547,"x_min":32,"x_max":486,"o":"m 32 147 l 32 196 q 112 223 79 196 q 144 295 144 250 l 144 977 l 193 977 l 193 295 q 146 189 193 231 q 32 147 99 147 m 32 50 l 32 98 q 181 156 120 98 q 241 295 241 213 l 241 977 l 290 977 l 290 295 q 215 121 290 193 q 32 50 140 50 m 32 -48 l 32 1 q 250 87 161 1 q 339 295 339 173 l 339 977 l 388 977 l 388 295 q 341 123 388 202 q 212 -2 294 44 q 32 -48 130 -48 m 32 -146 l 32 -97 q 190 -66 115 -97 q 319 18 265 -35 q 405 143 373 71 q 437 295 437 216 l 437 977 l 486 977 l 486 295 q 450 124 486 205 q 354 -17 414 43 q 209 -111 293 -76 q 32 -146 125 -146 z "},"k":{"ha":1114,"x_min":63,"x_max":1089,"o":"m 1089 977 l 1035 977 l 763 484 l 1031 0 l 1085 0 l 817 484 l 1089 977 m 980 977 l 926 977 l 654 484 l 922 0 l 976 0 l 708 484 l 980 977 m 871 977 l 817 977 l 545 484 l 812 0 l 867 0 l 599 484 l 871 977 m 762 977 l 707 977 l 435 484 l 703 0 l 758 0 l 489 484 l 762 977 m 356 977 l 405 977 l 405 0 l 356 0 l 356 977 m 258 977 l 307 977 l 307 0 l 258 0 l 258 977 m 161 977 l 210 977 l 210 0 l 161 0 l 161 977 m 63 977 l 112 977 l 112 0 l 63 0 l 63 977 z "},"l":{"ha":810,"x_min":63,"x_max":765,"o":"m 63 977 l 112 977 l 112 0 l 63 0 l 63 977 m 356 977 l 405 977 l 405 244 l 765 244 l 765 195 l 405 195 l 405 146 l 765 146 l 765 98 l 405 98 l 405 49 l 765 49 l 765 0 l 356 0 l 356 977 m 258 977 l 307 977 l 307 0 l 258 0 l 258 977 m 161 977 l 210 977 l 210 0 l 161 0 l 161 977 z "},"m":{"ha":1622,"x_min":55,"x_max":1563,"o":"m 687 610 l 687 0 l 638 0 l 638 610 q 632 644 638 630 q 615 665 625 658 q 588 677 605 673 q 556 683 572 682 q 517 684 541 684 q 479 683 494 684 q 447 677 463 682 q 420 665 430 673 q 403 644 410 658 q 397 610 397 630 l 397 0 l 348 0 l 348 610 q 517 732 348 732 q 687 610 687 732 m 785 610 l 785 0 l 736 0 l 736 610 q 675 739 736 696 q 517 781 614 781 q 360 739 420 781 q 299 610 299 696 l 299 0 l 250 0 l 250 610 q 287 732 250 682 q 383 807 323 783 q 517 830 442 830 q 652 807 593 830 q 748 732 711 783 q 785 610 785 682 m 882 610 l 882 0 l 833 0 l 833 610 q 809 726 833 674 q 741 810 784 777 q 640 861 697 844 q 517 879 583 879 q 395 861 452 879 q 294 810 338 844 q 226 726 251 777 q 201 610 201 674 l 201 0 l 153 0 l 153 610 q 181 745 153 684 q 260 845 210 805 q 376 906 309 884 q 517 928 442 928 q 659 906 593 928 q 775 845 726 884 q 853 745 825 805 q 882 610 882 684 m 980 0 l 931 0 l 931 610 q 898 752 931 684 q 810 869 865 820 q 677 947 754 918 q 517 977 601 977 q 310 933 403 977 q 160 806 216 890 q 104 610 104 722 l 104 0 l 55 0 l 55 610 q 92 783 55 704 q 191 914 128 861 q 338 996 254 967 q 517 1025 422 1025 q 809 941 686 1025 q 1101 1025 932 1025 q 1280 996 1196 1025 q 1427 914 1364 967 q 1527 783 1490 861 q 1563 610 1563 704 l 1563 0 l 1514 0 l 1514 610 q 1458 805 1514 721 q 1309 933 1402 890 q 1101 977 1215 977 q 850 909 957 977 q 884 873 865 895 q 1101 928 977 928 q 1242 906 1176 928 q 1358 845 1309 884 q 1437 745 1408 805 q 1466 610 1466 684 l 1466 0 l 1417 0 l 1417 610 q 1392 726 1417 674 q 1324 810 1367 777 q 1223 861 1280 844 q 1101 879 1166 879 q 914 835 993 879 q 939 793 926 816 q 1101 830 1005 830 q 1235 807 1176 830 q 1331 732 1295 783 q 1368 610 1368 682 l 1368 0 l 1319 0 l 1319 610 q 1258 739 1319 696 q 1101 781 1198 781 q 958 749 1013 781 q 971 700 966 723 q 1101 732 1014 732 q 1270 610 1270 732 l 1270 0 l 1221 0 l 1221 610 q 1215 644 1221 630 q 1198 665 1208 658 q 1172 677 1188 673 q 1139 683 1155 682 q 1101 684 1124 684 q 1062 683 1078 684 q 1030 677 1046 682 q 1003 665 1013 673 q 986 644 993 658 q 980 610 980 630 l 980 0 z "},"n":{"ha":1093,"x_min":63,"x_max":1029,"o":"m 833 394 l 785 483 l 785 977 l 833 977 l 833 394 m 931 225 l 882 308 l 882 977 l 931 977 l 931 225 m 258 583 l 307 494 l 307 0 l 258 0 l 258 583 m 161 758 l 210 669 l 210 0 l 161 0 l 161 758 m 178 977 l 235 977 l 800 0 l 743 0 l 178 977 m 293 977 l 351 977 l 916 0 l 857 0 l 293 977 m 408 977 l 465 977 l 980 85 l 980 977 l 1029 977 l 1029 0 l 971 0 l 408 977 m 112 892 l 112 0 l 63 0 l 63 977 l 121 977 l 685 0 l 629 0 l 112 892 z "},"o":{"ha":1158,"x_min":37,"x_max":1112,"o":"m 436 626 q 408 598 436 626 q 379 488 379 569 q 436 350 379 408 q 574 293 494 293 q 712 350 655 293 q 770 488 770 408 q 712 626 770 569 q 574 684 655 684 q 436 626 494 684 m 402 316 q 366 351 402 316 q 330 488 330 387 q 402 661 330 589 q 574 732 473 732 q 747 661 675 732 q 819 488 819 589 q 747 316 819 387 q 574 244 675 244 q 402 316 473 244 m 367 695 q 324 652 367 695 q 281 488 281 609 q 367 281 281 368 q 574 195 453 195 q 782 281 696 195 q 867 488 867 368 q 782 695 867 609 q 574 781 696 781 q 367 695 453 781 m 278 317 q 255 356 278 317 q 233 488 233 395 q 278 660 233 581 q 403 784 324 739 q 574 830 481 830 q 746 784 667 830 q 870 660 825 739 q 916 488 916 581 q 870 317 916 395 q 746 192 825 238 q 574 146 667 146 q 403 192 481 146 q 278 317 324 238 m 215 640 q 199 604 215 640 q 184 488 184 568 q 215 337 184 409 q 298 212 245 264 q 423 129 351 159 q 574 98 495 98 q 726 129 654 98 q 851 212 798 159 q 934 337 903 264 q 965 488 965 409 q 934 640 965 568 q 851 765 903 712 q 726 848 798 817 q 574 879 654 879 q 423 848 495 879 q 298 765 351 817 q 215 640 245 712 m 170 317 q 152 358 170 317 q 135 488 135 399 q 170 659 135 578 q 263 799 205 741 q 404 893 322 858 q 574 928 485 928 q 745 893 664 928 q 885 799 827 858 q 979 659 944 741 q 1014 488 1014 578 q 979 317 1014 399 q 885 177 944 236 q 745 84 827 119 q 574 49 664 49 q 404 84 485 49 q 263 177 322 119 q 170 317 205 236 m 125 678 q 105 633 125 678 q 86 488 86 587 q 125 299 86 389 q 229 143 163 208 q 385 39 294 77 q 574 0 475 0 q 764 39 673 0 q 920 143 854 77 q 1024 299 985 208 q 1063 488 1063 389 q 1024 678 1063 587 q 920 834 985 768 q 764 938 854 899 q 574 977 673 977 q 385 938 475 977 q 229 834 294 899 q 125 678 163 768 m 80 280 q 59 329 80 280 q 37 488 37 379 q 80 697 37 597 q 195 868 123 796 q 366 983 267 940 q 574 1025 465 1025 q 783 983 684 1025 q 954 868 882 940 q 1069 697 1026 796 q 1112 488 1112 597 q 1069 280 1112 379 q 954 109 1026 180 q 783 -6 882 37 q 574 -49 684 -49 q 366 -6 465 -49 q 195 109 267 37 q 80 280 123 180 z "},"p":{"ha":1086,"x_min":63,"x_max":1040,"o":"m 442 460 l 649 460 q 753 496 710 460 q 795 600 795 533 q 751 692 795 651 q 649 732 706 732 l 307 732 l 307 0 l 258 0 l 258 781 l 649 781 q 786 726 727 781 q 844 600 844 671 q 787 462 844 513 q 649 411 730 411 l 442 411 l 442 460 m 442 362 l 649 362 q 821 429 749 362 q 893 600 893 495 q 820 761 893 691 q 649 830 747 830 l 210 830 l 210 0 l 161 0 l 161 879 l 649 879 q 854 795 767 879 q 942 600 942 711 q 856 395 942 477 q 649 313 769 313 l 442 313 l 442 362 m 442 264 l 649 264 q 819 308 741 264 q 944 429 897 351 q 991 600 991 506 q 944 762 991 686 q 819 883 898 838 q 649 928 740 928 l 112 928 l 112 0 l 63 0 l 63 977 l 649 977 q 799 946 726 977 q 924 864 871 916 q 1008 744 977 813 q 1040 600 1040 674 q 1008 439 1040 512 q 924 317 977 366 q 799 242 870 269 q 649 216 728 216 l 442 216 l 442 264 m 405 0 l 356 0 l 356 684 l 649 684 q 718 659 689 684 q 747 600 747 634 q 649 509 747 509 l 442 509 l 442 557 l 649 557 q 698 600 698 557 q 684 625 698 614 q 649 635 669 635 l 405 635 l 405 0 z "},"q":{"ha":1095,"x_min":37,"x_max":1030,"o":"m 475 331 l 661 331 l 661 282 l 475 282 q 303 352 374 282 q 233 541 233 422 q 307 707 233 633 q 475 781 380 781 l 835 781 l 835 -146 l 786 -146 l 786 732 l 475 732 q 341 673 401 732 q 281 541 281 613 q 337 385 281 438 q 475 331 393 331 m 475 233 l 661 233 l 661 184 l 475 184 q 346 211 408 184 q 237 283 284 237 q 163 397 191 330 q 135 541 135 464 q 163 668 135 606 q 237 776 191 730 q 346 851 283 823 q 475 879 409 879 l 932 879 l 932 -146 l 884 -146 l 884 830 l 475 830 q 332 789 400 830 q 224 681 264 748 q 184 541 184 614 q 208 414 184 472 q 272 316 232 355 q 365 255 312 277 q 475 233 418 233 m 475 136 l 661 136 l 661 87 l 475 87 q 340 106 405 87 q 220 165 275 126 q 124 257 165 203 q 60 384 83 311 q 37 541 37 457 q 73 705 37 625 q 168 845 109 785 q 308 941 227 905 q 475 977 389 977 l 1030 977 l 1030 -146 l 981 -146 l 981 928 l 475 928 q 283 873 373 928 q 139 730 193 819 q 86 541 86 640 q 118 378 86 454 q 202 249 149 302 q 327 166 256 197 q 475 136 398 136 m 737 -146 l 688 -146 l 688 635 l 475 635 q 407 607 434 635 q 379 541 379 580 q 404 452 379 476 q 475 429 429 429 l 661 429 l 661 380 l 475 380 q 330 541 330 380 q 374 640 330 596 q 475 684 418 684 l 737 684 l 737 -146 z "},"r":{"ha":1155,"x_min":63,"x_max":1110,"o":"m 432 467 l 726 467 q 825 503 785 467 q 866 606 866 540 q 824 694 866 655 q 726 732 781 732 l 307 732 l 307 0 l 258 0 l 258 781 l 726 781 q 858 728 802 781 q 915 606 915 675 q 860 469 915 520 q 726 418 805 418 l 432 418 l 432 467 m 432 369 l 726 369 q 894 435 824 369 q 964 606 964 502 q 892 763 964 695 q 726 830 821 830 l 210 830 l 210 0 l 161 0 l 161 879 l 726 879 q 927 797 842 879 q 1013 606 1013 715 q 928 402 1013 484 q 726 320 844 320 l 432 320 l 432 369 m 432 271 l 726 271 q 893 315 817 271 q 1016 435 970 358 q 1061 606 1061 513 q 1016 765 1061 691 q 893 884 970 840 q 726 928 815 928 l 112 928 l 112 0 l 63 0 l 63 977 l 726 977 q 874 946 803 977 q 996 866 945 916 q 1079 748 1048 817 q 1110 606 1110 680 q 1056 399 1110 488 q 910 264 1002 311 l 1013 0 l 960 0 l 863 245 q 821 233 845 239 l 912 0 l 860 0 l 770 224 q 726 222 749 222 l 812 0 l 761 0 l 675 222 l 631 222 l 713 0 l 662 0 l 579 222 l 432 222 l 432 271 m 405 0 l 356 0 l 356 684 l 726 684 q 791 661 764 684 q 817 606 817 638 q 726 515 817 515 l 432 515 l 432 564 l 726 564 q 768 606 768 564 q 756 626 768 618 q 726 635 743 635 l 405 635 l 405 0 z "},"s":{"ha":949,"x_min":30,"x_max":917,"o":"m 512 465 l 435 465 q 216 523 292 465 q 139 682 139 581 q 229 841 139 777 q 482 904 319 904 q 685 874 591 904 q 841 790 779 844 l 803 760 q 663 830 747 805 q 482 855 579 855 q 263 806 339 855 q 188 682 188 758 q 250 557 188 601 q 435 513 312 513 l 509 513 q 731 455 654 513 q 808 296 808 397 q 718 137 808 201 q 465 74 627 74 q 262 104 356 74 q 106 188 168 134 l 144 218 q 283 148 199 173 q 465 123 368 123 q 683 172 608 123 q 759 296 759 220 q 697 421 759 377 q 512 465 635 465 m 512 367 l 435 367 q 144 453 246 367 q 41 682 41 538 q 71 806 41 748 q 154 907 100 863 q 294 976 209 951 q 482 1002 378 1002 q 727 962 613 1002 q 917 851 841 922 l 878 822 q 705 919 808 884 q 482 953 601 953 q 195 876 299 953 q 90 682 90 798 q 180 488 90 559 q 435 416 269 416 l 509 416 q 710 296 710 416 q 649 207 710 241 q 465 172 587 172 q 304 192 378 172 q 182 249 231 212 l 221 279 q 465 220 306 220 q 614 241 566 220 q 661 296 661 262 q 628 351 661 334 q 512 367 595 367 m 512 562 l 435 562 q 237 682 237 562 q 298 771 237 736 q 482 806 359 806 q 642 786 568 806 q 764 729 716 766 l 726 699 q 482 758 641 758 q 333 736 380 758 q 286 682 286 715 q 319 627 286 644 q 435 611 352 611 l 512 611 q 803 525 701 611 q 905 296 905 439 q 876 172 905 230 q 792 71 847 115 q 653 2 738 27 q 465 -24 568 -24 q 220 16 334 -24 q 30 127 106 56 l 69 156 q 242 59 138 94 q 465 25 346 25 q 752 102 648 25 q 857 296 857 180 q 767 490 857 418 q 512 562 677 562 z "},"t":{"ha":817,"x_min":41,"x_max":773,"o":"m 236 706 l 285 706 l 285 0 l 236 0 l 236 706 m 41 928 l 41 977 l 773 977 l 773 928 l 41 928 m 41 830 l 41 879 l 773 879 l 773 830 l 41 830 m 41 732 l 41 781 l 773 781 l 773 732 l 41 732 m 529 706 l 578 706 l 578 0 l 529 0 l 529 706 m 431 706 l 480 706 l 480 0 l 431 0 l 431 706 m 334 706 l 382 706 l 382 0 l 334 0 l 334 706 z "},"u":{"ha":1105,"x_min":56,"x_max":1046,"o":"m 704 433 l 704 977 l 753 977 l 753 433 q 693 300 753 355 q 551 244 634 244 q 408 300 467 244 q 349 433 349 355 l 349 977 l 397 977 l 397 433 q 443 334 397 375 q 551 293 488 293 q 659 334 614 293 q 704 433 704 375 m 802 433 l 802 977 l 850 977 l 850 433 q 762 230 850 314 q 551 146 674 146 q 339 230 427 146 q 251 433 251 314 l 251 977 l 300 977 l 300 433 q 373 265 300 334 q 551 195 447 195 q 728 265 654 195 q 802 433 802 334 m 899 433 l 899 977 l 948 977 l 948 433 q 895 240 948 329 q 749 100 841 152 q 551 49 658 49 q 352 100 444 49 q 207 240 260 152 q 153 433 153 329 l 153 977 l 202 977 l 202 433 q 249 265 202 342 q 376 143 296 188 q 551 98 456 98 q 725 143 645 98 q 852 265 806 188 q 899 433 899 342 m 997 433 l 997 977 l 1046 977 l 1046 433 q 1006 246 1046 335 q 901 92 967 157 q 743 -11 834 28 q 551 -49 651 -49 q 359 -11 450 -49 q 201 92 267 28 q 95 246 134 157 q 56 433 56 335 l 56 977 l 104 977 l 104 433 q 164 216 104 316 q 327 58 224 117 q 551 0 430 0 q 774 58 671 0 q 937 216 877 117 q 997 433 997 316 z "},"v":{"ha":1188,"x_min":24,"x_max":1165,"o":"m 24 977 l 77 977 l 437 66 l 798 977 l 850 977 l 464 0 l 411 0 l 24 977 m 130 977 l 182 977 l 471 244 l 444 182 l 130 977 m 235 977 l 288 977 l 524 378 l 498 311 l 235 977 m 340 977 l 392 977 l 575 513 l 549 445 l 340 977 m 1112 977 l 1165 977 l 779 0 l 726 0 l 1112 977 m 1008 977 l 1060 977 l 673 0 l 621 0 l 1008 977 m 902 977 l 955 977 l 568 0 l 516 0 l 902 977 z "},"w":{"ha":1569,"x_min":56,"x_max":1510,"o":"m 1026 314 q 1033 314 1026 314 q 1061 313 1040 313 q 1095 314 1081 313 q 1124 320 1109 315 q 1147 332 1139 324 q 1162 353 1156 339 q 1168 387 1168 367 l 1168 977 l 1217 977 l 1217 387 q 1061 264 1217 264 q 944 294 982 264 q 931 248 939 268 q 1061 216 983 216 q 1208 258 1152 216 q 1265 387 1265 300 l 1265 977 l 1314 977 l 1314 387 q 1243 223 1314 280 q 1061 167 1171 167 q 913 202 975 167 q 889 161 903 180 q 1061 118 963 118 q 1178 136 1124 118 q 1274 186 1233 153 q 1339 271 1316 220 q 1363 387 1363 323 l 1363 977 l 1412 977 l 1412 387 q 1364 216 1412 289 q 1237 106 1316 142 q 1061 69 1158 69 q 860 121 947 69 q 825 86 841 100 q 1061 20 926 20 q 1261 64 1171 20 q 1406 192 1352 107 q 1461 387 1461 276 l 1461 977 l 1510 977 l 1510 387 q 1474 214 1510 293 q 1378 83 1438 136 q 1235 1 1317 30 q 1061 -28 1153 -28 q 785 54 899 -28 q 505 -28 666 -28 q 330 1 412 -28 q 188 83 248 30 q 91 214 127 136 q 56 387 56 293 l 56 977 l 104 977 l 104 387 q 136 233 104 303 q 222 117 168 163 q 349 46 276 71 q 505 20 422 20 q 705 70 612 20 q 851 203 797 119 q 905 387 905 288 l 905 977 l 954 977 l 954 387 q 959 353 954 367 q 974 332 965 339 q 998 320 983 324 q 1026 314 1013 315 m 661 977 l 661 387 q 505 264 661 264 q 349 387 349 264 l 349 977 l 397 977 l 397 387 q 403 353 397 367 q 418 332 409 339 q 441 320 427 324 q 470 314 456 315 q 505 313 484 313 q 539 314 525 313 q 568 320 553 315 q 591 332 583 324 q 606 353 600 339 q 612 387 612 367 l 612 977 l 661 977 m 758 977 l 758 387 q 687 223 758 280 q 505 167 615 167 q 322 223 394 167 q 251 387 251 280 l 251 977 l 300 977 l 300 387 q 357 258 300 300 q 505 216 414 216 q 652 258 595 216 q 709 387 709 300 l 709 977 l 758 977 m 856 977 l 856 387 q 808 216 856 289 q 681 106 760 142 q 505 69 602 69 q 328 106 407 69 q 201 216 249 142 q 153 387 153 289 l 153 977 l 202 977 l 202 387 q 226 271 202 323 q 291 186 250 220 q 387 136 332 153 q 505 118 441 118 q 622 136 568 118 q 718 186 677 153 q 783 271 760 220 q 807 387 807 323 l 807 977 l 856 977 z "},"x":{"ha":1097,"x_min":26,"x_max":1071,"o":"m 1011 977 l 1071 977 l 448 0 l 387 0 l 1011 977 m 890 977 l 950 977 l 327 0 l 267 0 l 890 977 m 770 977 l 830 977 l 207 0 l 146 0 l 770 977 m 649 977 l 710 977 l 86 0 l 26 0 l 649 977 m 351 562 l 321 515 l 26 977 l 86 977 l 351 562 m 564 134 l 594 181 l 710 0 l 649 0 l 564 134 m 411 656 l 381 610 l 147 977 l 207 977 l 411 656 m 625 229 l 654 275 l 830 0 l 770 0 l 625 229 m 471 751 l 441 704 l 267 977 l 328 977 l 471 751 m 684 323 l 715 370 l 951 0 l 890 0 l 684 323 m 532 846 l 501 798 l 387 977 l 448 977 l 532 846 m 745 417 l 775 464 l 1071 0 l 1011 0 l 745 417 z "},"y":{"ha":1019,"x_min":22,"x_max":998,"o":"m 949 977 l 998 977 l 691 330 l 691 0 l 642 0 l 642 330 l 949 977 m 852 977 l 901 977 l 593 330 l 593 0 l 545 0 l 545 330 l 852 977 m 754 977 l 803 977 l 496 330 l 496 0 l 447 0 l 447 330 l 754 977 m 656 977 l 705 977 l 398 330 l 398 0 l 349 0 l 349 330 l 22 977 l 71 977 l 373 379 l 656 977 m 120 977 l 169 977 l 411 516 l 387 463 l 120 977 m 218 977 l 267 977 l 460 623 l 435 570 l 218 977 m 317 977 l 366 977 l 509 730 l 484 676 l 317 977 z "},"z":{"ha":993,"x_min":39,"x_max":947,"o":"m 941 244 l 941 195 l 562 195 l 593 244 l 941 244 m 941 146 l 941 98 l 502 98 l 532 146 l 941 146 m 941 49 l 941 0 l 448 0 l 477 49 l 941 49 m 56 732 l 56 781 l 436 781 l 406 732 l 56 732 m 56 829 l 56 878 l 493 878 l 462 829 l 56 829 m 56 927 l 56 976 l 548 976 l 515 927 l 56 927 m 400 0 l 340 0 l 947 976 l 947 893 l 400 0 m 279 0 l 220 0 l 829 976 l 888 976 l 279 0 m 159 0 l 99 0 l 707 976 l 767 976 l 159 0 m 39 0 l 39 99 l 587 976 l 647 976 l 39 0 z "},"{":{"ha":551,"x_min":39,"x_max":514,"o":"m 367 239 l 367 33 q 385 -27 367 -5 q 431 -49 404 -49 l 514 -49 l 514 -98 l 433 -98 q 351 -63 385 -98 q 318 33 318 -28 l 318 239 q 299 344 318 296 q 250 422 281 391 q 178 469 218 452 q 93 486 138 486 l 39 486 l 39 534 l 92 534 q 195 514 146 534 q 283 456 245 494 q 344 362 321 419 q 367 239 367 306 m 269 239 l 269 33 q 317 -99 269 -52 q 433 -146 364 -146 l 514 -146 l 514 -195 l 435 -195 q 283 -134 346 -195 q 220 33 220 -72 l 220 239 q 185 349 220 311 q 95 388 150 388 l 39 388 l 39 437 l 93 437 q 218 384 166 437 q 269 239 269 331 m 172 239 l 172 33 q 248 -168 172 -92 q 433 -244 325 -244 l 514 -244 l 514 -293 l 433 -293 q 280 -254 351 -293 q 166 -140 210 -216 q 123 33 123 -65 l 123 239 q 114 280 123 269 q 89 290 105 290 l 39 290 l 39 339 l 91 339 q 149 314 125 339 q 172 239 172 289 m 338 447 l 300 483 q 318 586 318 528 l 318 847 q 351 943 318 908 q 433 977 385 977 l 514 977 l 514 928 l 431 928 q 385 907 404 928 q 367 847 367 885 l 367 586 q 338 447 367 511 m 259 515 l 214 538 q 220 586 220 574 l 220 847 q 283 1013 220 951 q 435 1075 346 1075 l 514 1075 l 514 1026 l 433 1026 q 317 979 364 1026 q 269 847 269 931 l 269 586 q 259 515 269 552 m 169 554 l 120 559 q 123 586 123 573 l 123 847 q 166 1020 123 945 q 280 1134 210 1095 q 433 1173 351 1173 l 514 1173 l 514 1124 l 433 1124 q 248 1048 325 1124 q 172 847 172 972 l 172 586 q 169 554 172 567 z "},"|":{"ha":370,"x_min":64,"x_max":308,"o":"m 259 1123 l 308 1123 l 308 -146 l 259 -146 l 259 1123 m 161 1123 l 210 1123 l 210 -146 l 161 -146 l 161 1123 m 64 1123 l 113 1123 l 113 -146 l 64 -146 l 64 1123 z "},"}":{"ha":551,"x_min":38,"x_max":513,"o":"m 383 326 l 432 320 q 429 294 429 307 l 429 33 q 386 -140 429 -65 q 272 -254 342 -216 q 119 -293 201 -293 l 38 -293 l 38 -244 l 119 -244 q 304 -168 227 -244 q 380 33 380 -92 l 380 294 q 383 326 380 313 m 293 364 l 338 341 q 332 294 332 305 l 332 33 q 269 -134 332 -72 q 117 -195 206 -195 l 38 -195 l 38 -146 l 119 -146 q 235 -99 188 -146 q 283 33 283 -52 l 283 294 q 293 364 283 328 m 214 433 l 252 397 q 234 294 234 351 l 234 33 q 201 -63 234 -28 q 119 -98 168 -98 l 38 -98 l 38 -49 l 121 -49 q 167 -27 149 -49 q 185 33 185 -5 l 185 294 q 214 433 185 369 m 380 641 l 380 847 q 304 1048 380 972 q 119 1124 227 1124 l 38 1124 l 38 1173 l 119 1173 q 272 1134 201 1173 q 386 1020 342 1095 q 429 847 429 945 l 429 641 q 438 600 429 610 q 463 589 447 589 l 513 589 l 513 541 l 461 541 q 404 566 427 541 q 380 641 380 591 m 283 641 l 283 847 q 235 979 283 931 q 119 1026 188 1026 l 38 1026 l 38 1075 l 117 1075 q 269 1013 206 1075 q 332 847 332 951 l 332 641 q 367 530 332 569 q 457 492 402 492 l 513 492 l 513 443 l 459 443 q 334 496 386 443 q 283 641 283 549 m 185 641 l 185 847 q 167 907 185 885 q 121 928 149 928 l 38 928 l 38 977 l 119 977 q 201 943 168 977 q 234 847 234 908 l 234 641 q 253 536 234 583 q 302 458 271 488 q 374 411 334 427 q 459 394 414 394 l 513 394 l 513 345 l 460 345 q 357 366 406 345 q 269 423 307 386 q 208 517 231 460 q 185 641 185 574 z "},"~":{"ha":924,"x_min":50,"x_max":879,"o":"m 732 1025 l 781 1025 q 775 971 781 995 q 761 932 770 947 q 739 906 753 917 q 713 890 724 896 q 685 882 702 885 q 659 879 667 880 q 635 879 650 879 l 294 879 q 264 878 274 879 q 239 872 254 878 q 216 858 223 867 q 202 829 208 848 q 196 781 196 810 l 147 781 q 153 836 147 812 q 167 874 159 859 q 190 900 176 890 q 215 916 204 911 q 244 924 227 922 q 270 927 261 927 q 294 928 279 928 l 635 928 q 664 928 654 928 q 690 934 674 929 q 713 949 705 939 q 726 978 720 958 q 732 1025 732 997 m 830 1025 l 879 1025 q 873 953 879 986 q 860 897 868 920 q 837 854 852 873 q 810 824 823 836 q 777 803 797 812 q 742 791 756 795 q 705 784 728 787 q 669 782 682 782 q 635 781 656 781 l 294 781 l 294 830 l 635 830 q 668 830 656 830 q 699 832 679 831 q 729 838 718 834 q 756 848 740 841 q 781 864 772 854 q 801 888 790 873 q 817 922 812 903 q 826 967 823 941 q 830 1025 830 994 m 294 1025 l 635 1025 l 635 977 l 294 977 q 261 976 272 977 q 230 974 250 976 q 199 969 210 972 q 173 959 189 966 q 148 943 157 952 q 127 918 138 933 q 111 884 117 903 q 102 839 106 865 q 98 781 98 813 l 50 781 q 55 853 50 821 q 68 910 60 886 q 91 952 77 934 q 119 983 106 971 q 152 1003 132 995 q 186 1016 172 1012 q 224 1022 201 1020 q 259 1025 247 1025 q 294 1025 272 1025 z "},"":{"ha":151,"x_min":0,"x_max":0,"o":""},"":{"ha":467,"x_min":64,"x_max":406,"o":"m 64 146 l 64 195 l 406 195 l 406 146 l 64 146 m 64 49 l 64 98 l 406 98 l 406 49 l 64 49 m 64 -49 l 64 0 l 406 0 l 406 -49 l 64 -49 m 357 1123 l 406 1123 l 406 293 l 357 293 l 357 1123 m 259 1123 l 308 1123 l 308 293 l 259 293 l 259 1123 m 161 1123 l 210 1123 l 210 293 l 161 293 l 161 1123 m 64 1123 l 113 1123 l 113 293 l 64 293 l 64 1123 z "},"":{"ha":984,"x_min":40,"x_max":956,"o":"m 688 659 l 728 689 q 644 756 694 732 q 536 781 593 781 q 393 722 452 781 q 333 578 333 662 q 393 429 333 490 q 536 368 452 368 q 643 392 593 368 q 727 458 693 416 l 689 490 q 622 436 661 456 q 536 416 582 416 q 427 464 473 416 q 382 578 382 511 q 427 687 382 642 q 536 732 473 732 q 688 659 629 732 m 765 720 l 804 750 q 686 845 756 810 q 536 879 616 879 q 324 790 412 879 q 235 578 235 702 q 324 360 235 450 q 536 270 412 270 q 686 304 616 270 q 803 398 755 338 l 766 429 q 665 348 725 378 q 536 319 604 319 q 358 395 433 319 q 284 578 284 471 q 358 756 284 682 q 536 830 432 830 q 664 801 604 830 q 765 720 724 772 m 842 781 l 880 811 q 729 932 819 888 q 536 977 639 977 q 382 945 456 977 q 255 860 308 913 q 170 732 201 806 q 138 578 138 659 q 170 420 138 496 q 255 291 201 345 q 382 204 308 237 q 536 172 456 172 q 728 216 638 172 q 879 336 817 260 l 842 368 q 707 260 787 300 q 536 221 627 221 q 400 250 465 221 q 289 326 336 278 q 214 440 242 374 q 186 578 186 506 q 214 714 186 649 q 289 825 242 779 q 400 900 336 872 q 536 928 465 928 q 707 888 627 928 q 842 781 787 849 m 917 843 l 956 872 q 771 1020 881 966 q 536 1074 661 1074 q 344 1035 436 1074 q 185 929 252 996 q 79 770 119 862 q 40 578 40 678 q 79 383 40 476 q 185 222 119 290 q 344 115 252 155 q 536 75 436 75 q 771 129 661 75 q 956 276 880 182 l 917 306 q 749 172 848 221 q 536 123 650 123 q 363 159 446 123 q 220 256 280 195 q 124 401 160 317 q 89 578 89 486 q 124 751 89 669 q 220 894 160 834 q 363 990 280 954 q 536 1025 446 1025 q 749 977 650 1025 q 917 843 848 928 m 585 55 l 634 60 l 634 -119 l 585 -119 l 585 55 m 634 1088 l 585 1095 l 585 1248 l 634 1248 l 634 1088 m 439 63 l 488 54 l 488 -119 l 439 -119 l 439 63 m 488 1093 l 439 1085 l 439 1248 l 488 1248 l 488 1093 z "},"":{"ha":958,"x_min":56,"x_max":932,"o":"m 426 610 l 426 659 l 789 659 l 789 610 l 426 610 m 426 512 l 426 561 l 789 561 l 789 512 l 426 512 m 425 414 l 425 463 l 789 463 l 789 414 l 425 414 m 300 781 l 300 0 l 252 0 l 252 781 q 313 922 252 868 q 497 977 374 977 q 657 957 583 977 q 779 899 731 937 l 741 869 q 497 928 656 928 q 348 887 395 928 q 300 781 300 847 m 203 781 l 203 0 l 154 0 l 154 781 q 244 991 154 908 q 497 1074 334 1074 q 700 1044 606 1074 q 856 960 793 1015 l 818 930 q 678 1000 762 975 q 497 1025 594 1025 q 278 957 354 1025 q 203 781 203 888 m 105 781 l 105 0 l 56 0 l 56 781 q 75 905 56 846 q 130 1012 93 963 q 219 1096 167 1061 q 342 1152 271 1132 q 497 1172 414 1172 q 742 1132 628 1172 q 932 1021 856 1093 l 892 992 q 720 1089 823 1055 q 497 1123 616 1123 q 329 1096 404 1123 q 206 1023 254 1069 q 131 914 157 976 q 105 781 105 852 m 349 0 l 349 781 q 497 879 349 879 q 703 838 634 879 l 664 808 q 497 830 616 830 q 418 817 439 830 q 398 781 398 804 l 398 244 l 789 244 l 789 195 l 398 195 l 398 146 l 789 146 l 789 98 l 398 98 l 398 49 l 789 49 l 789 0 l 349 0 z "},"":{"ha":994,"x_min":32,"x_max":962,"o":"m 204 770 l 173 730 l 32 909 l 72 938 l 204 770 m 637 136 l 681 159 l 804 2 l 765 -27 l 637 136 m 277 833 l 238 805 l 111 967 l 150 996 l 277 833 m 723 184 l 761 215 l 883 60 l 844 31 l 723 184 m 368 876 l 319 860 l 190 1025 l 229 1053 l 368 876 m 795 250 l 826 291 l 962 117 l 922 89 l 795 250 m 336 673 q 308 642 336 673 q 279 509 279 612 q 336 345 279 406 q 497 283 394 283 q 658 345 600 283 q 715 509 715 406 q 658 673 715 612 q 497 734 600 734 q 336 673 394 734 m 302 310 q 266 348 302 310 q 230 509 230 386 q 302 707 230 631 q 497 783 374 783 q 692 707 620 783 q 764 509 764 631 q 692 310 764 386 q 497 235 620 235 q 302 310 374 235 m 268 742 q 224 697 268 742 q 181 509 181 652 q 268 276 181 366 q 497 186 354 186 q 727 276 640 186 q 813 509 813 366 q 727 742 813 652 q 497 831 640 831 q 268 742 354 831 m 233 241 q 183 294 233 241 q 132 509 132 346 q 233 776 132 671 q 497 880 334 880 q 761 776 660 880 q 862 509 862 671 q 761 241 862 346 q 497 137 660 137 q 233 241 334 137 m 821 730 l 790 770 l 922 938 l 962 909 l 821 730 m 313 159 l 357 136 l 229 -27 l 190 2 l 313 159 m 756 805 l 717 833 l 844 996 l 883 967 l 756 805 m 233 215 l 271 184 l 151 31 l 111 60 l 233 215 m 675 860 l 626 876 l 765 1053 l 804 1025 l 675 860 m 168 291 l 199 250 l 72 89 l 32 117 l 168 291 z "},"":{"ha":1107,"x_min":29,"x_max":1078,"o":"m 444 565 l 420 511 l 127 1123 l 176 1123 l 444 565 m 493 672 l 468 618 l 224 1123 l 273 1123 l 493 672 m 542 779 l 517 725 l 322 1123 l 371 1123 l 542 779 m 747 195 l 747 244 l 943 244 l 943 195 l 747 195 m 747 293 l 747 342 l 943 342 l 943 293 l 747 293 m 161 195 l 161 244 l 357 244 l 357 195 l 161 195 m 161 293 l 161 342 l 357 342 l 357 293 l 161 293 m 480 378 l 833 1123 l 882 1123 l 529 378 l 529 0 l 480 0 l 480 378 m 578 378 l 931 1123 l 980 1123 l 627 378 l 627 0 l 578 0 l 578 378 m 675 378 l 1029 1123 l 1078 1123 l 724 378 l 724 0 l 675 0 l 675 378 m 407 430 l 736 1123 l 785 1123 l 431 378 l 431 0 l 382 0 l 382 378 l 29 1123 l 78 1123 l 407 430 z "},"":{"ha":366,"x_min":61,"x_max":305,"o":"m 256 391 l 305 391 l 305 -148 l 256 -148 l 256 391 m 159 391 l 208 391 l 208 -148 l 159 -148 l 159 391 m 61 391 l 110 391 l 110 -148 l 61 -148 l 61 391 m 256 1123 l 305 1123 l 305 586 l 256 586 l 256 1123 m 159 1123 l 208 1123 l 208 586 l 159 586 l 159 1123 m 61 1123 l 110 1123 l 110 586 l 61 586 l 61 1123 z "},"":{"ha":151,"x_min":0,"x_max":0,"o":""},"":{"ha":773,"x_min":56,"x_max":717,"o":"m 668 1177 l 717 1177 l 717 1025 l 668 1025 l 668 1177 m 570 1177 l 619 1177 l 619 1025 l 570 1025 l 570 1177 m 473 1177 l 522 1177 l 522 1025 l 473 1025 l 473 1177 m 252 1177 l 300 1177 l 300 1025 l 252 1025 l 252 1177 m 154 1177 l 203 1177 l 203 1025 l 154 1025 l 154 1177 m 56 1177 l 105 1177 l 105 1025 l 56 1025 l 56 1177 z "},"":{"ha":1208,"x_min":43,"x_max":1166,"o":"m 847 425 l 904 380 q 775 277 852 315 q 612 239 699 239 q 425 289 511 239 q 289 424 339 338 q 239 610 239 509 q 289 797 239 711 q 425 933 339 883 q 612 983 511 983 q 775 945 699 983 q 904 841 852 907 l 848 796 q 744 880 806 850 q 612 911 682 911 q 465 871 532 911 q 358 761 397 831 q 319 610 319 692 q 358 460 319 529 q 465 351 397 391 q 612 311 532 311 q 744 341 682 311 q 847 425 806 372 m 157 802 q 137 756 157 802 q 118 610 118 711 q 157 419 118 510 q 260 261 195 328 q 415 156 326 195 q 604 117 505 117 q 793 156 703 117 q 948 261 883 195 q 1052 419 1013 328 q 1090 610 1090 510 q 1052 802 1090 711 q 948 959 1013 893 q 793 1064 883 1025 q 604 1103 703 1103 q 415 1064 505 1103 q 260 959 326 1025 q 157 802 195 893 m 87 392 q 65 444 87 392 q 43 610 43 496 q 87 828 43 724 q 207 1008 132 932 q 386 1127 282 1083 q 604 1172 490 1172 q 822 1127 718 1172 q 1002 1008 926 1083 q 1121 828 1077 932 q 1166 610 1166 724 q 1121 392 1166 496 q 1002 213 1077 288 q 822 93 926 138 q 604 49 718 49 q 386 93 490 49 q 207 213 282 138 q 87 392 132 288 z "},"":{"ha":1158,"x_min":45,"x_max":1106,"o":"m 764 481 q 711 616 764 568 q 569 663 657 663 q 441 612 494 663 q 387 488 387 560 q 398 415 387 448 q 428 362 409 383 q 472 327 446 340 q 526 307 498 313 q 586 300 554 300 q 727 338 663 300 l 727 290 q 585 255 661 255 q 493 268 536 255 q 415 308 450 281 q 359 381 380 335 q 338 488 338 428 q 404 647 338 582 q 569 712 470 712 q 746 651 678 712 q 813 481 813 589 l 813 0 l 764 0 l 764 481 m 911 481 l 911 0 l 862 0 l 862 481 q 780 685 862 610 q 569 761 698 761 q 370 682 450 761 q 290 488 290 602 q 314 364 290 419 q 379 276 338 309 q 472 225 420 243 q 580 208 523 208 q 727 244 657 208 l 727 193 q 579 162 654 162 q 452 183 512 162 q 344 243 391 203 q 269 346 296 283 q 241 488 241 410 q 335 716 241 622 q 569 810 430 810 q 744 770 667 810 q 866 655 821 730 q 911 481 911 580 m 1008 481 l 1008 0 l 960 0 l 960 481 q 908 680 960 593 q 768 812 857 766 q 569 859 680 859 q 377 809 464 859 q 241 674 290 759 q 192 488 192 589 q 224 330 192 401 q 310 212 256 258 q 432 141 363 166 q 576 115 501 115 q 727 147 653 115 l 727 98 q 575 68 650 68 q 359 121 458 68 q 202 271 261 174 q 143 488 143 368 q 176 651 143 574 q 265 785 209 728 q 401 874 321 841 q 569 907 480 907 q 793 854 693 907 q 951 704 893 802 q 1008 481 1008 606 m 1106 481 l 1106 0 l 1057 0 l 1057 481 q 993 729 1057 620 q 817 897 928 838 q 569 956 706 956 q 328 893 437 956 q 157 723 219 830 q 94 488 94 615 q 121 330 94 405 q 194 199 148 255 q 301 102 241 143 q 432 41 362 62 q 575 20 503 20 q 727 50 655 20 l 727 0 q 572 -26 652 -26 q 413 -3 490 -26 q 269 65 335 20 q 153 171 203 110 q 74 315 102 233 q 45 488 45 397 q 85 689 45 593 q 194 853 125 784 q 360 964 262 923 q 569 1005 458 1005 q 781 967 682 1005 q 951 862 880 929 q 1065 696 1023 794 q 1106 481 1106 597 z "},"":{"ha":1266,"x_min":53,"x_max":1210,"o":"m 1210 427 l 1210 374 l 983 464 l 1050 490 l 1210 427 m 1210 321 l 1210 269 l 854 410 l 917 437 l 1210 321 m 1210 852 l 1210 800 l 673 587 l 673 640 l 1210 852 m 1210 747 l 1210 694 l 673 482 l 673 534 l 1210 747 m 1210 642 l 1210 590 l 739 404 l 1210 217 l 1210 165 l 673 377 l 673 430 l 1210 642 m 590 427 l 590 374 l 363 464 l 431 490 l 590 427 m 590 321 l 590 269 l 235 410 l 297 437 l 590 321 m 590 852 l 590 800 l 53 587 l 53 640 l 590 852 m 590 747 l 590 694 l 53 482 l 53 534 l 590 747 m 590 642 l 590 590 l 119 404 l 590 217 l 590 165 l 53 377 l 53 430 l 590 642 z "},"":{"ha":998,"x_min":58,"x_max":937,"o":"m 888 732 l 937 732 l 937 293 l 888 293 l 888 732 m 791 732 l 840 732 l 840 293 l 791 293 l 791 732 m 693 684 l 58 684 l 58 732 l 742 732 l 742 293 l 693 293 l 693 488 l 58 488 l 58 537 l 693 537 l 693 586 l 58 586 l 58 635 l 693 635 l 693 684 z "},"":{"ha":1208,"x_min":43,"x_max":1166,"o":"m 681 843 l 461 843 l 461 623 l 681 623 q 759 655 726 623 q 791 732 791 687 q 759 810 791 778 q 681 843 726 843 m 846 293 l 756 293 l 635 551 q 537 550 595 551 q 461 550 479 550 l 461 293 l 382 293 l 382 915 l 681 915 q 814 861 759 915 q 870 732 870 807 q 828 618 870 668 q 719 555 785 568 l 846 293 m 157 802 q 137 756 157 802 q 118 610 118 711 q 157 419 118 510 q 260 261 195 328 q 415 156 326 195 q 604 117 505 117 q 793 156 703 117 q 948 261 883 195 q 1052 419 1013 328 q 1090 610 1090 510 q 1052 802 1090 711 q 948 959 1013 893 q 793 1064 883 1025 q 604 1103 703 1103 q 415 1064 505 1103 q 260 959 326 1025 q 157 802 195 893 m 87 392 q 65 444 87 392 q 43 610 43 496 q 87 828 43 724 q 207 1008 132 932 q 386 1127 282 1083 q 604 1172 490 1172 q 822 1127 718 1172 q 1002 1008 926 1083 q 1121 828 1077 932 q 1166 610 1166 724 q 1121 392 1166 496 q 1002 213 1077 288 q 822 93 926 138 q 604 49 718 49 q 386 93 490 49 q 207 213 282 138 q 87 392 132 288 z "},"":{"ha":459,"x_min":45,"x_max":414,"o":"m 128 1358 q 107 1337 128 1358 q 85 1256 85 1316 q 128 1154 85 1196 q 230 1112 170 1112 q 332 1154 290 1112 q 374 1256 374 1196 q 332 1358 374 1316 q 230 1400 290 1400 q 128 1358 170 1400 m 99 1127 q 72 1154 99 1127 q 45 1256 45 1180 q 99 1385 45 1332 q 230 1438 153 1438 q 360 1385 307 1438 q 414 1256 414 1332 q 360 1127 414 1180 q 230 1074 307 1074 q 99 1127 153 1074 m 180 1305 q 170 1295 180 1305 q 160 1256 160 1285 q 180 1206 160 1227 q 230 1186 201 1186 q 279 1206 259 1186 q 300 1256 300 1227 q 279 1305 300 1285 q 230 1326 259 1326 q 180 1305 201 1326 m 152 1180 q 136 1196 152 1180 q 120 1256 120 1212 q 152 1332 120 1300 q 230 1363 184 1363 q 308 1332 275 1363 q 340 1256 340 1300 q 308 1180 340 1212 q 230 1149 275 1149 q 152 1180 184 1149 z "},"":{"ha":831,"x_min":50,"x_max":782,"o":"m 749 194 l 749 145 l 96 145 l 96 194 l 749 194 m 749 96 l 749 47 l 96 47 l 96 96 l 749 96 m 50 635 l 50 684 l 252 684 l 252 880 l 300 880 l 300 245 l 252 245 l 252 440 l 50 440 l 50 489 l 252 489 l 252 538 l 50 538 l 50 587 l 252 587 l 252 635 l 50 635 m 545 880 l 593 880 l 593 684 l 782 684 l 782 635 l 593 635 l 593 587 l 782 587 l 782 538 l 593 538 l 593 489 l 782 489 l 782 440 l 593 440 l 593 245 l 545 245 l 545 880 m 447 880 l 496 880 l 496 245 l 447 245 l 447 880 m 349 880 l 398 880 l 398 245 l 349 245 l 349 880 z "},"":{"ha":604,"x_min":41,"x_max":570,"o":"m 41 341 l 41 390 l 526 390 l 526 341 l 41 341 m 41 243 l 41 292 l 526 292 l 526 243 l 41 243 m 116 417 l 59 417 q 242 664 134 519 q 387 863 358 821 q 415 927 415 905 q 391 967 415 959 q 304 976 368 976 q 92 948 198 976 l 82 995 q 168 1014 99 1002 q 300 1026 237 1026 q 368 1022 339 1026 q 419 1007 396 1017 q 455 976 443 996 q 467 927 467 956 q 437 852 467 898 q 284 642 408 807 q 116 417 184 509 m 231 417 l 170 417 q 450 798 422 758 q 514 913 507 879 q 516 934 516 923 q 303 1074 516 1074 q 171 1063 238 1074 q 73 1040 104 1051 l 63 1086 q 304 1122 179 1122 q 404 1113 359 1122 q 488 1082 450 1103 q 548 1024 526 1061 q 570 934 570 986 q 528 827 570 891 q 282 486 487 764 q 265 463 271 471 q 249 442 259 455 q 231 417 239 429 z "},"":{"ha":716,"x_min":35,"x_max":676,"o":"m 332 372 q 92 392 200 372 l 102 437 q 332 420 191 420 q 432 473 432 420 q 335 515 432 515 l 187 515 l 187 564 l 336 564 q 439 543 398 564 q 481 473 481 521 q 439 397 481 422 q 332 372 397 372 m 432 774 l 385 785 q 391 819 391 795 q 291 878 391 878 q 83 856 156 878 l 73 901 q 291 927 164 927 q 398 900 357 927 q 440 819 440 873 q 432 774 440 789 m 64 947 l 54 995 q 291 1025 158 1025 q 467 969 397 1025 q 538 819 538 914 q 523 742 538 780 l 477 760 q 489 819 489 786 q 433 935 489 893 q 291 976 376 976 q 64 947 165 976 m 607 696 l 567 720 q 587 819 587 767 q 502 1004 587 935 q 291 1074 417 1074 q 45 1041 163 1074 l 35 1090 q 291 1122 152 1122 q 464 1086 386 1122 q 589 979 542 1049 q 635 819 635 909 q 607 696 635 753 m 332 323 q 473 362 417 323 q 530 473 530 402 q 474 576 530 539 q 341 613 419 613 l 187 613 l 187 662 l 342 662 q 509 611 440 662 q 578 473 578 559 q 508 327 578 380 q 332 274 437 274 q 73 298 193 274 l 83 346 q 332 323 201 323 m 332 225 q 543 293 458 225 q 627 473 627 360 q 544 646 627 581 q 345 711 461 711 l 187 711 l 187 760 l 346 760 q 511 722 435 760 q 632 618 587 684 q 676 473 676 552 q 629 317 676 385 q 505 212 583 248 q 332 176 427 176 q 54 203 188 176 l 64 252 q 332 225 197 225 z "},"":{"ha":656,"x_min":47,"x_max":616,"o":"m 86 1059 l 47 1094 l 500 1315 l 538 1280 l 86 1059 m 163 988 l 125 1023 l 576 1244 l 616 1208 l 163 988 z "},"":{"ha":1114,"x_min":65,"x_max":1058,"o":"m 358 977 l 407 977 l 407 -146 l 358 -146 l 358 977 m 260 977 l 309 977 l 309 -146 l 260 -146 l 260 977 m 163 977 l 212 977 l 212 -146 l 163 -146 l 163 977 m 65 977 l 114 977 l 114 -146 l 65 -146 l 65 977 m 435 261 l 435 313 q 563 293 470 293 q 671 334 627 293 q 716 433 716 376 l 716 977 l 765 977 l 765 433 q 705 299 765 355 q 563 244 646 244 q 435 261 479 244 m 435 159 l 435 212 q 563 195 482 195 q 740 265 666 195 q 814 433 814 334 l 814 977 l 863 977 l 863 433 q 775 231 863 315 q 563 146 687 146 q 435 159 474 146 m 435 60 l 435 112 q 563 98 475 98 q 737 142 656 98 q 864 264 817 187 q 911 433 911 342 l 911 977 l 960 977 l 960 433 q 907 241 960 329 q 762 101 854 153 q 563 49 671 49 q 435 60 485 49 m 435 -39 l 435 12 q 563 0 493 0 q 786 58 683 0 q 949 216 888 116 q 1009 433 1009 315 l 1009 977 l 1058 977 l 1058 433 q 1019 246 1058 335 q 912 92 979 157 q 754 -11 846 28 q 563 -49 663 -49 q 435 -39 487 -49 z "},"":{"ha":939,"x_min":45,"x_max":876,"o":"m 534 557 l 534 635 l 436 635 q 401 625 416 635 q 387 600 387 614 q 436 557 387 557 l 534 557 m 338 600 q 367 659 338 634 q 436 684 396 684 l 583 684 l 583 -98 l 631 -98 l 631 732 l 436 732 q 334 692 379 732 q 290 600 290 651 q 332 496 290 533 q 436 460 375 460 l 534 460 l 534 509 l 436 509 q 338 600 338 509 m 827 -98 l 827 928 l 436 928 q 266 883 345 928 q 141 762 187 838 q 94 600 94 686 q 141 429 94 506 q 266 308 188 351 q 436 264 345 264 l 534 264 l 534 313 l 436 313 q 230 395 316 313 q 143 600 143 477 q 231 795 143 711 q 436 879 318 879 l 778 879 l 778 -98 l 827 -98 m 680 -146 l 534 -146 l 534 216 l 436 216 q 286 242 357 216 q 161 317 215 269 q 77 439 108 366 q 45 600 45 512 q 77 744 45 674 q 161 864 109 813 q 287 946 214 916 q 436 977 359 977 l 876 977 l 876 -146 l 729 -146 l 729 830 l 436 830 q 265 761 338 830 q 192 600 192 691 q 264 429 192 495 q 436 362 336 362 l 534 362 l 534 411 l 436 411 q 298 462 355 411 q 241 600 241 513 q 299 726 241 671 q 436 781 358 781 l 680 781 l 680 -146 z "},"":{"ha":361,"x_min":58,"x_max":302,"o":"m 58 732 l 58 781 l 302 781 l 302 732 l 58 732 m 58 635 l 58 684 l 302 684 l 302 635 l 58 635 m 58 537 l 58 586 l 302 586 l 302 537 l 58 537 z "},"":{"ha":447,"x_min":64,"x_max":378,"o":"m 162 -344 q 162 -339 162 -344 q 161 -318 161 -334 q 162 -292 161 -302 q 169 -266 163 -283 q 187 -238 176 -248 q 223 -220 199 -229 q 281 -212 247 -212 l 330 -212 l 330 -74 l 378 -74 l 378 -261 l 281 -261 q 240 -266 256 -261 q 219 -280 225 -270 q 212 -297 213 -290 q 210 -318 210 -304 q 212 -339 210 -332 q 219 -356 213 -347 q 240 -371 225 -366 q 281 -375 256 -375 l 378 -375 l 378 -424 l 281 -424 q 223 -416 247 -424 q 187 -398 199 -408 q 169 -371 176 -388 q 162 -344 163 -353 m 64 -318 q 65 -270 64 -290 q 77 -219 67 -249 q 103 -171 86 -190 q 153 -137 120 -151 q 232 -122 186 -123 l 232 -74 l 281 -74 l 281 -163 q 204 -171 236 -163 q 155 -191 173 -179 q 128 -224 138 -203 q 115 -266 118 -245 q 113 -318 113 -286 q 113 -351 113 -339 q 116 -382 113 -363 q 125 -412 119 -401 q 144 -436 132 -422 q 174 -456 156 -449 q 219 -468 192 -463 q 281 -473 245 -473 l 378 -473 l 378 -522 l 281 -522 q 216 -517 245 -522 q 166 -506 187 -513 q 129 -487 145 -498 q 101 -464 112 -475 q 83 -436 91 -453 q 72 -407 76 -419 q 66 -376 68 -395 q 64 -347 64 -357 q 64 -318 64 -336 z "},"":{"ha":499,"x_min":40,"x_max":437,"o":"m 40 977 l 40 1025 l 437 1025 l 437 342 l 389 342 l 389 977 l 340 977 l 340 342 l 291 342 l 291 977 l 242 977 l 242 342 l 193 342 l 193 977 l 40 977 m 40 1074 l 40 1123 l 437 1123 l 437 1074 l 40 1074 z "},"":{"ha":1161,"x_min":44,"x_max":1118,"o":"m 443 626 q 415 598 443 626 q 386 488 386 569 q 443 350 386 408 q 581 293 500 293 q 719 350 662 293 q 777 488 777 408 q 719 626 777 569 q 581 684 662 684 q 443 626 500 684 m 409 316 q 373 351 409 316 q 337 488 337 387 q 409 661 337 589 q 581 732 480 732 q 754 661 682 732 q 825 488 825 589 q 754 316 825 387 q 581 244 682 244 q 409 316 480 244 m 374 695 q 331 652 374 695 q 288 488 288 609 q 374 281 288 368 q 581 195 460 195 q 788 281 703 195 q 874 488 874 368 q 788 695 874 609 q 581 781 703 781 q 374 695 460 781 m 285 317 q 262 356 285 317 q 239 488 239 395 q 285 660 239 581 q 410 784 331 739 q 581 830 488 830 q 753 784 674 830 q 877 660 831 739 q 923 488 923 581 q 877 317 923 395 q 753 192 831 238 q 581 146 674 146 q 410 192 488 146 q 285 317 331 238 m 221 640 q 206 604 221 640 q 191 488 191 568 q 221 337 191 409 q 305 212 252 264 q 430 129 357 159 q 581 98 502 98 q 733 129 661 98 q 858 212 805 159 q 941 337 910 264 q 972 488 972 409 q 941 640 972 568 q 858 765 910 712 q 733 848 805 817 q 581 879 661 879 q 430 848 502 879 q 305 765 357 817 q 221 640 252 712 m 177 317 q 159 358 177 317 q 142 488 142 399 q 177 659 142 578 q 270 799 212 741 q 410 893 329 858 q 581 928 492 928 q 752 893 671 928 q 892 799 833 858 q 986 659 951 741 q 1021 488 1021 578 q 986 317 1021 399 q 892 177 951 236 q 752 84 833 119 q 581 49 671 49 q 410 84 492 49 q 270 177 329 119 q 177 317 212 236 m 132 678 q 112 633 132 678 q 93 488 93 587 q 132 299 93 389 q 236 143 170 208 q 392 39 301 77 q 581 0 482 0 q 771 39 680 0 q 927 143 861 77 q 1031 299 992 208 q 1069 488 1069 389 q 1031 678 1069 587 q 927 834 992 768 q 771 938 861 899 q 581 977 680 977 q 392 938 482 977 q 236 834 301 899 q 132 678 170 768 m 87 280 q 65 329 87 280 q 44 488 44 379 q 87 697 44 597 q 201 868 130 796 q 373 983 273 940 q 581 1025 472 1025 q 790 983 690 1025 q 961 868 889 940 q 1076 697 1033 796 q 1118 488 1118 597 q 1076 280 1118 379 q 961 109 1033 180 q 790 -6 889 37 q 581 -49 690 -49 q 373 -6 472 -49 q 201 109 273 37 q 87 280 130 180 z "},"":{"ha":1267,"x_min":58,"x_max":1215,"o":"m 677 590 l 677 642 l 1215 430 l 1215 377 l 677 165 l 677 217 l 1149 404 l 677 590 m 677 694 l 677 747 l 1215 534 l 1215 482 l 677 694 m 677 800 l 677 852 l 1215 640 l 1215 587 l 677 800 m 677 269 l 677 321 l 970 437 l 1033 410 l 677 269 m 677 374 l 677 427 l 837 490 l 904 464 l 677 374 m 58 590 l 58 642 l 595 430 l 595 377 l 58 165 l 58 217 l 529 404 l 58 590 m 58 694 l 58 747 l 595 534 l 595 482 l 58 694 m 58 800 l 58 852 l 595 640 l 595 587 l 58 800 m 58 269 l 58 321 l 351 437 l 413 410 l 58 269 m 58 374 l 58 427 l 217 490 l 284 464 l 58 374 z "},"":{"ha":1717,"x_min":34,"x_max":1685,"o":"m 1513 1 l 1464 1 l 1464 122 l 1513 122 l 1513 1 m 1611 1 l 1562 1 l 1562 122 l 1611 122 l 1611 1 m 1513 415 l 1464 415 l 1464 560 l 1513 560 l 1513 415 m 1611 415 l 1562 415 l 1562 560 l 1611 560 l 1611 415 m 1038 342 l 1038 391 l 1685 391 l 1685 342 l 1038 342 m 1038 245 l 1038 294 l 1685 294 l 1685 245 l 1038 245 m 1038 147 l 1038 196 l 1685 196 l 1685 147 l 1038 147 m 1267 903 l 1323 903 l 1094 416 l 1037 416 l 1267 903 m 1378 903 l 1432 903 l 1204 416 l 1147 416 l 1378 903 m 1487 903 l 1543 903 l 1318 416 l 1261 416 l 1487 903 m 985 1122 l 1036 1122 l 721 -132 l 671 -132 l 985 1122 m 884 1122 l 935 1122 l 620 -132 l 570 -132 l 884 1122 m 782 1122 l 833 1122 l 519 -132 l 468 -132 l 782 1122 m 34 977 l 34 1025 l 431 1025 l 431 342 l 382 342 l 382 977 l 334 977 l 334 342 l 285 342 l 285 977 l 236 977 l 236 342 l 187 342 l 187 977 l 34 977 m 34 1074 l 34 1123 l 431 1123 l 431 1074 l 34 1074 z "},"":{"ha":1604,"x_min":34,"x_max":1567,"o":"m 1038 98 l 1038 147 l 1522 147 l 1522 98 l 1038 98 m 1038 1 l 1038 50 l 1522 50 l 1522 1 l 1038 1 m 1113 174 l 1056 174 q 1239 421 1131 277 q 1383 620 1355 578 q 1412 684 1412 663 q 1388 725 1412 716 q 1301 733 1364 733 q 1089 705 1195 733 l 1079 752 q 1165 771 1096 760 q 1297 783 1234 783 q 1364 779 1336 783 q 1416 764 1393 774 q 1452 733 1440 753 q 1464 684 1464 713 q 1434 610 1464 655 q 1281 399 1404 564 q 1113 174 1181 266 m 1228 174 l 1166 174 q 1447 555 1419 515 q 1511 671 1504 636 q 1513 691 1513 680 q 1300 831 1513 831 q 1168 820 1235 831 q 1069 797 1101 808 l 1060 844 q 1301 880 1176 880 q 1401 870 1356 880 q 1485 840 1447 861 q 1545 781 1523 819 q 1567 691 1567 743 q 1525 585 1567 648 q 1279 243 1484 521 q 1262 220 1268 229 q 1246 199 1256 212 q 1228 174 1236 186 m 985 1122 l 1036 1122 l 721 -132 l 671 -132 l 985 1122 m 884 1122 l 935 1122 l 620 -132 l 570 -132 l 884 1122 m 782 1122 l 833 1122 l 519 -132 l 468 -132 l 782 1122 m 34 977 l 34 1025 l 431 1025 l 431 342 l 382 342 l 382 977 l 334 977 l 334 342 l 285 342 l 285 977 l 236 977 l 236 342 l 187 342 l 187 977 l 34 977 m 34 1074 l 34 1123 l 431 1123 l 431 1074 l 34 1074 z "},"":{"ha":1868,"x_min":32,"x_max":1836,"o":"m 1664 1 l 1615 1 l 1615 122 l 1664 122 l 1664 1 m 1762 1 l 1713 1 l 1713 122 l 1762 122 l 1762 1 m 1664 415 l 1615 415 l 1615 560 l 1664 560 l 1664 415 m 1762 415 l 1713 415 l 1713 560 l 1762 560 l 1762 415 m 1190 342 l 1190 391 l 1836 391 l 1836 342 l 1190 342 m 1190 245 l 1190 294 l 1836 294 l 1836 245 l 1190 245 m 1190 147 l 1190 196 l 1836 196 l 1836 147 l 1190 147 m 1418 903 l 1474 903 l 1245 416 l 1188 416 l 1418 903 m 1529 903 l 1584 903 l 1356 416 l 1299 416 l 1529 903 m 1638 903 l 1694 903 l 1469 416 l 1412 416 l 1638 903 m 1178 1122 l 1228 1122 l 913 -132 l 863 -132 l 1178 1122 m 1076 1122 l 1127 1122 l 812 -132 l 762 -132 l 1076 1122 m 975 1122 l 1025 1122 l 711 -132 l 661 -132 l 975 1122 m 329 372 q 90 392 197 372 l 99 437 q 329 420 188 420 q 429 473 429 420 q 332 515 429 515 l 184 515 l 184 564 l 333 564 q 437 543 395 564 q 478 473 478 521 q 436 397 478 422 q 329 372 395 372 m 429 774 l 382 785 q 389 819 389 795 q 288 878 389 878 q 80 856 153 878 l 71 901 q 288 927 161 927 q 396 900 354 927 q 437 819 437 873 q 429 774 437 789 m 61 947 l 52 995 q 288 1025 155 1025 q 465 969 394 1025 q 535 819 535 914 q 520 742 535 780 l 475 760 q 486 819 486 786 q 430 935 486 893 q 288 976 374 976 q 61 947 161 976 m 604 696 l 564 720 q 584 819 584 767 q 499 1004 584 935 q 288 1074 414 1074 q 42 1041 160 1074 l 32 1090 q 288 1122 149 1122 q 461 1086 383 1122 q 586 979 539 1049 q 633 819 633 909 q 604 696 633 753 m 329 323 q 471 362 414 323 q 527 473 527 402 q 472 576 527 539 q 338 613 416 613 l 184 613 l 184 662 l 339 662 q 507 611 437 662 q 576 473 576 559 q 505 327 576 380 q 329 274 435 274 q 71 298 191 274 l 80 346 q 329 323 199 323 m 329 225 q 540 293 455 225 q 625 473 625 360 q 542 646 625 581 q 342 711 458 711 l 184 711 l 184 760 l 343 760 q 509 722 433 760 q 629 618 585 684 q 673 473 673 552 q 627 317 673 385 q 502 212 580 248 q 329 176 424 176 q 51 203 185 176 l 61 252 q 329 225 195 225 z "},"":{"ha":964,"x_min":28,"x_max":924,"o":"m 448 1123 q 234 1089 333 1123 q 67 992 134 1055 l 28 1021 q 211 1132 102 1093 q 448 1172 321 1172 q 632 1143 545 1172 q 784 1062 720 1114 q 886 934 848 1010 q 924 770 924 859 q 891 608 924 683 q 805 484 859 534 q 680 406 751 434 q 532 378 610 378 q 502 378 524 378 q 460 379 480 379 q 427 378 441 379 l 427 424 l 530 424 q 657 448 595 424 q 767 516 719 473 q 845 627 816 560 q 875 770 875 693 q 841 915 875 848 q 749 1027 807 981 q 613 1098 692 1072 q 448 1123 535 1123 m 448 1025 q 276 1001 355 1025 q 142 930 196 976 l 104 960 q 254 1044 164 1015 q 448 1074 343 1074 q 638 1038 552 1074 q 775 931 724 1001 q 826 770 826 861 q 784 617 826 686 q 672 511 743 549 q 516 473 601 473 q 427 468 473 473 l 427 517 q 515 519 474 519 q 644 547 585 519 q 740 633 703 575 q 777 770 777 692 q 683 956 777 886 q 448 1025 588 1025 m 448 928 q 219 869 300 928 l 180 899 q 448 977 275 977 q 648 921 568 977 q 728 770 728 866 q 664 621 728 675 q 505 566 599 566 q 427 563 475 566 l 427 614 q 505 612 466 612 q 629 653 578 612 q 680 770 680 694 q 614 886 680 845 q 448 928 548 928 m 448 830 q 296 808 340 830 l 256 838 q 448 879 322 879 q 579 852 528 879 q 631 770 631 825 q 591 686 631 713 q 492 659 552 659 q 427 660 448 659 l 427 709 q 492 705 450 705 q 557 720 532 705 q 582 770 582 736 q 448 830 582 830 m 421 50 l 421 1 l 123 1 l 123 50 l 421 50 m 421 147 l 421 98 l 123 98 l 123 147 l 421 147 m 421 245 l 421 196 l 123 196 l 123 245 l 421 245 m 199 293 l 151 293 l 151 705 l 199 705 l 199 293 m 297 293 l 248 293 l 248 705 l 297 705 l 297 293 m 395 293 l 346 293 l 346 705 l 395 705 l 395 293 z "},"":{"ha":1301,"x_min":22,"x_max":1278,"o":"m 727 1312 l 766 1347 l 313 1568 l 275 1533 l 727 1312 m 650 1241 l 688 1276 l 237 1497 l 197 1461 l 650 1241 m 548 330 l 568 378 l 734 378 l 754 330 l 548 330 m 510 232 l 529 281 l 772 281 l 793 232 l 510 232 m 472 134 l 491 183 l 811 183 l 831 134 l 472 134 m 75 0 l 22 0 l 467 1123 l 519 1123 l 963 0 l 911 0 l 493 1057 l 75 0 m 499 941 l 527 879 l 180 0 l 127 0 l 499 941 m 553 812 l 579 745 l 286 0 l 233 0 l 553 812 m 605 678 l 631 610 l 390 0 l 338 0 l 605 678 m 1278 0 l 1225 0 l 782 1123 l 834 1123 l 1278 0 m 729 1123 l 1173 0 l 1121 0 l 677 1123 l 729 1123 m 624 1123 l 1068 0 l 1015 0 l 572 1123 l 624 1123 z "},"":{"ha":1301,"x_min":22,"x_max":1278,"o":"m 573 1312 l 534 1347 l 987 1568 l 1025 1533 l 573 1312 m 650 1241 l 612 1276 l 1063 1497 l 1103 1461 l 650 1241 m 548 330 l 568 378 l 734 378 l 754 330 l 548 330 m 510 232 l 529 281 l 772 281 l 793 232 l 510 232 m 472 134 l 491 183 l 811 183 l 831 134 l 472 134 m 75 0 l 22 0 l 467 1123 l 519 1123 l 963 0 l 911 0 l 493 1057 l 75 0 m 499 941 l 527 879 l 180 0 l 127 0 l 499 941 m 553 812 l 579 745 l 286 0 l 233 0 l 553 812 m 605 678 l 631 610 l 390 0 l 338 0 l 605 678 m 1278 0 l 1225 0 l 782 1123 l 834 1123 l 1278 0 m 729 1123 l 1173 0 l 1121 0 l 677 1123 l 729 1123 m 624 1123 l 1068 0 l 1015 0 l 572 1123 l 624 1123 z "},"":{"ha":1301,"x_min":22,"x_max":1278,"o":"m 860 1241 l 729 1572 l 677 1572 l 808 1241 l 860 1241 m 598 1241 l 632 1328 l 604 1390 l 545 1241 l 598 1241 m 493 1241 l 597 1507 l 703 1241 l 755 1241 l 625 1572 l 572 1572 l 441 1241 l 493 1241 m 548 330 l 568 378 l 734 378 l 754 330 l 548 330 m 510 232 l 529 281 l 772 281 l 793 232 l 510 232 m 472 134 l 491 183 l 811 183 l 831 134 l 472 134 m 75 0 l 22 0 l 467 1123 l 519 1123 l 963 0 l 911 0 l 493 1057 l 75 0 m 499 941 l 527 879 l 180 0 l 127 0 l 499 941 m 553 812 l 579 745 l 286 0 l 233 0 l 553 812 m 605 678 l 631 610 l 390 0 l 338 0 l 605 678 m 1278 0 l 1225 0 l 782 1123 l 834 1123 l 1278 0 m 729 1123 l 1173 0 l 1121 0 l 677 1123 l 729 1123 m 624 1123 l 1068 0 l 1015 0 l 572 1123 l 624 1123 z "},"":{"ha":1301,"x_min":22,"x_max":1278,"o":"m 918 1485 l 967 1485 q 961 1431 967 1455 q 947 1392 956 1407 q 924 1366 939 1377 q 899 1350 910 1356 q 870 1342 888 1345 q 844 1339 853 1339 q 821 1339 836 1339 l 479 1339 q 450 1338 460 1339 q 425 1332 440 1337 q 401 1318 409 1327 q 388 1289 394 1308 q 382 1241 382 1270 l 333 1241 q 339 1295 333 1272 q 353 1334 345 1319 q 376 1360 361 1350 q 401 1376 390 1371 q 430 1384 412 1381 q 456 1387 447 1387 q 479 1388 465 1388 l 821 1388 q 850 1388 840 1388 q 876 1394 860 1389 q 899 1409 891 1399 q 912 1437 906 1418 q 918 1485 918 1457 m 1016 1485 l 1065 1485 q 1059 1413 1065 1446 q 1046 1356 1054 1380 q 1023 1314 1038 1333 q 996 1283 1008 1295 q 962 1263 983 1272 q 928 1251 942 1255 q 890 1244 913 1246 q 855 1241 867 1242 q 821 1241 842 1241 l 479 1241 l 479 1290 l 821 1290 q 853 1290 842 1290 q 884 1292 865 1291 q 915 1297 904 1294 q 942 1308 926 1301 q 967 1324 958 1314 q 987 1348 976 1333 q 1003 1382 998 1363 q 1012 1427 1008 1401 q 1016 1485 1016 1453 m 479 1485 l 821 1485 l 821 1436 l 479 1436 q 447 1436 458 1436 q 416 1434 435 1436 q 385 1429 396 1432 q 358 1419 374 1426 q 333 1402 342 1412 q 313 1378 324 1393 q 297 1344 302 1363 q 288 1299 292 1325 q 284 1241 284 1273 l 235 1241 q 241 1313 235 1280 q 254 1370 246 1346 q 277 1412 262 1394 q 304 1443 292 1431 q 338 1463 317 1455 q 372 1476 358 1472 q 410 1482 387 1480 q 445 1485 433 1485 q 479 1485 458 1485 m 548 330 l 568 378 l 734 378 l 754 330 l 548 330 m 510 232 l 529 281 l 772 281 l 793 232 l 510 232 m 472 134 l 491 183 l 811 183 l 831 134 l 472 134 m 75 0 l 22 0 l 467 1123 l 519 1123 l 963 0 l 911 0 l 493 1057 l 75 0 m 499 941 l 527 879 l 180 0 l 127 0 l 499 941 m 553 812 l 579 745 l 286 0 l 233 0 l 553 812 m 605 678 l 631 610 l 390 0 l 338 0 l 605 678 m 1278 0 l 1225 0 l 782 1123 l 834 1123 l 1278 0 m 729 1123 l 1173 0 l 1121 0 l 677 1123 l 729 1123 m 624 1123 l 1068 0 l 1015 0 l 572 1123 l 624 1123 z "},"":{"ha":1301,"x_min":22,"x_max":1278,"o":"m 931 1393 l 980 1393 l 980 1241 l 931 1241 l 931 1393 m 833 1393 l 882 1393 l 882 1241 l 833 1241 l 833 1393 m 736 1393 l 785 1393 l 785 1241 l 736 1241 l 736 1393 m 515 1393 l 564 1393 l 564 1241 l 515 1241 l 515 1393 m 417 1393 l 466 1393 l 466 1241 l 417 1241 l 417 1393 m 319 1393 l 368 1393 l 368 1241 l 319 1241 l 319 1393 m 548 330 l 568 378 l 734 378 l 754 330 l 548 330 m 510 232 l 529 281 l 772 281 l 793 232 l 510 232 m 472 134 l 491 183 l 811 183 l 831 134 l 472 134 m 75 0 l 22 0 l 467 1123 l 519 1123 l 963 0 l 911 0 l 493 1057 l 75 0 m 499 941 l 527 879 l 180 0 l 127 0 l 499 941 m 553 812 l 579 745 l 286 0 l 233 0 l 553 812 m 605 678 l 631 610 l 390 0 l 338 0 l 605 678 m 1278 0 l 1225 0 l 782 1123 l 834 1123 l 1278 0 m 729 1123 l 1173 0 l 1121 0 l 677 1123 l 729 1123 m 624 1123 l 1068 0 l 1015 0 l 572 1123 l 624 1123 z "},"":{"ha":1301,"x_min":22,"x_max":1278,"o":"m 548 1443 q 527 1422 548 1443 q 506 1341 506 1401 q 548 1239 506 1282 q 650 1197 591 1197 q 752 1239 710 1197 q 795 1341 795 1282 q 752 1443 795 1401 q 650 1486 710 1486 q 548 1443 591 1486 m 520 1213 q 493 1239 520 1213 q 466 1341 466 1265 q 520 1470 466 1417 q 650 1523 574 1523 q 781 1470 727 1523 q 835 1341 835 1417 q 781 1213 835 1265 q 650 1160 727 1160 q 520 1213 574 1160 m 601 1391 q 591 1381 601 1391 q 581 1341 581 1371 q 601 1292 581 1312 q 650 1272 621 1272 q 700 1292 680 1272 q 720 1341 720 1312 q 700 1391 720 1371 q 650 1411 680 1411 q 601 1391 621 1411 m 573 1266 q 557 1282 573 1266 q 541 1341 541 1297 q 573 1417 541 1385 q 650 1449 605 1449 q 728 1417 696 1449 q 760 1341 760 1385 q 728 1266 760 1297 q 650 1234 696 1234 q 573 1266 605 1234 m 548 330 l 568 378 l 734 378 l 754 330 l 548 330 m 510 232 l 529 281 l 772 281 l 793 232 l 510 232 m 472 134 l 491 183 l 811 183 l 831 134 l 472 134 m 75 0 l 22 0 l 467 1123 l 519 1123 l 963 0 l 911 0 l 493 1057 l 75 0 m 499 941 l 527 879 l 180 0 l 127 0 l 499 941 m 553 812 l 579 745 l 286 0 l 233 0 l 553 812 m 605 678 l 631 610 l 390 0 l 338 0 l 605 678 m 1278 0 l 1225 0 l 782 1123 l 834 1123 l 1278 0 m 729 1123 l 1173 0 l 1121 0 l 677 1123 l 729 1123 m 624 1123 l 1068 0 l 1015 0 l 572 1123 l 624 1123 z "},"":{"ha":1664,"x_min":23,"x_max":1612,"o":"m 549 330 l 568 378 l 735 378 l 755 330 l 549 330 m 511 232 l 530 281 l 773 281 l 794 232 l 511 232 m 473 134 l 492 183 l 812 183 l 832 134 l 473 134 m 76 0 l 23 0 l 467 1123 q 520 1123 467 1123 l 964 0 l 911 0 l 494 1057 l 76 0 m 500 941 l 528 879 l 180 0 l 128 0 l 500 941 m 554 812 l 580 745 l 286 0 l 233 0 l 554 812 m 606 678 l 631 610 l 391 0 l 338 0 l 606 678 m 730 1123 l 1174 0 l 1122 0 l 677 1123 l 730 1123 m 625 1123 l 1069 0 l 1016 0 l 572 1123 l 625 1123 m 1177 244 l 1612 244 l 1612 195 l 1197 195 l 1217 146 l 1612 146 l 1612 98 l 1234 98 l 1253 49 l 1612 49 l 1612 0 l 1219 0 l 785 1123 l 1612 1123 l 1612 1074 l 855 1074 l 876 1025 l 1612 1025 l 1612 977 l 894 977 l 912 928 l 1612 928 l 1612 879 l 930 879 l 1010 684 l 1528 684 l 1528 635 l 1028 635 l 1046 586 l 1528 586 l 1528 537 l 1065 537 l 1083 488 l 1528 488 l 1528 439 l 1097 439 l 1177 244 z "},"":{"ha":1183,"x_min":38,"x_max":1153,"o":"m 506 -304 q 506 -299 506 -304 q 505 -278 505 -294 q 506 -252 505 -262 q 513 -225 507 -243 q 531 -198 519 -208 q 567 -180 543 -189 q 625 -172 591 -172 l 673 -172 l 673 -34 l 722 -34 l 722 -221 l 625 -221 q 584 -225 600 -221 q 563 -240 569 -230 q 555 -257 557 -250 q 554 -278 554 -264 q 555 -299 554 -292 q 563 -316 557 -307 q 584 -331 569 -326 q 625 -335 600 -335 l 722 -335 l 722 -384 l 625 -384 q 567 -376 591 -384 q 531 -358 543 -368 q 513 -331 519 -348 q 506 -304 507 -313 m 408 -278 q 409 -230 408 -250 q 420 -179 411 -209 q 447 -131 430 -150 q 497 -97 464 -111 q 576 -82 530 -83 l 576 -34 l 625 -34 l 625 -123 q 548 -131 580 -123 q 499 -151 517 -139 q 472 -184 481 -163 q 459 -226 462 -205 q 456 -278 456 -246 q 457 -311 456 -299 q 460 -342 457 -323 q 469 -372 463 -361 q 488 -396 475 -382 q 518 -416 500 -409 q 563 -428 536 -423 q 625 -433 589 -433 l 722 -433 l 722 -481 l 625 -481 q 560 -477 589 -481 q 510 -466 531 -473 q 472 -447 489 -458 q 445 -424 456 -435 q 427 -396 435 -413 q 416 -367 420 -379 q 410 -336 412 -355 q 408 -307 408 -317 q 408 -278 408 -296 m 911 739 l 871 713 q 775 799 834 767 q 648 830 717 830 q 458 751 537 830 q 380 562 380 673 q 458 372 380 450 q 648 293 537 293 q 775 325 717 293 q 871 411 834 357 l 910 382 q 798 281 867 319 q 648 244 728 244 q 525 269 584 244 q 424 337 467 294 q 356 438 381 380 q 331 562 331 497 q 356 685 331 626 q 424 786 381 743 q 525 854 467 829 q 648 879 584 879 q 798 841 729 879 q 911 739 867 804 m 991 795 l 951 768 q 821 885 901 842 q 648 928 741 928 q 465 879 549 928 q 331 745 380 829 q 282 562 282 661 q 331 378 282 462 q 465 244 380 294 q 648 195 549 195 q 821 239 741 195 q 951 356 901 282 l 991 328 q 844 195 935 244 q 648 146 753 146 q 440 202 536 146 q 289 353 345 258 q 233 562 233 449 q 289 770 233 674 q 440 921 345 865 q 648 977 536 977 q 844 928 753 977 q 991 795 935 879 m 1073 849 l 1032 823 q 867 971 968 916 q 648 1025 766 1025 q 468 989 554 1025 q 320 890 382 952 q 221 742 258 828 q 184 562 184 656 q 221 381 184 467 q 320 233 258 295 q 468 134 382 171 q 648 98 554 98 q 867 153 766 98 q 1032 301 968 208 l 1072 272 q 889 109 1001 169 q 648 49 778 49 q 391 118 509 49 q 204 304 273 186 q 136 562 136 422 q 204 819 136 701 q 391 1005 273 937 q 648 1074 509 1074 q 890 1014 779 1074 q 1073 849 1002 953 m 1153 905 l 1112 878 q 912 1057 1035 991 q 648 1123 790 1123 q 430 1079 534 1123 q 251 959 326 1034 q 131 780 176 884 q 87 562 87 675 q 131 343 87 448 q 251 164 176 239 q 430 44 326 89 q 648 0 534 0 q 913 66 790 0 q 1113 246 1036 133 l 1152 216 q 935 23 1068 94 q 648 -49 802 -49 q 411 0 524 -49 q 217 130 298 48 q 86 325 135 212 q 38 562 38 437 q 86 799 38 686 q 217 993 135 911 q 411 1123 298 1075 q 648 1172 524 1172 q 936 1100 803 1172 q 1153 905 1069 1028 z "},"":{"ha":981,"x_min":41,"x_max":924,"o":"m 570 1312 l 609 1347 l 157 1568 l 119 1533 l 570 1312 m 493 1241 l 532 1276 l 80 1497 l 41 1461 l 493 1241 m 307 0 l 258 0 l 258 1123 l 307 1123 l 307 0 m 210 0 l 161 0 l 161 1123 l 210 1123 l 210 0 m 112 0 l 63 0 l 63 1123 l 112 1123 l 112 0 m 405 244 l 924 244 l 924 195 l 405 195 l 405 146 l 924 146 l 924 98 l 405 98 l 405 49 l 924 49 l 924 0 l 356 0 l 356 1123 l 924 1123 l 924 1074 l 405 1074 l 405 1025 l 924 1025 l 924 977 l 405 977 l 405 928 l 924 928 l 924 879 l 405 879 l 405 684 l 671 684 l 671 635 l 405 635 l 405 586 l 671 586 l 671 537 l 405 537 l 405 488 l 671 488 l 671 439 l 405 439 l 405 244 z "},"":{"ha":981,"x_min":63,"x_max":946,"o":"m 416 1312 l 378 1347 l 830 1568 l 869 1533 l 416 1312 m 494 1241 l 455 1276 l 907 1497 l 946 1461 l 494 1241 m 307 0 l 258 0 l 258 1123 l 307 1123 l 307 0 m 210 0 l 161 0 l 161 1123 l 210 1123 l 210 0 m 112 0 l 63 0 l 63 1123 l 112 1123 l 112 0 m 405 244 l 924 244 l 924 195 l 405 195 l 405 146 l 924 146 l 924 98 l 405 98 l 405 49 l 924 49 l 924 0 l 356 0 l 356 1123 l 924 1123 l 924 1074 l 405 1074 l 405 1025 l 924 1025 l 924 977 l 405 977 l 405 928 l 924 928 l 924 879 l 405 879 l 405 684 l 671 684 l 671 635 l 405 635 l 405 586 l 671 586 l 671 537 l 405 537 l 405 488 l 671 488 l 671 439 l 405 439 l 405 244 z "},"":{"ha":981,"x_min":63,"x_max":924,"o":"m 703 1241 l 572 1572 l 520 1572 l 651 1241 l 703 1241 m 441 1241 l 475 1328 l 448 1390 l 389 1241 l 441 1241 m 336 1241 l 441 1507 l 546 1241 l 599 1241 l 468 1572 l 415 1572 l 284 1241 l 336 1241 m 307 0 l 258 0 l 258 1123 l 307 1123 l 307 0 m 210 0 l 161 0 l 161 1123 l 210 1123 l 210 0 m 112 0 l 63 0 l 63 1123 l 112 1123 l 112 0 m 405 244 l 924 244 l 924 195 l 405 195 l 405 146 l 924 146 l 924 98 l 405 98 l 405 49 l 924 49 l 924 0 l 356 0 l 356 1123 l 924 1123 l 924 1074 l 405 1074 l 405 1025 l 924 1025 l 924 977 l 405 977 l 405 928 l 924 928 l 924 879 l 405 879 l 405 684 l 671 684 l 671 635 l 405 635 l 405 586 l 671 586 l 671 537 l 405 537 l 405 488 l 671 488 l 671 439 l 405 439 l 405 244 z "},"":{"ha":981,"x_min":63,"x_max":924,"o":"m 774 1393 l 823 1393 l 823 1241 l 774 1241 l 774 1393 m 677 1393 l 726 1393 l 726 1241 l 677 1241 l 677 1393 m 579 1393 l 628 1393 l 628 1241 l 579 1241 l 579 1393 m 358 1393 l 407 1393 l 407 1241 l 358 1241 l 358 1393 m 260 1393 l 309 1393 l 309 1241 l 260 1241 l 260 1393 m 163 1393 l 212 1393 l 212 1241 l 163 1241 l 163 1393 m 307 0 l 258 0 l 258 1123 l 307 1123 l 307 0 m 210 0 l 161 0 l 161 1123 l 210 1123 l 210 0 m 112 0 l 63 0 l 63 1123 l 112 1123 l 112 0 m 405 244 l 924 244 l 924 195 l 405 195 l 405 146 l 924 146 l 924 98 l 405 98 l 405 49 l 924 49 l 924 0 l 356 0 l 356 1123 l 924 1123 l 924 1074 l 405 1074 l 405 1025 l 924 1025 l 924 977 l 405 977 l 405 928 l 924 928 l 924 879 l 405 879 l 405 684 l 671 684 l 671 635 l 405 635 l 405 586 l 671 586 l 671 537 l 405 537 l 405 488 l 671 488 l 671 439 l 405 439 l 405 244 z "},"":{"ha":471,"x_min":-219,"x_max":405,"o":"m 311 1312 l 349 1347 l -103 1568 l -141 1533 l 311 1312 m 233 1241 l 272 1276 l -180 1497 l -219 1461 l 233 1241 m 356 1123 l 405 1123 l 405 0 l 356 0 l 356 1123 m 258 1123 l 307 1123 l 307 0 l 258 0 l 258 1123 m 161 1123 l 210 1123 l 210 0 l 161 0 l 161 1123 m 63 1123 l 112 1123 l 112 0 l 63 0 l 63 1123 z "},"":{"ha":471,"x_min":63,"x_max":686,"o":"m 157 1312 l 118 1347 l 570 1568 l 609 1533 l 157 1312 m 234 1241 l 195 1276 l 647 1497 l 686 1461 l 234 1241 m 356 1123 l 405 1123 l 405 0 l 356 0 l 356 1123 m 258 1123 l 307 1123 l 307 0 l 258 0 l 258 1123 m 161 1123 l 210 1123 l 210 0 l 161 0 l 161 1123 m 63 1123 l 112 1123 l 112 0 l 63 0 l 63 1123 z "},"":{"ha":471,"x_min":24,"x_max":444,"o":"m 444 1241 l 313 1572 l 260 1572 l 391 1241 l 444 1241 m 182 1241 l 216 1328 l 188 1390 l 129 1241 l 182 1241 m 77 1241 l 181 1507 l 286 1241 l 339 1241 l 208 1572 l 155 1572 l 24 1241 l 77 1241 m 356 1123 l 405 1123 l 405 0 l 356 0 l 356 1123 m 258 1123 l 307 1123 l 307 0 l 258 0 l 258 1123 m 161 1123 l 210 1123 l 210 0 l 161 0 l 161 1123 m 63 1123 l 112 1123 l 112 0 l 63 0 l 63 1123 z "},"":{"ha":471,"x_min":-97,"x_max":564,"o":"m 515 1393 l 564 1393 l 564 1241 l 515 1241 l 515 1393 m 417 1393 l 466 1393 l 466 1241 l 417 1241 l 417 1393 m 319 1393 l 368 1393 l 368 1241 l 319 1241 l 319 1393 m 98 1393 l 147 1393 l 147 1241 l 98 1241 l 98 1393 m 1 1393 l 50 1393 l 50 1241 l 1 1241 l 1 1393 m -97 1393 l -48 1393 l -48 1241 l -97 1241 l -97 1393 m 356 1123 l 405 1123 l 405 0 l 356 0 l 356 1123 m 258 1123 l 307 1123 l 307 0 l 258 0 l 258 1123 m 161 1123 l 210 1123 l 210 0 l 161 0 l 161 1123 m 63 1123 l 112 1123 l 112 0 l 63 0 l 63 1123 z "},"":{"ha":1258,"x_min":37,"x_max":1211,"o":"m 37 439 l 37 488 l 549 488 l 549 439 l 37 439 m 37 537 l 37 586 l 549 586 l 549 537 l 37 537 m 37 635 l 37 684 l 549 684 l 549 635 l 37 635 m 380 415 l 429 415 l 429 342 l 713 342 q 817 406 774 342 q 860 562 860 471 q 817 717 860 653 q 713 781 774 781 l 429 781 l 429 709 l 380 709 l 380 830 l 713 830 q 852 751 794 830 q 910 562 910 672 q 852 372 910 450 q 713 293 794 293 l 380 293 l 380 415 m 283 415 l 332 415 l 332 244 l 713 244 q 887 337 814 244 q 960 562 960 431 q 927 721 960 648 q 837 837 893 794 q 713 879 780 879 l 332 879 l 332 709 l 283 709 l 283 928 l 713 928 q 861 879 793 928 q 970 746 930 830 q 1010 562 1010 661 q 970 378 1010 463 q 861 244 930 293 q 713 195 793 195 l 283 195 l 283 415 m 185 415 l 234 415 l 234 146 l 713 146 q 886 202 806 146 q 1013 353 966 258 q 1061 562 1061 449 q 1013 769 1061 673 q 886 921 966 865 q 713 977 806 977 l 234 977 l 234 709 l 185 709 l 185 1025 l 713 1025 q 911 963 819 1025 q 1057 794 1002 901 q 1111 562 1111 687 q 1057 329 1111 436 q 911 160 1002 222 q 713 98 819 98 l 185 98 l 185 415 m 87 415 l 136 415 l 136 49 l 713 49 q 885 90 802 49 q 1028 199 968 130 q 1125 362 1088 267 q 1161 562 1161 458 q 1125 760 1161 665 q 1028 924 1088 855 q 885 1034 968 993 q 713 1074 802 1074 l 136 1074 l 136 709 l 87 709 l 87 1123 l 713 1123 q 960 1048 846 1123 q 1143 843 1075 972 q 1211 562 1211 713 q 1171 343 1211 448 q 1063 164 1131 239 q 904 44 996 89 q 713 0 812 0 l 87 0 l 87 415 z "},"":{"ha":1219,"x_min":63,"x_max":1154,"o":"m 876 1485 l 925 1485 q 919 1431 925 1455 q 905 1392 913 1407 q 882 1366 897 1377 q 857 1350 868 1356 q 828 1342 846 1345 q 802 1339 811 1339 q 779 1339 793 1339 l 437 1339 q 408 1338 418 1339 q 382 1332 398 1337 q 359 1318 367 1327 q 346 1289 352 1308 q 340 1241 340 1270 l 291 1241 q 297 1295 291 1272 q 311 1334 302 1319 q 334 1360 319 1350 q 359 1376 348 1371 q 388 1384 370 1381 q 414 1387 405 1387 q 437 1388 422 1388 l 779 1388 q 808 1388 798 1388 q 833 1394 818 1389 q 857 1409 849 1399 q 870 1437 864 1418 q 876 1485 876 1457 m 974 1485 l 1023 1485 q 1017 1413 1023 1446 q 1004 1356 1012 1380 q 981 1314 996 1333 q 954 1283 966 1295 q 920 1263 941 1272 q 886 1251 900 1255 q 848 1244 871 1246 q 813 1241 825 1242 q 779 1241 800 1241 l 437 1241 l 437 1290 l 779 1290 q 811 1290 800 1290 q 842 1292 823 1291 q 873 1297 862 1294 q 900 1308 884 1301 q 925 1324 916 1314 q 945 1348 934 1333 q 961 1382 956 1363 q 970 1427 966 1401 q 974 1485 974 1453 m 437 1485 l 779 1485 l 779 1436 l 437 1436 q 405 1436 416 1436 q 374 1434 393 1436 q 343 1429 354 1432 q 316 1419 332 1426 q 291 1402 300 1412 q 271 1378 282 1393 q 255 1344 260 1363 q 246 1299 250 1325 q 242 1241 242 1273 l 193 1241 q 199 1313 193 1280 q 212 1370 204 1346 q 235 1412 220 1394 q 262 1443 250 1431 q 296 1463 275 1455 q 330 1476 316 1472 q 368 1482 345 1480 q 403 1485 391 1485 q 437 1485 416 1485 m 861 541 l 812 621 l 812 1123 l 861 1123 l 861 541 m 958 380 l 909 463 l 909 1123 l 958 1123 l 958 380 m 1056 218 l 1007 301 l 1007 1123 l 1056 1123 l 1056 218 m 356 583 l 405 502 l 405 0 l 356 0 l 356 583 m 258 743 l 307 661 l 307 0 l 258 0 l 258 743 m 161 905 l 210 822 l 210 0 l 161 0 l 161 905 m 178 1123 l 235 1123 l 925 0 l 868 0 l 178 1123 m 293 1123 l 351 1123 l 1040 0 l 982 0 l 293 1123 m 408 1123 l 465 1123 l 1105 79 l 1105 1123 l 1154 1123 l 1154 0 q 1096 0 1154 0 l 408 1123 m 112 1044 l 112 0 l 63 0 l 63 1123 q 121 1123 63 1123 l 810 0 l 753 0 l 112 1044 z "},"":{"ha":1297,"x_min":38,"x_max":1259,"o":"m 725 1312 l 764 1347 l 311 1568 l 273 1533 l 725 1312 m 648 1241 l 686 1276 l 235 1497 l 195 1461 l 648 1241 m 458 751 q 419 712 458 751 q 380 562 380 673 q 458 372 380 450 q 648 293 537 293 q 838 372 760 293 q 917 562 917 450 q 838 751 917 673 q 648 830 760 830 q 458 751 537 830 m 356 438 q 343 468 356 438 q 331 562 331 497 q 356 685 331 626 q 424 786 381 743 q 525 854 467 829 q 648 879 584 879 q 771 854 713 879 q 873 786 830 829 q 941 685 916 743 q 966 562 966 626 q 941 438 966 497 q 873 337 916 380 q 771 269 830 294 q 648 244 713 244 q 525 269 584 244 q 424 337 467 294 q 356 438 381 380 m 331 745 q 307 703 331 745 q 282 562 282 661 q 331 378 282 462 q 465 244 380 294 q 648 195 549 195 q 832 244 748 195 q 965 378 916 294 q 1015 562 1015 462 q 965 745 1015 661 q 832 879 916 829 q 648 928 748 928 q 465 879 549 928 q 331 745 380 829 m 289 353 q 261 401 289 353 q 233 562 233 449 q 289 770 233 674 q 440 921 345 865 q 648 977 536 977 q 857 921 761 977 q 1008 770 952 865 q 1063 562 1063 674 q 1008 353 1063 449 q 857 202 952 258 q 648 146 761 146 q 440 202 536 146 q 289 353 345 258 m 221 742 q 203 699 221 742 q 184 562 184 656 q 221 381 184 467 q 320 233 258 295 q 468 134 382 171 q 648 98 554 98 q 829 134 743 98 q 977 233 915 171 q 1076 381 1039 295 q 1112 562 1112 467 q 1076 742 1112 656 q 977 890 1039 828 q 829 989 915 952 q 648 1025 743 1025 q 468 989 554 1025 q 320 890 382 952 q 221 742 258 828 m 204 304 q 170 363 204 304 q 136 562 136 422 q 204 819 136 701 q 391 1005 273 937 q 648 1074 509 1074 q 905 1005 787 1074 q 1092 819 1023 937 q 1161 562 1161 701 q 1092 304 1161 422 q 905 118 1023 186 q 648 49 787 49 q 391 118 509 49 q 204 304 273 186 m 131 780 q 109 728 131 780 q 87 562 87 675 q 131 343 87 448 q 251 164 176 239 q 430 44 326 89 q 648 0 534 0 q 866 44 762 0 q 1046 164 970 89 q 1165 343 1121 239 q 1210 562 1210 448 q 1165 780 1210 675 q 1046 959 1121 884 q 866 1079 970 1034 q 648 1123 762 1123 q 430 1079 534 1123 q 251 959 326 1034 q 131 780 176 884 m 86 325 q 62 381 86 325 q 38 562 38 437 q 86 799 38 686 q 217 993 135 911 q 411 1123 298 1075 q 648 1172 524 1172 q 885 1123 772 1172 q 1080 993 998 1075 q 1210 799 1162 911 q 1259 562 1259 686 q 1210 325 1259 437 q 1080 130 1162 212 q 885 0 998 48 q 648 -49 772 -49 q 411 0 524 -49 q 217 130 298 48 q 86 325 135 212 z "},"":{"ha":1297,"x_min":38,"x_max":1259,"o":"m 571 1312 l 532 1347 l 985 1568 l 1023 1533 l 571 1312 m 648 1241 l 610 1276 l 1061 1497 l 1101 1461 l 648 1241 m 458 751 q 419 712 458 751 q 380 562 380 673 q 458 372 380 450 q 648 293 537 293 q 838 372 760 293 q 917 562 917 450 q 838 751 917 673 q 648 830 760 830 q 458 751 537 830 m 356 438 q 343 468 356 438 q 331 562 331 497 q 356 685 331 626 q 424 786 381 743 q 525 854 467 829 q 648 879 584 879 q 771 854 713 879 q 873 786 830 829 q 941 685 916 743 q 966 562 966 626 q 941 438 966 497 q 873 337 916 380 q 771 269 830 294 q 648 244 713 244 q 525 269 584 244 q 424 337 467 294 q 356 438 381 380 m 331 745 q 307 703 331 745 q 282 562 282 661 q 331 378 282 462 q 465 244 380 294 q 648 195 549 195 q 832 244 748 195 q 965 378 916 294 q 1015 562 1015 462 q 965 745 1015 661 q 832 879 916 829 q 648 928 748 928 q 465 879 549 928 q 331 745 380 829 m 289 353 q 261 401 289 353 q 233 562 233 449 q 289 770 233 674 q 440 921 345 865 q 648 977 536 977 q 857 921 761 977 q 1008 770 952 865 q 1063 562 1063 674 q 1008 353 1063 449 q 857 202 952 258 q 648 146 761 146 q 440 202 536 146 q 289 353 345 258 m 221 742 q 203 699 221 742 q 184 562 184 656 q 221 381 184 467 q 320 233 258 295 q 468 134 382 171 q 648 98 554 98 q 829 134 743 98 q 977 233 915 171 q 1076 381 1039 295 q 1112 562 1112 467 q 1076 742 1112 656 q 977 890 1039 828 q 829 989 915 952 q 648 1025 743 1025 q 468 989 554 1025 q 320 890 382 952 q 221 742 258 828 m 204 304 q 170 363 204 304 q 136 562 136 422 q 204 819 136 701 q 391 1005 273 937 q 648 1074 509 1074 q 905 1005 787 1074 q 1092 819 1023 937 q 1161 562 1161 701 q 1092 304 1161 422 q 905 118 1023 186 q 648 49 787 49 q 391 118 509 49 q 204 304 273 186 m 131 780 q 109 728 131 780 q 87 562 87 675 q 131 343 87 448 q 251 164 176 239 q 430 44 326 89 q 648 0 534 0 q 866 44 762 0 q 1046 164 970 89 q 1165 343 1121 239 q 1210 562 1210 448 q 1165 780 1210 675 q 1046 959 1121 884 q 866 1079 970 1034 q 648 1123 762 1123 q 430 1079 534 1123 q 251 959 326 1034 q 131 780 176 884 m 86 325 q 62 381 86 325 q 38 562 38 437 q 86 799 38 686 q 217 993 135 911 q 411 1123 298 1075 q 648 1172 524 1172 q 885 1123 772 1172 q 1080 993 998 1075 q 1210 799 1162 911 q 1259 562 1259 686 q 1210 325 1259 437 q 1080 130 1162 212 q 885 0 998 48 q 648 -49 772 -49 q 411 0 524 -49 q 217 130 298 48 q 86 325 135 212 z "},"":{"ha":1297,"x_min":38,"x_max":1259,"o":"m 858 1241 l 727 1572 l 675 1572 l 806 1241 l 858 1241 m 596 1241 l 630 1328 l 602 1390 l 543 1241 l 596 1241 m 491 1241 l 595 1507 l 701 1241 l 753 1241 l 623 1572 l 570 1572 l 439 1241 l 491 1241 m 458 751 q 419 712 458 751 q 380 562 380 673 q 458 372 380 450 q 648 293 537 293 q 838 372 760 293 q 917 562 917 450 q 838 751 917 673 q 648 830 760 830 q 458 751 537 830 m 356 438 q 343 468 356 438 q 331 562 331 497 q 356 685 331 626 q 424 786 381 743 q 525 854 467 829 q 648 879 584 879 q 771 854 713 879 q 873 786 830 829 q 941 685 916 743 q 966 562 966 626 q 941 438 966 497 q 873 337 916 380 q 771 269 830 294 q 648 244 713 244 q 525 269 584 244 q 424 337 467 294 q 356 438 381 380 m 331 745 q 307 703 331 745 q 282 562 282 661 q 331 378 282 462 q 465 244 380 294 q 648 195 549 195 q 832 244 748 195 q 965 378 916 294 q 1015 562 1015 462 q 965 745 1015 661 q 832 879 916 829 q 648 928 748 928 q 465 879 549 928 q 331 745 380 829 m 289 353 q 261 401 289 353 q 233 562 233 449 q 289 770 233 674 q 440 921 345 865 q 648 977 536 977 q 857 921 761 977 q 1008 770 952 865 q 1063 562 1063 674 q 1008 353 1063 449 q 857 202 952 258 q 648 146 761 146 q 440 202 536 146 q 289 353 345 258 m 221 742 q 203 699 221 742 q 184 562 184 656 q 221 381 184 467 q 320 233 258 295 q 468 134 382 171 q 648 98 554 98 q 829 134 743 98 q 977 233 915 171 q 1076 381 1039 295 q 1112 562 1112 467 q 1076 742 1112 656 q 977 890 1039 828 q 829 989 915 952 q 648 1025 743 1025 q 468 989 554 1025 q 320 890 382 952 q 221 742 258 828 m 204 304 q 170 363 204 304 q 136 562 136 422 q 204 819 136 701 q 391 1005 273 937 q 648 1074 509 1074 q 905 1005 787 1074 q 1092 819 1023 937 q 1161 562 1161 701 q 1092 304 1161 422 q 905 118 1023 186 q 648 49 787 49 q 391 118 509 49 q 204 304 273 186 m 131 780 q 109 728 131 780 q 87 562 87 675 q 131 343 87 448 q 251 164 176 239 q 430 44 326 89 q 648 0 534 0 q 866 44 762 0 q 1046 164 970 89 q 1165 343 1121 239 q 1210 562 1210 448 q 1165 780 1210 675 q 1046 959 1121 884 q 866 1079 970 1034 q 648 1123 762 1123 q 430 1079 534 1123 q 251 959 326 1034 q 131 780 176 884 m 86 325 q 62 381 86 325 q 38 562 38 437 q 86 799 38 686 q 217 993 135 911 q 411 1123 298 1075 q 648 1172 524 1172 q 885 1123 772 1172 q 1080 993 998 1075 q 1210 799 1162 911 q 1259 562 1259 686 q 1210 325 1259 437 q 1080 130 1162 212 q 885 0 998 48 q 648 -49 772 -49 q 411 0 524 -49 q 217 130 298 48 q 86 325 135 212 z "},"":{"ha":1297,"x_min":38,"x_max":1259,"o":"m 917 1485 l 966 1485 q 960 1431 966 1455 q 946 1392 954 1407 q 923 1366 937 1377 q 898 1350 909 1356 q 869 1342 886 1345 q 843 1339 852 1339 q 819 1339 834 1339 l 478 1339 q 449 1338 458 1339 q 423 1332 439 1337 q 400 1318 408 1327 q 387 1289 393 1308 q 380 1241 380 1270 l 332 1241 q 337 1295 332 1272 q 352 1334 343 1319 q 374 1360 360 1350 q 400 1376 389 1371 q 428 1384 411 1381 q 454 1387 446 1387 q 478 1388 463 1388 l 819 1388 q 849 1388 839 1388 q 874 1394 859 1389 q 897 1409 890 1399 q 911 1437 905 1418 q 917 1485 917 1457 m 1015 1485 l 1063 1485 q 1058 1413 1063 1446 q 1044 1356 1053 1380 q 1022 1314 1036 1333 q 994 1283 1007 1295 q 961 1263 981 1272 q 926 1251 941 1255 q 889 1244 912 1246 q 853 1241 866 1242 q 819 1241 841 1241 l 478 1241 l 478 1290 l 819 1290 q 852 1290 841 1290 q 883 1292 863 1291 q 913 1297 903 1294 q 940 1308 924 1301 q 965 1324 956 1314 q 985 1348 975 1333 q 1002 1382 996 1363 q 1011 1427 1007 1401 q 1015 1485 1015 1453 m 478 1485 l 819 1485 l 819 1436 l 478 1436 q 445 1436 456 1436 q 414 1434 434 1436 q 384 1429 395 1432 q 357 1419 373 1426 q 332 1402 341 1412 q 312 1378 323 1393 q 296 1344 301 1363 q 287 1299 290 1325 q 283 1241 283 1273 l 234 1241 q 239 1313 234 1280 q 253 1370 245 1346 q 276 1412 261 1394 q 303 1443 290 1431 q 336 1463 316 1455 q 371 1476 357 1472 q 408 1482 385 1480 q 444 1485 431 1485 q 478 1485 456 1485 m 458 751 q 419 712 458 751 q 380 562 380 673 q 458 372 380 450 q 648 293 537 293 q 838 372 760 293 q 917 562 917 450 q 838 751 917 673 q 648 830 760 830 q 458 751 537 830 m 356 438 q 343 468 356 438 q 331 562 331 497 q 356 685 331 626 q 424 786 381 743 q 525 854 467 829 q 648 879 584 879 q 771 854 713 879 q 873 786 830 829 q 941 685 916 743 q 966 562 966 626 q 941 438 966 497 q 873 337 916 380 q 771 269 830 294 q 648 244 713 244 q 525 269 584 244 q 424 337 467 294 q 356 438 381 380 m 331 745 q 307 703 331 745 q 282 562 282 661 q 331 378 282 462 q 465 244 380 294 q 648 195 549 195 q 832 244 748 195 q 965 378 916 294 q 1015 562 1015 462 q 965 745 1015 661 q 832 879 916 829 q 648 928 748 928 q 465 879 549 928 q 331 745 380 829 m 289 353 q 261 401 289 353 q 233 562 233 449 q 289 770 233 674 q 440 921 345 865 q 648 977 536 977 q 857 921 761 977 q 1008 770 952 865 q 1063 562 1063 674 q 1008 353 1063 449 q 857 202 952 258 q 648 146 761 146 q 440 202 536 146 q 289 353 345 258 m 221 742 q 203 699 221 742 q 184 562 184 656 q 221 381 184 467 q 320 233 258 295 q 468 134 382 171 q 648 98 554 98 q 829 134 743 98 q 977 233 915 171 q 1076 381 1039 295 q 1112 562 1112 467 q 1076 742 1112 656 q 977 890 1039 828 q 829 989 915 952 q 648 1025 743 1025 q 468 989 554 1025 q 320 890 382 952 q 221 742 258 828 m 204 304 q 170 363 204 304 q 136 562 136 422 q 204 819 136 701 q 391 1005 273 937 q 648 1074 509 1074 q 905 1005 787 1074 q 1092 819 1023 937 q 1161 562 1161 701 q 1092 304 1161 422 q 905 118 1023 186 q 648 49 787 49 q 391 118 509 49 q 204 304 273 186 m 131 780 q 109 728 131 780 q 87 562 87 675 q 131 343 87 448 q 251 164 176 239 q 430 44 326 89 q 648 0 534 0 q 866 44 762 0 q 1046 164 970 89 q 1165 343 1121 239 q 1210 562 1210 448 q 1165 780 1210 675 q 1046 959 1121 884 q 866 1079 970 1034 q 648 1123 762 1123 q 430 1079 534 1123 q 251 959 326 1034 q 131 780 176 884 m 86 325 q 62 381 86 325 q 38 562 38 437 q 86 799 38 686 q 217 993 135 911 q 411 1123 298 1075 q 648 1172 524 1172 q 885 1123 772 1172 q 1080 993 998 1075 q 1210 799 1162 911 q 1259 562 1259 686 q 1210 325 1259 437 q 1080 130 1162 212 q 885 0 998 48 q 648 -49 772 -49 q 411 0 524 -49 q 217 130 298 48 q 86 325 135 212 z "},"":{"ha":1297,"x_min":38,"x_max":1259,"o":"m 929 1393 l 978 1393 l 978 1241 l 929 1241 l 929 1393 m 831 1393 l 880 1393 l 880 1241 l 831 1241 l 831 1393 m 734 1393 l 783 1393 l 783 1241 l 734 1241 l 734 1393 m 513 1393 l 562 1393 l 562 1241 l 513 1241 l 513 1393 m 415 1393 l 464 1393 l 464 1241 l 415 1241 l 415 1393 m 317 1393 l 366 1393 l 366 1241 l 317 1241 l 317 1393 m 458 751 q 419 712 458 751 q 380 562 380 673 q 458 372 380 450 q 648 293 537 293 q 838 372 760 293 q 917 562 917 450 q 838 751 917 673 q 648 830 760 830 q 458 751 537 830 m 356 438 q 343 468 356 438 q 331 562 331 497 q 356 685 331 626 q 424 786 381 743 q 525 854 467 829 q 648 879 584 879 q 771 854 713 879 q 873 786 830 829 q 941 685 916 743 q 966 562 966 626 q 941 438 966 497 q 873 337 916 380 q 771 269 830 294 q 648 244 713 244 q 525 269 584 244 q 424 337 467 294 q 356 438 381 380 m 331 745 q 307 703 331 745 q 282 562 282 661 q 331 378 282 462 q 465 244 380 294 q 648 195 549 195 q 832 244 748 195 q 965 378 916 294 q 1015 562 1015 462 q 965 745 1015 661 q 832 879 916 829 q 648 928 748 928 q 465 879 549 928 q 331 745 380 829 m 289 353 q 261 401 289 353 q 233 562 233 449 q 289 770 233 674 q 440 921 345 865 q 648 977 536 977 q 857 921 761 977 q 1008 770 952 865 q 1063 562 1063 674 q 1008 353 1063 449 q 857 202 952 258 q 648 146 761 146 q 440 202 536 146 q 289 353 345 258 m 221 742 q 203 699 221 742 q 184 562 184 656 q 221 381 184 467 q 320 233 258 295 q 468 134 382 171 q 648 98 554 98 q 829 134 743 98 q 977 233 915 171 q 1076 381 1039 295 q 1112 562 1112 467 q 1076 742 1112 656 q 977 890 1039 828 q 829 989 915 952 q 648 1025 743 1025 q 468 989 554 1025 q 320 890 382 952 q 221 742 258 828 m 204 304 q 170 363 204 304 q 136 562 136 422 q 204 819 136 701 q 391 1005 273 937 q 648 1074 509 1074 q 905 1005 787 1074 q 1092 819 1023 937 q 1161 562 1161 701 q 1092 304 1161 422 q 905 118 1023 186 q 648 49 787 49 q 391 118 509 49 q 204 304 273 186 m 131 780 q 109 728 131 780 q 87 562 87 675 q 131 343 87 448 q 251 164 176 239 q 430 44 326 89 q 648 0 534 0 q 866 44 762 0 q 1046 164 970 89 q 1165 343 1121 239 q 1210 562 1210 448 q 1165 780 1210 675 q 1046 959 1121 884 q 866 1079 970 1034 q 648 1123 762 1123 q 430 1079 534 1123 q 251 959 326 1034 q 131 780 176 884 m 86 325 q 62 381 86 325 q 38 562 38 437 q 86 799 38 686 q 217 993 135 911 q 411 1123 298 1075 q 648 1172 524 1172 q 885 1123 772 1172 q 1080 993 998 1075 q 1210 799 1162 911 q 1259 562 1259 686 q 1210 325 1259 437 q 1080 130 1162 212 q 885 0 998 48 q 648 -49 772 -49 q 411 0 524 -49 q 217 130 298 48 q 86 325 135 212 z "},"":{"ha":1097,"x_min":26,"x_max":1071,"o":"m 1011 977 l 1071 977 l 448 0 l 387 0 l 1011 977 m 890 977 l 950 977 l 327 0 l 267 0 l 890 977 m 770 977 l 830 977 l 207 0 l 146 0 l 770 977 m 649 977 l 710 977 l 86 0 l 26 0 l 649 977 m 351 562 l 321 515 l 26 977 l 86 977 l 351 562 m 564 134 l 594 181 l 710 0 l 649 0 l 564 134 m 411 656 l 381 610 l 147 977 l 207 977 l 411 656 m 625 229 l 654 275 l 830 0 l 770 0 l 625 229 m 471 751 l 441 704 l 267 977 l 328 977 l 471 751 m 684 323 l 715 370 l 951 0 l 890 0 l 684 323 m 532 846 l 501 798 l 387 977 l 448 977 l 532 846 m 745 417 l 775 464 l 1071 0 l 1011 0 l 745 417 z "},"":{"ha":1304,"x_min":37,"x_max":1258,"o":"m 458 751 q 418 712 458 751 q 379 562 379 673 q 458 372 379 450 q 648 293 536 293 q 838 372 759 293 q 916 562 916 450 q 838 751 916 673 q 648 830 759 830 q 458 751 536 830 m 355 438 q 343 468 355 438 q 330 562 330 497 q 355 685 330 626 q 423 786 380 743 q 525 854 466 829 q 648 879 583 879 q 771 854 712 879 q 872 786 829 829 q 940 685 915 743 q 965 562 965 626 q 940 438 965 497 q 872 337 915 380 q 771 269 829 294 q 648 244 712 244 q 525 269 583 244 q 423 337 466 294 q 355 438 380 380 m 331 745 q 306 703 331 745 q 281 562 281 661 q 331 378 281 462 q 464 244 380 294 q 648 195 548 195 q 831 244 747 195 q 965 378 916 294 q 1014 562 1014 462 q 965 745 1014 661 q 831 879 916 829 q 648 928 747 928 q 464 879 548 928 q 331 745 380 829 m 288 353 q 260 401 288 353 q 233 562 233 449 q 288 770 233 674 q 439 921 344 865 q 648 977 535 977 q 856 921 760 977 q 1007 770 951 865 q 1063 562 1063 674 q 1007 353 1063 449 q 856 202 951 258 q 648 146 760 146 q 439 202 535 146 q 288 353 344 258 m 220 742 q 202 699 220 742 q 184 562 184 656 q 220 381 184 467 q 319 233 257 295 q 467 134 381 171 q 648 98 553 98 q 828 134 742 98 q 976 233 914 171 q 1075 381 1038 295 q 1112 562 1112 467 q 1075 742 1112 656 q 976 890 1038 828 q 828 989 914 952 q 648 1025 742 1025 q 467 989 553 1025 q 319 890 381 952 q 220 742 257 828 m 204 304 q 169 363 204 304 q 135 562 135 422 q 204 819 135 701 q 391 1005 273 937 q 648 1074 509 1074 q 905 1005 787 1074 q 1092 819 1023 937 q 1160 562 1160 701 q 1092 304 1160 422 q 905 118 1023 186 q 648 49 787 49 q 391 118 509 49 q 204 304 273 186 m 131 780 q 108 728 131 780 q 86 562 86 675 q 131 343 86 448 q 250 164 175 239 q 430 44 326 89 q 648 0 534 0 q 866 44 762 0 q 1045 164 970 89 q 1165 343 1120 239 q 1209 562 1209 448 q 1165 780 1209 675 q 1045 959 1120 884 q 866 1079 970 1034 q 648 1123 762 1123 q 430 1079 534 1123 q 250 959 326 1034 q 131 780 175 884 m 86 325 q 62 381 86 325 q 37 562 37 437 q 86 799 37 686 q 216 993 134 911 q 411 1123 298 1075 q 648 1172 524 1172 q 885 1123 772 1172 q 1079 993 998 1075 q 1210 799 1161 911 q 1258 562 1258 686 q 1210 325 1258 437 q 1079 130 1161 212 q 885 0 998 48 q 648 -49 772 -49 q 411 0 524 -49 q 216 130 298 48 q 86 325 134 212 m 1043 1059 l 1003 1088 l 1078 1231 l 1121 1208 l 1043 1059 m 419 -35 l 467 -50 l 377 -222 l 334 -200 l 419 -35 m 964 1118 l 920 1140 l 991 1276 l 1034 1253 l 964 1118 m 332 7 l 375 -16 l 291 -178 l 248 -155 l 332 7 m 875 1159 l 827 1174 l 904 1321 l 947 1299 l 875 1159 m 248 59 l 288 30 l 204 -132 l 161 -110 l 248 59 z "},"":{"ha":1257,"x_min":56,"x_max":1196,"o":"m 703 1312 l 741 1347 l 289 1568 l 251 1533 l 703 1312 m 625 1241 l 664 1276 l 212 1497 l 173 1461 l 625 1241 m 854 494 l 854 1123 l 903 1123 l 903 494 q 821 317 903 391 q 626 244 740 244 q 431 317 512 244 q 349 494 349 391 l 349 1123 l 398 1123 l 398 494 q 465 352 398 411 q 626 293 532 293 q 787 352 720 293 q 854 494 854 411 m 951 494 l 951 1123 l 1000 1123 l 1000 494 q 970 359 1000 423 q 890 248 941 295 q 771 174 840 201 q 626 146 702 146 q 481 174 550 146 q 361 248 412 201 q 281 359 311 295 q 252 494 252 423 l 252 1123 l 300 1123 l 300 494 q 344 344 300 413 q 463 235 388 275 q 626 195 538 195 q 789 235 714 195 q 908 344 864 275 q 951 494 951 413 m 1049 494 l 1049 1123 l 1098 1123 l 1098 494 q 1060 321 1098 404 q 960 179 1023 239 q 809 84 897 119 q 626 49 722 49 q 443 84 530 49 q 292 179 355 119 q 192 321 229 239 q 154 494 154 404 l 154 1123 l 203 1123 l 203 494 q 260 295 203 387 q 414 151 317 204 q 626 98 511 98 q 838 151 741 98 q 992 295 935 204 q 1049 494 1049 387 m 1147 494 l 1147 1123 l 1196 1123 l 1196 494 q 1119 222 1196 347 q 911 24 1042 97 q 626 -49 780 -49 q 341 24 472 -49 q 133 222 210 97 q 56 494 56 347 l 56 1123 l 105 1123 l 105 494 q 146 302 105 394 q 258 145 188 211 q 424 39 328 79 q 626 0 521 0 q 828 39 731 0 q 994 145 924 79 q 1105 302 1064 211 q 1147 494 1147 394 z "},"":{"ha":1257,"x_min":56,"x_max":1196,"o":"m 549 1312 l 510 1347 l 962 1568 l 1001 1533 l 549 1312 m 626 1241 l 587 1276 l 1039 1497 l 1078 1461 l 626 1241 m 854 494 l 854 1123 l 903 1123 l 903 494 q 821 317 903 391 q 626 244 740 244 q 431 317 512 244 q 349 494 349 391 l 349 1123 l 398 1123 l 398 494 q 465 352 398 411 q 626 293 532 293 q 787 352 720 293 q 854 494 854 411 m 951 494 l 951 1123 l 1000 1123 l 1000 494 q 970 359 1000 423 q 890 248 941 295 q 771 174 840 201 q 626 146 702 146 q 481 174 550 146 q 361 248 412 201 q 281 359 311 295 q 252 494 252 423 l 252 1123 l 300 1123 l 300 494 q 344 344 300 413 q 463 235 388 275 q 626 195 538 195 q 789 235 714 195 q 908 344 864 275 q 951 494 951 413 m 1049 494 l 1049 1123 l 1098 1123 l 1098 494 q 1060 321 1098 404 q 960 179 1023 239 q 809 84 897 119 q 626 49 722 49 q 443 84 530 49 q 292 179 355 119 q 192 321 229 239 q 154 494 154 404 l 154 1123 l 203 1123 l 203 494 q 260 295 203 387 q 414 151 317 204 q 626 98 511 98 q 838 151 741 98 q 992 295 935 204 q 1049 494 1049 387 m 1147 494 l 1147 1123 l 1196 1123 l 1196 494 q 1119 222 1196 347 q 911 24 1042 97 q 626 -49 780 -49 q 341 24 472 -49 q 133 222 210 97 q 56 494 56 347 l 56 1123 l 105 1123 l 105 494 q 146 302 105 394 q 258 145 188 211 q 424 39 328 79 q 626 0 521 0 q 828 39 731 0 q 994 145 924 79 q 1105 302 1064 211 q 1147 494 1147 394 z "},"":{"ha":1257,"x_min":56,"x_max":1196,"o":"m 836 1241 l 705 1572 l 652 1572 l 783 1241 l 836 1241 m 574 1241 l 608 1328 l 580 1390 l 521 1241 l 574 1241 m 469 1241 l 573 1507 l 678 1241 l 731 1241 l 600 1572 l 547 1572 l 416 1241 l 469 1241 m 854 494 l 854 1123 l 903 1123 l 903 494 q 821 317 903 391 q 626 244 740 244 q 431 317 512 244 q 349 494 349 391 l 349 1123 l 398 1123 l 398 494 q 465 352 398 411 q 626 293 532 293 q 787 352 720 293 q 854 494 854 411 m 951 494 l 951 1123 l 1000 1123 l 1000 494 q 970 359 1000 423 q 890 248 941 295 q 771 174 840 201 q 626 146 702 146 q 481 174 550 146 q 361 248 412 201 q 281 359 311 295 q 252 494 252 423 l 252 1123 l 300 1123 l 300 494 q 344 344 300 413 q 463 235 388 275 q 626 195 538 195 q 789 235 714 195 q 908 344 864 275 q 951 494 951 413 m 1049 494 l 1049 1123 l 1098 1123 l 1098 494 q 1060 321 1098 404 q 960 179 1023 239 q 809 84 897 119 q 626 49 722 49 q 443 84 530 49 q 292 179 355 119 q 192 321 229 239 q 154 494 154 404 l 154 1123 l 203 1123 l 203 494 q 260 295 203 387 q 414 151 317 204 q 626 98 511 98 q 838 151 741 98 q 992 295 935 204 q 1049 494 1049 387 m 1147 494 l 1147 1123 l 1196 1123 l 1196 494 q 1119 222 1196 347 q 911 24 1042 97 q 626 -49 780 -49 q 341 24 472 -49 q 133 222 210 97 q 56 494 56 347 l 56 1123 l 105 1123 l 105 494 q 146 302 105 394 q 258 145 188 211 q 424 39 328 79 q 626 0 521 0 q 828 39 731 0 q 994 145 924 79 q 1105 302 1064 211 q 1147 494 1147 394 z "},"":{"ha":1257,"x_min":56,"x_max":1196,"o":"m 907 1393 l 956 1393 l 956 1241 l 907 1241 l 907 1393 m 809 1393 l 858 1393 l 858 1241 l 809 1241 l 809 1393 m 711 1393 l 760 1393 l 760 1241 l 711 1241 l 711 1393 m 490 1393 l 539 1393 l 539 1241 l 490 1241 l 490 1393 m 393 1393 l 441 1393 l 441 1241 l 393 1241 l 393 1393 m 295 1393 l 344 1393 l 344 1241 l 295 1241 l 295 1393 m 854 494 l 854 1123 l 903 1123 l 903 494 q 821 317 903 391 q 626 244 740 244 q 431 317 512 244 q 349 494 349 391 l 349 1123 l 398 1123 l 398 494 q 465 352 398 411 q 626 293 532 293 q 787 352 720 293 q 854 494 854 411 m 951 494 l 951 1123 l 1000 1123 l 1000 494 q 970 359 1000 423 q 890 248 941 295 q 771 174 840 201 q 626 146 702 146 q 481 174 550 146 q 361 248 412 201 q 281 359 311 295 q 252 494 252 423 l 252 1123 l 300 1123 l 300 494 q 344 344 300 413 q 463 235 388 275 q 626 195 538 195 q 789 235 714 195 q 908 344 864 275 q 951 494 951 413 m 1049 494 l 1049 1123 l 1098 1123 l 1098 494 q 1060 321 1098 404 q 960 179 1023 239 q 809 84 897 119 q 626 49 722 49 q 443 84 530 49 q 292 179 355 119 q 192 321 229 239 q 154 494 154 404 l 154 1123 l 203 1123 l 203 494 q 260 295 203 387 q 414 151 317 204 q 626 98 511 98 q 838 151 741 98 q 992 295 935 204 q 1049 494 1049 387 m 1147 494 l 1147 1123 l 1196 1123 l 1196 494 q 1119 222 1196 347 q 911 24 1042 97 q 626 -49 780 -49 q 341 24 472 -49 q 133 222 210 97 q 56 494 56 347 l 56 1123 l 105 1123 l 105 494 q 146 302 105 394 q 258 145 188 211 q 424 39 328 79 q 626 0 521 0 q 828 39 731 0 q 994 145 924 79 q 1105 302 1064 211 q 1147 494 1147 394 z "},"":{"ha":1096,"x_min":24,"x_max":1072,"o":"m 471 1312 l 432 1347 l 884 1568 l 923 1533 l 471 1312 m 548 1241 l 509 1276 l 961 1497 l 1000 1461 l 548 1241 m 439 565 l 414 511 l 121 1123 l 170 1123 l 439 565 m 488 672 l 463 618 l 219 1123 l 268 1123 l 488 672 m 536 779 l 512 725 l 317 1123 l 366 1123 l 536 779 m 475 378 l 828 1123 l 877 1123 l 524 378 l 524 0 l 475 0 l 475 378 m 572 378 l 926 1123 l 975 1123 l 621 378 l 621 0 l 572 0 l 572 378 m 670 378 l 1023 1123 l 1072 1123 l 719 378 l 719 0 l 670 0 l 670 378 m 401 430 l 730 1123 l 779 1123 l 426 378 l 426 0 l 377 0 l 377 378 l 24 1123 l 73 1123 l 401 430 z "},"":{"ha":1109,"x_min":64,"x_max":1063,"o":"m 428 379 l 428 429 q 580 423 475 423 q 679 465 637 423 q 721 564 721 506 q 680 664 721 623 q 580 705 638 705 q 406 698 505 705 l 406 -98 l 357 -98 l 357 1172 l 406 1172 l 406 1044 q 580 1047 514 1047 q 767 1009 677 1047 q 921 906 857 970 q 1024 751 986 841 q 1063 564 1063 662 q 1024 377 1063 467 q 921 223 986 288 q 767 120 857 158 q 580 81 677 81 q 428 83 475 81 l 428 132 q 580 130 498 130 q 797 189 697 130 q 956 347 897 247 q 1014 564 1014 447 q 979 733 1014 652 q 886 871 945 813 q 748 964 828 929 q 580 998 667 998 q 406 995 541 998 l 406 946 q 580 949 496 949 q 772 898 684 949 q 913 757 861 846 q 965 564 965 668 q 913 372 965 460 q 773 231 862 283 q 580 179 684 179 q 428 181 475 179 l 428 231 q 580 228 490 228 q 748 273 671 228 q 871 396 826 318 q 916 564 916 473 q 871 733 916 655 q 748 856 825 810 q 580 901 671 901 q 406 897 514 901 l 406 848 q 580 852 514 852 q 783 767 699 852 q 867 564 867 683 q 783 361 867 446 q 580 277 699 277 q 428 279 490 277 l 428 329 q 580 326 486 326 q 748 395 678 326 q 819 564 819 465 q 748 733 819 663 q 580 803 678 803 q 406 798 481 803 l 406 749 q 580 754 460 754 q 714 699 658 754 q 770 564 770 643 q 714 430 770 486 q 580 374 658 374 q 428 379 494 374 m 259 1172 l 308 1172 l 308 -98 l 259 -98 l 259 1172 m 161 1172 l 210 1172 l 210 -98 l 161 -98 l 161 1172 m 64 1172 l 113 1172 l 113 -98 l 64 -98 l 64 1172 z "},"":{"ha":1147,"x_min":58,"x_max":1105,"o":"m 463 879 l 674 879 q 753 851 720 879 q 785 781 785 823 q 755 700 785 725 q 674 675 724 675 l 427 675 l 427 724 l 674 724 q 736 781 736 724 q 719 817 736 804 q 674 830 701 830 l 463 830 q 418 817 435 830 q 400 781 400 804 l 400 -98 l 351 -98 l 351 781 q 384 851 351 823 q 463 879 416 879 m 764 412 q 741 470 764 455 q 674 484 719 484 l 427 484 l 427 533 l 674 533 q 812 412 812 533 q 774 321 812 349 q 674 293 736 293 l 427 293 l 427 342 l 674 342 q 740 357 717 342 q 764 412 764 373 m 674 928 l 463 928 q 351 884 399 928 q 302 781 302 840 l 302 -98 l 254 -98 l 254 781 q 316 918 254 859 q 463 977 379 977 l 674 977 q 820 918 758 977 q 883 781 883 859 q 854 673 883 719 q 777 602 825 627 q 910 418 910 557 q 841 257 910 318 q 674 195 772 195 l 427 195 l 427 244 l 674 244 q 807 290 752 244 q 861 418 861 336 q 819 525 861 479 q 695 578 777 570 q 674 578 688 578 l 427 578 l 427 627 l 674 627 q 788 667 741 627 q 834 781 834 707 q 786 884 834 840 q 674 928 737 928 m 674 1025 l 463 1025 q 282 952 359 1025 q 205 781 205 880 l 205 -98 l 156 -98 l 156 781 q 198 927 156 859 q 311 1035 240 995 q 463 1074 382 1074 l 674 1074 q 826 1035 755 1074 q 939 927 897 995 q 981 781 981 859 q 913 609 981 686 q 1008 418 1008 520 q 961 254 1008 328 q 839 139 915 180 q 674 98 762 98 l 427 98 l 427 146 l 674 146 q 814 180 749 146 q 919 277 879 214 q 959 418 959 340 q 932 522 959 465 q 857 607 905 578 q 932 781 932 677 q 854 952 932 880 q 674 1025 777 1025 m 674 1123 l 463 1123 q 286 1077 368 1123 q 156 951 204 1030 q 107 781 107 872 l 107 -98 l 58 -98 l 58 781 q 114 976 58 885 q 262 1119 169 1066 q 463 1172 355 1172 l 674 1172 q 874 1119 781 1172 q 1023 976 968 1066 q 1078 781 1078 885 q 1022 606 1078 681 q 1105 418 1105 513 q 1045 196 1105 292 q 888 50 985 99 q 674 0 791 0 l 427 0 l 427 49 l 674 49 q 864 97 776 49 q 1004 230 951 144 q 1057 418 1057 315 q 1034 511 1057 456 q 969 606 1012 566 q 1029 781 1029 687 q 981 951 1029 872 q 850 1077 932 1030 q 674 1123 768 1123 z "},"":{"ha":1156,"x_min":37,"x_max":1098,"o":"m 637 1165 l 676 1200 l 224 1421 l 186 1386 l 637 1165 m 560 1095 l 599 1130 l 147 1351 l 108 1315 l 560 1095 m 756 481 q 703 616 756 568 q 561 663 649 663 q 433 612 486 663 q 379 488 379 560 q 390 415 379 448 q 419 362 401 383 q 464 327 438 340 q 518 307 490 313 q 578 300 546 300 q 719 338 655 300 l 719 290 q 577 255 653 255 q 485 268 528 255 q 407 308 442 281 q 351 381 372 335 q 330 488 330 428 q 396 647 330 582 q 561 712 462 712 q 738 651 670 712 q 805 481 805 589 l 805 0 l 756 0 l 756 481 m 903 481 l 903 0 l 854 0 l 854 481 q 772 685 854 610 q 561 761 690 761 q 361 682 441 761 q 281 488 281 602 q 306 364 281 419 q 371 276 330 309 q 464 225 412 243 q 572 208 515 208 q 719 244 649 208 l 719 193 q 571 162 646 162 q 444 183 504 162 q 336 243 383 203 q 260 346 288 283 q 233 488 233 410 q 327 716 233 622 q 561 810 422 810 q 736 770 659 810 q 858 655 813 730 q 903 481 903 580 m 1000 481 l 1000 0 l 951 0 l 951 481 q 900 680 951 593 q 760 812 849 766 q 561 859 671 859 q 369 809 456 859 q 233 674 282 759 q 184 488 184 589 q 216 330 184 401 q 301 212 248 258 q 424 141 355 166 q 568 115 493 115 q 719 147 645 115 l 719 98 q 567 68 642 68 q 351 121 450 68 q 194 271 253 174 q 135 488 135 368 q 168 651 135 574 q 257 785 201 728 q 393 874 313 841 q 561 907 472 907 q 785 854 685 907 q 943 704 885 802 q 1000 481 1000 606 m 1098 481 l 1098 0 l 1049 0 l 1049 481 q 985 729 1049 620 q 809 897 920 838 q 561 956 698 956 q 320 893 429 956 q 149 723 211 830 q 86 488 86 615 q 113 330 86 405 q 186 199 140 255 q 293 102 233 143 q 424 41 354 62 q 567 20 494 20 q 719 50 647 20 l 719 0 q 564 -26 644 -26 q 405 -3 482 -26 q 261 65 327 20 q 144 171 195 110 q 66 315 94 233 q 37 488 37 397 q 77 689 37 593 q 185 853 117 784 q 352 964 254 923 q 561 1005 450 1005 q 772 967 673 1005 q 943 862 871 929 q 1057 696 1015 794 q 1098 481 1098 597 z "},"":{"ha":1156,"x_min":37,"x_max":1098,"o":"m 484 1165 l 445 1200 l 897 1421 l 936 1386 l 484 1165 m 561 1095 l 522 1130 l 974 1351 l 1013 1315 l 561 1095 m 756 481 q 703 616 756 568 q 561 663 649 663 q 433 612 486 663 q 379 488 379 560 q 390 415 379 448 q 419 362 401 383 q 464 327 438 340 q 518 307 490 313 q 578 300 546 300 q 719 338 655 300 l 719 290 q 577 255 653 255 q 485 268 528 255 q 407 308 442 281 q 351 381 372 335 q 330 488 330 428 q 396 647 330 582 q 561 712 462 712 q 738 651 670 712 q 805 481 805 589 l 805 0 l 756 0 l 756 481 m 903 481 l 903 0 l 854 0 l 854 481 q 772 685 854 610 q 561 761 690 761 q 361 682 441 761 q 281 488 281 602 q 306 364 281 419 q 371 276 330 309 q 464 225 412 243 q 572 208 515 208 q 719 244 649 208 l 719 193 q 571 162 646 162 q 444 183 504 162 q 336 243 383 203 q 260 346 288 283 q 233 488 233 410 q 327 716 233 622 q 561 810 422 810 q 736 770 659 810 q 858 655 813 730 q 903 481 903 580 m 1000 481 l 1000 0 l 951 0 l 951 481 q 900 680 951 593 q 760 812 849 766 q 561 859 671 859 q 369 809 456 859 q 233 674 282 759 q 184 488 184 589 q 216 330 184 401 q 301 212 248 258 q 424 141 355 166 q 568 115 493 115 q 719 147 645 115 l 719 98 q 567 68 642 68 q 351 121 450 68 q 194 271 253 174 q 135 488 135 368 q 168 651 135 574 q 257 785 201 728 q 393 874 313 841 q 561 907 472 907 q 785 854 685 907 q 943 704 885 802 q 1000 481 1000 606 m 1098 481 l 1098 0 l 1049 0 l 1049 481 q 985 729 1049 620 q 809 897 920 838 q 561 956 698 956 q 320 893 429 956 q 149 723 211 830 q 86 488 86 615 q 113 330 86 405 q 186 199 140 255 q 293 102 233 143 q 424 41 354 62 q 567 20 494 20 q 719 50 647 20 l 719 0 q 564 -26 644 -26 q 405 -3 482 -26 q 261 65 327 20 q 144 171 195 110 q 66 315 94 233 q 37 488 37 397 q 77 689 37 593 q 185 853 117 784 q 352 964 254 923 q 561 1005 450 1005 q 772 967 673 1005 q 943 862 871 929 q 1057 696 1015 794 q 1098 481 1098 597 z "},"":{"ha":1156,"x_min":37,"x_max":1098,"o":"m 770 1095 l 640 1426 l 587 1426 l 718 1095 l 770 1095 m 509 1095 l 543 1181 l 515 1244 l 456 1095 l 509 1095 m 404 1095 l 508 1360 l 613 1095 l 666 1095 l 535 1426 l 482 1426 l 351 1095 l 404 1095 m 756 481 q 703 616 756 568 q 561 663 649 663 q 433 612 486 663 q 379 488 379 560 q 390 415 379 448 q 419 362 401 383 q 464 327 438 340 q 518 307 490 313 q 578 300 546 300 q 719 338 655 300 l 719 290 q 577 255 653 255 q 485 268 528 255 q 407 308 442 281 q 351 381 372 335 q 330 488 330 428 q 396 647 330 582 q 561 712 462 712 q 738 651 670 712 q 805 481 805 589 l 805 0 l 756 0 l 756 481 m 903 481 l 903 0 l 854 0 l 854 481 q 772 685 854 610 q 561 761 690 761 q 361 682 441 761 q 281 488 281 602 q 306 364 281 419 q 371 276 330 309 q 464 225 412 243 q 572 208 515 208 q 719 244 649 208 l 719 193 q 571 162 646 162 q 444 183 504 162 q 336 243 383 203 q 260 346 288 283 q 233 488 233 410 q 327 716 233 622 q 561 810 422 810 q 736 770 659 810 q 858 655 813 730 q 903 481 903 580 m 1000 481 l 1000 0 l 951 0 l 951 481 q 900 680 951 593 q 760 812 849 766 q 561 859 671 859 q 369 809 456 859 q 233 674 282 759 q 184 488 184 589 q 216 330 184 401 q 301 212 248 258 q 424 141 355 166 q 568 115 493 115 q 719 147 645 115 l 719 98 q 567 68 642 68 q 351 121 450 68 q 194 271 253 174 q 135 488 135 368 q 168 651 135 574 q 257 785 201 728 q 393 874 313 841 q 561 907 472 907 q 785 854 685 907 q 943 704 885 802 q 1000 481 1000 606 m 1098 481 l 1098 0 l 1049 0 l 1049 481 q 985 729 1049 620 q 809 897 920 838 q 561 956 698 956 q 320 893 429 956 q 149 723 211 830 q 86 488 86 615 q 113 330 86 405 q 186 199 140 255 q 293 102 233 143 q 424 41 354 62 q 567 20 494 20 q 719 50 647 20 l 719 0 q 564 -26 644 -26 q 405 -3 482 -26 q 261 65 327 20 q 144 171 195 110 q 66 315 94 233 q 37 488 37 397 q 77 689 37 593 q 185 853 117 784 q 352 964 254 923 q 561 1005 450 1005 q 772 967 673 1005 q 943 862 871 929 q 1057 696 1015 794 q 1098 481 1098 597 z "},"":{"ha":1156,"x_min":37,"x_max":1098,"o":"m 829 1339 l 878 1339 q 872 1284 878 1308 q 858 1245 866 1261 q 835 1220 849 1230 q 809 1204 821 1209 q 781 1196 798 1198 q 755 1193 764 1193 q 731 1192 746 1192 l 390 1192 q 360 1192 370 1192 q 335 1186 351 1191 q 312 1171 319 1181 q 298 1142 304 1162 q 292 1095 292 1123 l 243 1095 q 249 1149 243 1125 q 263 1188 255 1173 q 286 1214 272 1203 q 312 1230 300 1224 q 340 1238 323 1235 q 366 1241 357 1240 q 390 1241 375 1241 l 731 1241 q 761 1242 751 1241 q 786 1247 770 1242 q 809 1262 802 1253 q 823 1291 817 1272 q 829 1339 829 1310 m 926 1339 l 975 1339 q 970 1266 975 1299 q 956 1210 964 1234 q 933 1167 948 1186 q 906 1137 919 1149 q 873 1117 893 1125 q 838 1104 852 1108 q 801 1098 824 1100 q 765 1095 778 1095 q 731 1095 753 1095 l 390 1095 l 390 1143 l 731 1143 q 764 1144 753 1143 q 795 1146 775 1144 q 825 1151 814 1147 q 852 1161 836 1154 q 877 1177 868 1168 q 897 1202 886 1187 q 913 1236 908 1217 q 923 1281 919 1255 q 926 1339 926 1307 m 390 1339 l 731 1339 l 731 1290 l 390 1290 q 357 1290 368 1290 q 326 1288 346 1289 q 296 1282 307 1286 q 269 1272 285 1279 q 244 1256 253 1265 q 224 1232 235 1246 q 208 1198 213 1217 q 198 1153 202 1179 q 195 1095 195 1126 l 146 1095 q 151 1167 146 1134 q 165 1223 157 1200 q 188 1266 173 1247 q 215 1296 202 1284 q 248 1317 228 1308 q 283 1329 269 1325 q 320 1336 297 1333 q 356 1338 343 1338 q 390 1339 368 1339 m 756 481 q 703 616 756 568 q 561 663 649 663 q 433 612 486 663 q 379 488 379 560 q 390 415 379 448 q 419 362 401 383 q 464 327 438 340 q 518 307 490 313 q 578 300 546 300 q 719 338 655 300 l 719 290 q 577 255 653 255 q 485 268 528 255 q 407 308 442 281 q 351 381 372 335 q 330 488 330 428 q 396 647 330 582 q 561 712 462 712 q 738 651 670 712 q 805 481 805 589 l 805 0 l 756 0 l 756 481 m 903 481 l 903 0 l 854 0 l 854 481 q 772 685 854 610 q 561 761 690 761 q 361 682 441 761 q 281 488 281 602 q 306 364 281 419 q 371 276 330 309 q 464 225 412 243 q 572 208 515 208 q 719 244 649 208 l 719 193 q 571 162 646 162 q 444 183 504 162 q 336 243 383 203 q 260 346 288 283 q 233 488 233 410 q 327 716 233 622 q 561 810 422 810 q 736 770 659 810 q 858 655 813 730 q 903 481 903 580 m 1000 481 l 1000 0 l 951 0 l 951 481 q 900 680 951 593 q 760 812 849 766 q 561 859 671 859 q 369 809 456 859 q 233 674 282 759 q 184 488 184 589 q 216 330 184 401 q 301 212 248 258 q 424 141 355 166 q 568 115 493 115 q 719 147 645 115 l 719 98 q 567 68 642 68 q 351 121 450 68 q 194 271 253 174 q 135 488 135 368 q 168 651 135 574 q 257 785 201 728 q 393 874 313 841 q 561 907 472 907 q 785 854 685 907 q 943 704 885 802 q 1000 481 1000 606 m 1098 481 l 1098 0 l 1049 0 l 1049 481 q 985 729 1049 620 q 809 897 920 838 q 561 956 698 956 q 320 893 429 956 q 149 723 211 830 q 86 488 86 615 q 113 330 86 405 q 186 199 140 255 q 293 102 233 143 q 424 41 354 62 q 567 20 494 20 q 719 50 647 20 l 719 0 q 564 -26 644 -26 q 405 -3 482 -26 q 261 65 327 20 q 144 171 195 110 q 66 315 94 233 q 37 488 37 397 q 77 689 37 593 q 185 853 117 784 q 352 964 254 923 q 561 1005 450 1005 q 772 967 673 1005 q 943 862 871 929 q 1057 696 1015 794 q 1098 481 1098 597 z "},"":{"ha":1156,"x_min":37,"x_max":1098,"o":"m 842 1246 l 890 1246 l 890 1095 l 842 1095 l 842 1246 m 744 1246 l 793 1246 l 793 1095 l 744 1095 l 744 1246 m 646 1246 l 695 1246 l 695 1095 l 646 1095 l 646 1246 m 425 1246 l 474 1246 l 474 1095 l 425 1095 l 425 1246 m 328 1246 l 376 1246 l 376 1095 l 328 1095 l 328 1246 m 230 1246 l 279 1246 l 279 1095 l 230 1095 l 230 1246 m 756 481 q 703 616 756 568 q 561 663 649 663 q 433 612 486 663 q 379 488 379 560 q 390 415 379 448 q 419 362 401 383 q 464 327 438 340 q 518 307 490 313 q 578 300 546 300 q 719 338 655 300 l 719 290 q 577 255 653 255 q 485 268 528 255 q 407 308 442 281 q 351 381 372 335 q 330 488 330 428 q 396 647 330 582 q 561 712 462 712 q 738 651 670 712 q 805 481 805 589 l 805 0 l 756 0 l 756 481 m 903 481 l 903 0 l 854 0 l 854 481 q 772 685 854 610 q 561 761 690 761 q 361 682 441 761 q 281 488 281 602 q 306 364 281 419 q 371 276 330 309 q 464 225 412 243 q 572 208 515 208 q 719 244 649 208 l 719 193 q 571 162 646 162 q 444 183 504 162 q 336 243 383 203 q 260 346 288 283 q 233 488 233 410 q 327 716 233 622 q 561 810 422 810 q 736 770 659 810 q 858 655 813 730 q 903 481 903 580 m 1000 481 l 1000 0 l 951 0 l 951 481 q 900 680 951 593 q 760 812 849 766 q 561 859 671 859 q 369 809 456 859 q 233 674 282 759 q 184 488 184 589 q 216 330 184 401 q 301 212 248 258 q 424 141 355 166 q 568 115 493 115 q 719 147 645 115 l 719 98 q 567 68 642 68 q 351 121 450 68 q 194 271 253 174 q 135 488 135 368 q 168 651 135 574 q 257 785 201 728 q 393 874 313 841 q 561 907 472 907 q 785 854 685 907 q 943 704 885 802 q 1000 481 1000 606 m 1098 481 l 1098 0 l 1049 0 l 1049 481 q 985 729 1049 620 q 809 897 920 838 q 561 956 698 956 q 320 893 429 956 q 149 723 211 830 q 86 488 86 615 q 113 330 86 405 q 186 199 140 255 q 293 102 233 143 q 424 41 354 62 q 567 20 494 20 q 719 50 647 20 l 719 0 q 564 -26 644 -26 q 405 -3 482 -26 q 261 65 327 20 q 144 171 195 110 q 66 315 94 233 q 37 488 37 397 q 77 689 37 593 q 185 853 117 784 q 352 964 254 923 q 561 1005 450 1005 q 772 967 673 1005 q 943 862 871 929 q 1057 696 1015 794 q 1098 481 1098 597 z "},"":{"ha":1156,"x_min":37,"x_max":1098,"o":"m 466 1378 q 444 1357 466 1378 q 423 1276 423 1336 q 466 1174 423 1217 q 568 1132 508 1132 q 670 1174 627 1132 q 712 1276 712 1217 q 670 1378 712 1336 q 568 1421 627 1421 q 466 1378 508 1421 m 437 1147 q 410 1174 437 1147 q 383 1276 383 1200 q 437 1405 383 1352 q 568 1458 491 1458 q 698 1405 644 1458 q 752 1276 752 1352 q 698 1147 752 1200 q 568 1095 644 1095 q 437 1147 491 1095 m 518 1326 q 508 1316 518 1326 q 498 1276 498 1305 q 518 1227 498 1247 q 568 1206 538 1206 q 617 1227 597 1206 q 637 1276 637 1247 q 617 1326 637 1305 q 568 1346 597 1346 q 518 1326 538 1346 m 490 1201 q 474 1216 490 1201 q 458 1276 458 1232 q 490 1352 458 1320 q 568 1383 522 1383 q 645 1352 613 1383 q 677 1276 677 1320 q 645 1201 677 1232 q 568 1169 613 1169 q 490 1201 522 1169 m 756 481 q 703 616 756 568 q 561 663 649 663 q 433 612 486 663 q 379 488 379 560 q 390 415 379 448 q 419 362 401 383 q 464 327 438 340 q 518 307 490 313 q 578 300 546 300 q 719 338 655 300 l 719 290 q 577 255 653 255 q 485 268 528 255 q 407 308 442 281 q 351 381 372 335 q 330 488 330 428 q 396 647 330 582 q 561 712 462 712 q 738 651 670 712 q 805 481 805 589 l 805 0 l 756 0 l 756 481 m 903 481 l 903 0 l 854 0 l 854 481 q 772 685 854 610 q 561 761 690 761 q 361 682 441 761 q 281 488 281 602 q 306 364 281 419 q 371 276 330 309 q 464 225 412 243 q 572 208 515 208 q 719 244 649 208 l 719 193 q 571 162 646 162 q 444 183 504 162 q 336 243 383 203 q 260 346 288 283 q 233 488 233 410 q 327 716 233 622 q 561 810 422 810 q 736 770 659 810 q 858 655 813 730 q 903 481 903 580 m 1000 481 l 1000 0 l 951 0 l 951 481 q 900 680 951 593 q 760 812 849 766 q 561 859 671 859 q 369 809 456 859 q 233 674 282 759 q 184 488 184 589 q 216 330 184 401 q 301 212 248 258 q 424 141 355 166 q 568 115 493 115 q 719 147 645 115 l 719 98 q 567 68 642 68 q 351 121 450 68 q 194 271 253 174 q 135 488 135 368 q 168 651 135 574 q 257 785 201 728 q 393 874 313 841 q 561 907 472 907 q 785 854 685 907 q 943 704 885 802 q 1000 481 1000 606 m 1098 481 l 1098 0 l 1049 0 l 1049 481 q 985 729 1049 620 q 809 897 920 838 q 561 956 698 956 q 320 893 429 956 q 149 723 211 830 q 86 488 86 615 q 113 330 86 405 q 186 199 140 255 q 293 102 233 143 q 424 41 354 62 q 567 20 494 20 q 719 50 647 20 l 719 0 q 564 -26 644 -26 q 405 -3 482 -26 q 261 65 327 20 q 144 171 195 110 q 66 315 94 233 q 37 488 37 397 q 77 689 37 593 q 185 853 117 784 q 352 964 254 923 q 561 1005 450 1005 q 772 967 673 1005 q 943 862 871 929 q 1057 696 1015 794 q 1098 481 1098 597 z "},"":{"ha":1620,"x_min":37,"x_max":1565,"o":"m 1000 481 l 1000 0 l 951 0 q 951 481 951 0 q 900 680 951 593 q 760 812 849 766 q 561 859 671 859 q 369 809 456 859 q 233 674 282 759 q 184 488 184 589 q 216 330 184 401 q 301 212 248 258 q 424 141 355 166 q 568 115 493 115 q 719 147 645 115 l 719 98 q 567 68 642 68 q 351 121 450 68 q 194 271 253 174 q 135 488 135 368 q 168 651 135 574 q 257 785 201 728 q 393 874 313 841 q 561 907 472 907 q 785 854 685 907 q 943 704 885 802 q 1000 481 1000 606 m 903 481 l 903 0 l 854 0 l 854 481 q 772 685 854 610 q 561 761 690 761 q 361 682 441 761 q 281 488 281 602 q 306 364 281 419 q 371 276 330 309 q 464 225 412 243 q 572 208 515 208 q 719 244 649 208 l 719 193 q 571 162 646 162 q 444 183 504 162 q 336 243 383 203 q 260 346 288 283 q 233 488 233 410 q 327 716 233 622 q 561 810 422 810 q 736 770 659 810 q 858 655 813 730 q 903 481 903 580 m 756 481 q 703 616 756 568 q 561 663 649 663 q 433 612 486 663 q 379 488 379 560 q 390 415 379 448 q 419 362 401 383 q 464 327 438 340 q 518 307 490 313 q 578 300 546 300 q 719 338 655 300 l 719 290 q 577 255 653 255 q 485 268 528 255 q 407 308 442 281 q 351 381 372 335 q 330 488 330 428 q 396 647 330 582 q 561 712 462 712 q 738 651 670 712 q 805 481 805 589 l 805 0 l 756 0 l 756 481 m 1099 244 l 1565 244 l 1565 195 l 1099 195 l 1099 146 l 1565 146 l 1565 98 l 1099 98 l 1099 49 l 1565 49 l 1565 0 l 1098 0 l 1050 0 l 1049 0 l 1049 481 q 985 729 1049 620 q 809 897 920 838 q 561 956 698 956 q 320 893 429 956 q 149 723 211 830 q 86 488 86 615 q 113 330 86 405 q 186 199 140 255 q 293 102 233 143 q 424 41 354 62 q 567 20 494 20 q 719 50 647 20 l 719 0 q 564 -26 644 -26 q 405 -3 482 -26 q 261 65 327 20 q 144 171 195 110 q 66 315 94 233 q 37 488 37 397 q 77 689 37 593 q 185 853 117 784 q 352 964 254 923 q 561 1005 450 1005 q 653 998 608 1005 q 740 979 698 991 q 820 947 781 966 q 892 904 858 928 q 955 850 926 880 q 1008 786 984 821 q 1050 713 1031 751 l 1050 977 l 1565 977 l 1565 928 l 1099 928 l 1099 879 l 1565 879 l 1565 830 l 1099 830 l 1099 781 l 1565 781 l 1565 732 l 1099 732 l 1099 611 l 1538 611 l 1538 562 l 1099 562 l 1099 513 l 1538 513 l 1538 465 l 1099 465 l 1099 416 l 1538 416 l 1538 367 l 1099 367 l 1099 244 m 854 951 l 903 923 l 903 977 l 854 977 l 854 951 m 1001 831 l 952 883 l 952 977 l 1001 977 l 1001 831 z "},"":{"ha":1023,"x_min":37,"x_max":994,"o":"m 432 -304 q 432 -299 432 -304 q 431 -278 431 -294 q 432 -252 431 -262 q 439 -225 433 -243 q 457 -198 446 -208 q 493 -180 469 -189 q 551 -172 517 -172 l 600 -172 l 600 -34 l 648 -34 l 648 -221 l 551 -221 q 510 -225 526 -221 q 489 -240 495 -230 q 481 -257 483 -250 q 480 -278 480 -264 q 481 -299 480 -292 q 489 -316 483 -307 q 510 -331 495 -326 q 551 -335 526 -335 l 648 -335 l 648 -384 l 551 -384 q 493 -376 517 -384 q 457 -358 469 -368 q 439 -331 446 -348 q 432 -304 433 -313 m 334 -278 q 335 -230 334 -250 q 347 -179 337 -209 q 373 -131 356 -150 q 423 -97 390 -111 q 502 -82 456 -83 l 502 -34 l 551 -34 l 551 -123 q 474 -131 506 -123 q 425 -151 443 -139 q 398 -184 408 -163 q 385 -226 388 -205 q 382 -278 382 -246 q 383 -311 382 -299 q 386 -342 383 -323 q 395 -372 389 -361 q 414 -396 401 -382 q 444 -416 426 -409 q 489 -428 462 -423 q 551 -433 515 -433 l 648 -433 l 648 -481 l 551 -481 q 486 -477 515 -481 q 436 -466 457 -473 q 398 -447 415 -458 q 371 -424 382 -435 q 353 -396 361 -413 q 342 -367 346 -379 q 336 -336 338 -355 q 334 -307 334 -317 q 334 -278 334 -296 m 766 640 l 726 610 q 574 684 667 684 q 436 626 494 684 q 379 488 379 569 q 436 350 379 408 q 574 293 494 293 q 660 313 620 293 q 727 367 699 332 l 765 335 q 681 268 731 292 q 574 244 631 244 q 402 316 473 244 q 330 488 330 387 q 402 661 330 589 q 574 732 473 732 q 682 708 631 732 q 766 640 732 683 m 842 701 l 803 671 q 702 752 762 723 q 574 781 642 781 q 367 695 453 781 q 281 488 281 609 q 367 281 281 368 q 574 195 453 195 q 703 225 642 195 q 804 306 763 254 l 841 275 q 724 181 793 215 q 574 146 654 146 q 403 192 481 146 q 278 317 324 238 q 233 488 233 395 q 278 660 233 581 q 403 784 324 739 q 574 830 481 830 q 724 796 654 830 q 842 701 794 762 m 918 762 l 880 732 q 745 840 825 800 q 574 879 665 879 q 423 848 495 879 q 298 765 351 817 q 215 640 245 712 q 184 488 184 568 q 215 337 184 409 q 298 212 245 264 q 423 129 351 159 q 574 98 495 98 q 745 137 665 98 q 880 245 825 176 l 917 213 q 766 93 855 136 q 574 49 676 49 q 404 84 485 49 q 263 177 322 119 q 170 317 205 236 q 135 488 135 399 q 170 659 135 578 q 263 799 205 741 q 404 893 322 858 q 574 928 485 928 q 767 884 677 928 q 918 762 857 840 m 994 823 l 955 794 q 787 928 886 879 q 574 977 688 977 q 385 938 475 977 q 229 834 294 899 q 125 678 163 768 q 86 488 86 587 q 125 299 86 389 q 229 143 163 208 q 385 39 294 77 q 574 0 475 0 q 787 49 688 0 q 955 182 886 98 l 994 153 q 809 5 918 59 q 574 -49 699 -49 q 366 -6 465 -49 q 195 109 267 37 q 80 280 123 180 q 37 488 37 379 q 80 697 37 597 q 195 868 123 796 q 366 983 267 940 q 574 1025 465 1025 q 809 971 699 1025 q 994 823 919 918 z "},"":{"ha":926,"x_min":14,"x_max":872,"o":"m 544 1165 l 583 1200 l 130 1421 l 92 1386 l 544 1165 m 467 1095 l 505 1130 l 54 1351 l 14 1315 l 467 1095 m 307 0 l 258 0 l 258 977 l 307 977 l 307 0 m 210 0 l 161 0 l 161 977 l 210 977 l 210 0 m 112 0 l 63 0 l 63 977 l 112 977 l 112 0 m 405 244 l 872 244 l 872 195 l 405 195 l 405 146 l 872 146 l 872 98 l 405 98 l 405 49 l 872 49 l 872 0 l 356 0 l 356 977 l 872 977 l 872 928 l 405 928 l 405 879 l 872 879 l 872 830 l 405 830 l 405 781 l 872 781 l 872 732 l 405 732 l 405 611 l 845 611 l 845 562 l 405 562 l 405 513 l 845 513 l 845 465 l 405 465 l 405 416 l 845 416 l 845 367 l 405 367 l 405 244 z "},"":{"ha":926,"x_min":63,"x_max":920,"o":"m 390 1165 l 351 1200 l 804 1421 l 842 1386 l 390 1165 m 467 1095 l 429 1130 l 880 1351 l 920 1315 l 467 1095 m 307 0 l 258 0 l 258 977 l 307 977 l 307 0 m 210 0 l 161 0 l 161 977 l 210 977 l 210 0 m 112 0 l 63 0 l 63 977 l 112 977 l 112 0 m 405 244 l 872 244 l 872 195 l 405 195 l 405 146 l 872 146 l 872 98 l 405 98 l 405 49 l 872 49 l 872 0 l 356 0 l 356 977 l 872 977 l 872 928 l 405 928 l 405 879 l 872 879 l 872 830 l 405 830 l 405 781 l 872 781 l 872 732 l 405 732 l 405 611 l 845 611 l 845 562 l 405 562 l 405 513 l 845 513 l 845 465 l 405 465 l 405 416 l 845 416 l 845 367 l 405 367 l 405 244 z "},"":{"ha":926,"x_min":63,"x_max":872,"o":"m 677 1095 l 547 1426 l 494 1426 l 625 1095 l 677 1095 m 416 1095 l 450 1181 l 422 1244 l 363 1095 l 416 1095 m 311 1095 l 415 1360 l 520 1095 l 573 1095 l 442 1426 l 389 1426 l 258 1095 l 311 1095 m 307 0 l 258 0 l 258 977 l 307 977 l 307 0 m 210 0 l 161 0 l 161 977 l 210 977 l 210 0 m 112 0 l 63 0 l 63 977 l 112 977 l 112 0 m 405 244 l 872 244 l 872 195 l 405 195 l 405 146 l 872 146 l 872 98 l 405 98 l 405 49 l 872 49 l 872 0 l 356 0 l 356 977 l 872 977 l 872 928 l 405 928 l 405 879 l 872 879 l 872 830 l 405 830 l 405 781 l 872 781 l 872 732 l 405 732 l 405 611 l 845 611 l 845 562 l 405 562 l 405 513 l 845 513 l 845 465 l 405 465 l 405 416 l 845 416 l 845 367 l 405 367 l 405 244 z "},"":{"ha":926,"x_min":63,"x_max":872,"o":"m 748 1246 l 797 1246 l 797 1095 l 748 1095 l 748 1246 m 650 1246 l 699 1246 l 699 1095 l 650 1095 l 650 1246 m 553 1246 l 602 1246 l 602 1095 l 553 1095 l 553 1246 m 332 1246 l 380 1246 l 380 1095 l 332 1095 l 332 1246 m 234 1246 l 283 1246 l 283 1095 l 234 1095 l 234 1246 m 136 1246 l 185 1246 l 185 1095 l 136 1095 l 136 1246 m 307 0 l 258 0 l 258 977 l 307 977 l 307 0 m 210 0 l 161 0 l 161 977 l 210 977 l 210 0 m 112 0 l 63 0 l 63 977 l 112 977 l 112 0 m 405 244 l 872 244 l 872 195 l 405 195 l 405 146 l 872 146 l 872 98 l 405 98 l 405 49 l 872 49 l 872 0 l 356 0 l 356 977 l 872 977 l 872 928 l 405 928 l 405 879 l 872 879 l 872 830 l 405 830 l 405 781 l 872 781 l 872 732 l 405 732 l 405 611 l 845 611 l 845 562 l 405 562 l 405 513 l 845 513 l 845 465 l 405 465 l 405 416 l 845 416 l 845 367 l 405 367 l 405 244 z "},"":{"ha":469,"x_min":-219,"x_max":405,"o":"m 311 1165 l 349 1200 l -103 1421 l -141 1386 l 311 1165 m 233 1095 l 272 1130 l -180 1351 l -219 1315 l 233 1095 m 356 977 l 405 977 l 405 0 l 356 0 l 356 977 m 258 977 l 307 977 l 307 0 l 258 0 l 258 977 m 161 977 l 210 977 l 210 0 l 161 0 l 161 977 m 63 977 l 112 977 l 112 0 l 63 0 l 63 977 z "},"":{"ha":469,"x_min":63,"x_max":686,"o":"m 157 1165 l 118 1200 l 570 1421 l 609 1386 l 157 1165 m 234 1095 l 195 1130 l 647 1351 l 686 1315 l 234 1095 m 356 977 l 405 977 l 405 0 l 356 0 l 356 977 m 258 977 l 307 977 l 307 0 l 258 0 l 258 977 m 161 977 l 210 977 l 210 0 l 161 0 l 161 977 m 63 977 l 112 977 l 112 0 l 63 0 l 63 977 z "},"":{"ha":469,"x_min":24,"x_max":444,"o":"m 444 1095 l 313 1426 l 260 1426 l 391 1095 l 444 1095 m 182 1095 l 216 1181 l 188 1244 l 129 1095 l 182 1095 m 77 1095 l 181 1360 l 286 1095 l 339 1095 l 208 1426 l 155 1426 l 24 1095 l 77 1095 m 356 977 l 405 977 l 405 0 l 356 0 l 356 977 m 258 977 l 307 977 l 307 0 l 258 0 l 258 977 m 161 977 l 210 977 l 210 0 l 161 0 l 161 977 m 63 977 l 112 977 l 112 0 l 63 0 l 63 977 z "},"":{"ha":469,"x_min":-97,"x_max":564,"o":"m 515 1246 l 564 1246 l 564 1095 l 515 1095 l 515 1246 m 417 1246 l 466 1246 l 466 1095 l 417 1095 l 417 1246 m 319 1246 l 368 1246 l 368 1095 l 319 1095 l 319 1246 m 98 1246 l 147 1246 l 147 1095 l 98 1095 l 98 1246 m 1 1246 l 50 1246 l 50 1095 l 1 1095 l 1 1246 m -97 1246 l -48 1246 l -48 1095 l -97 1095 l -97 1246 m 356 977 l 405 977 l 405 0 l 356 0 l 356 977 m 258 977 l 307 977 l 307 0 l 258 0 l 258 977 m 161 977 l 210 977 l 210 0 l 161 0 l 161 977 m 63 977 l 112 977 l 112 0 l 63 0 l 63 977 z "},"":{"ha":1088,"x_min":34,"x_max":1034,"o":"m 1034 702 q 1034 408 1034 702 q 992 214 1034 301 q 880 70 951 127 q 714 -18 808 13 q 510 -48 619 -48 q 325 -20 412 -48 q 174 59 238 9 q 72 182 109 109 q 34 340 34 255 q 69 491 34 421 q 163 607 104 560 q 299 679 222 653 q 459 705 376 705 q 654 686 561 705 l 654 642 q 462 659 564 659 q 322 636 390 659 q 201 574 254 614 q 115 473 147 534 q 83 340 83 412 q 117 200 83 264 q 208 93 151 136 q 344 25 266 50 q 510 1 422 1 q 660 17 589 1 q 790 68 730 34 q 892 150 849 102 q 960 264 936 198 q 985 408 985 330 l 985 702 q 948 882 985 802 q 849 1015 912 963 q 703 1095 786 1067 q 524 1123 619 1123 q 310 1089 409 1123 q 143 992 210 1055 l 104 1021 q 287 1132 178 1093 q 524 1172 397 1172 q 722 1139 629 1172 q 884 1047 814 1106 q 993 898 953 987 q 1034 702 1034 809 m 936 702 l 936 408 q 902 252 936 321 q 810 139 869 183 q 675 73 751 96 q 510 50 599 50 q 320 84 406 50 q 183 186 234 119 q 132 340 132 253 q 228 533 132 456 q 462 610 324 610 q 654 595 549 610 l 654 552 q 463 564 558 564 q 324 538 387 564 q 220 461 260 513 q 180 340 180 410 q 225 211 180 267 q 344 127 270 155 q 510 98 418 98 q 657 117 589 98 q 776 174 724 136 q 858 271 828 211 q 887 408 887 331 l 887 702 q 859 841 887 779 q 780 943 830 903 q 665 1004 730 983 q 524 1025 599 1025 q 352 1001 431 1025 q 218 930 272 976 l 180 960 q 330 1044 240 1015 q 524 1074 419 1074 q 684 1049 609 1074 q 814 979 758 1025 q 903 862 871 933 q 936 702 936 790 m 838 702 l 838 408 q 812 290 838 340 q 741 208 787 239 q 637 162 696 178 q 510 147 579 147 q 369 169 431 147 q 268 235 306 191 q 229 340 229 279 q 298 470 229 422 q 466 517 366 517 q 654 507 553 517 l 654 462 q 467 471 559 471 q 333 436 388 471 q 278 340 278 402 q 344 234 278 272 q 510 196 410 196 q 619 207 570 196 q 707 242 668 218 q 768 309 747 267 q 789 408 789 351 l 789 702 q 714 869 789 810 q 524 928 640 928 q 295 869 376 928 l 256 899 q 524 977 351 977 q 682 947 612 977 q 795 854 752 918 q 838 702 838 791 m 741 702 l 741 408 q 728 341 741 370 q 696 294 716 312 q 645 265 675 276 q 583 249 615 254 q 510 245 550 245 q 378 269 429 245 q 327 340 327 292 q 348 389 327 370 q 401 416 370 409 q 472 424 432 424 q 654 416 600 424 l 654 374 q 473 378 578 378 q 376 340 376 378 q 510 294 376 294 q 567 296 544 294 q 616 304 591 298 q 657 323 642 311 q 682 356 672 335 q 692 408 692 378 l 692 702 q 646 800 692 770 q 524 830 600 830 q 372 808 416 830 l 332 838 q 524 879 398 879 q 680 834 619 879 q 741 702 741 790 z "},"":{"ha":1093,"x_min":63,"x_max":1029,"o":"m 814 1339 l 863 1339 q 857 1284 863 1308 q 843 1245 851 1261 q 820 1220 834 1230 q 794 1204 806 1209 q 766 1196 783 1198 q 740 1193 749 1193 q 716 1192 731 1192 l 375 1192 q 346 1192 355 1192 q 320 1186 336 1191 q 297 1171 304 1181 q 283 1142 290 1162 q 277 1095 277 1123 l 229 1095 q 234 1149 229 1125 q 249 1188 240 1173 q 271 1214 257 1203 q 297 1230 286 1224 q 325 1238 308 1235 q 351 1241 342 1240 q 375 1241 360 1241 l 716 1241 q 746 1242 736 1241 q 771 1247 755 1242 q 794 1262 787 1253 q 808 1291 802 1272 q 814 1339 814 1310 m 911 1339 l 960 1339 q 955 1266 960 1299 q 941 1210 949 1234 q 919 1167 933 1186 q 891 1137 904 1149 q 858 1117 878 1125 q 823 1104 838 1108 q 786 1098 809 1100 q 750 1095 763 1095 q 716 1095 738 1095 l 375 1095 l 375 1143 l 716 1143 q 749 1144 738 1143 q 780 1146 760 1144 q 810 1151 800 1147 q 837 1161 821 1154 q 862 1177 853 1168 q 882 1202 871 1187 q 899 1236 893 1217 q 908 1281 904 1255 q 911 1339 911 1307 m 375 1339 l 716 1339 l 716 1290 l 375 1290 q 342 1290 353 1290 q 311 1288 331 1289 q 281 1282 292 1286 q 254 1272 270 1279 q 229 1256 238 1265 q 209 1232 220 1246 q 193 1198 198 1217 q 183 1153 187 1179 q 180 1095 180 1126 l 131 1095 q 136 1167 131 1134 q 150 1223 142 1200 q 173 1266 158 1247 q 200 1296 187 1284 q 233 1317 213 1308 q 268 1329 254 1325 q 305 1336 282 1333 q 341 1338 328 1338 q 375 1339 353 1339 m 833 394 l 785 483 l 785 977 l 833 977 l 833 394 m 931 225 l 882 308 l 882 977 l 931 977 l 931 225 m 258 583 l 307 494 l 307 0 l 258 0 l 258 583 m 161 758 l 210 669 l 210 0 l 161 0 l 161 758 m 178 977 l 235 977 l 800 0 l 743 0 l 178 977 m 293 977 l 351 977 l 916 0 l 857 0 l 293 977 m 408 977 l 465 977 l 980 85 l 980 977 l 1029 977 l 1029 0 l 971 0 l 408 977 m 112 892 l 112 0 l 63 0 l 63 977 l 121 977 l 685 0 l 629 0 l 112 892 z "},"":{"ha":1158,"x_min":37,"x_max":1112,"o":"m 651 1165 l 690 1200 l 237 1421 l 199 1386 l 651 1165 m 574 1095 l 612 1130 l 161 1351 l 121 1315 l 574 1095 m 436 626 q 408 598 436 626 q 379 488 379 569 q 436 350 379 408 q 574 293 494 293 q 712 350 655 293 q 770 488 770 408 q 712 626 770 569 q 574 684 655 684 q 436 626 494 684 m 402 316 q 366 351 402 316 q 330 488 330 387 q 402 661 330 589 q 574 732 473 732 q 747 661 675 732 q 819 488 819 589 q 747 316 819 387 q 574 244 675 244 q 402 316 473 244 m 367 695 q 324 652 367 695 q 281 488 281 609 q 367 281 281 368 q 574 195 453 195 q 782 281 696 195 q 867 488 867 368 q 782 695 867 609 q 574 781 696 781 q 367 695 453 781 m 278 317 q 255 356 278 317 q 233 488 233 395 q 278 660 233 581 q 403 784 324 739 q 574 830 481 830 q 746 784 667 830 q 870 660 825 739 q 916 488 916 581 q 870 317 916 395 q 746 192 825 238 q 574 146 667 146 q 403 192 481 146 q 278 317 324 238 m 215 640 q 199 604 215 640 q 184 488 184 568 q 215 337 184 409 q 298 212 245 264 q 423 129 351 159 q 574 98 495 98 q 726 129 654 98 q 851 212 798 159 q 934 337 903 264 q 965 488 965 409 q 934 640 965 568 q 851 765 903 712 q 726 848 798 817 q 574 879 654 879 q 423 848 495 879 q 298 765 351 817 q 215 640 245 712 m 170 317 q 152 358 170 317 q 135 488 135 399 q 170 659 135 578 q 263 799 205 741 q 404 893 322 858 q 574 928 485 928 q 745 893 664 928 q 885 799 827 858 q 979 659 944 741 q 1014 488 1014 578 q 979 317 1014 399 q 885 177 944 236 q 745 84 827 119 q 574 49 664 49 q 404 84 485 49 q 263 177 322 119 q 170 317 205 236 m 125 678 q 105 633 125 678 q 86 488 86 587 q 125 299 86 389 q 229 143 163 208 q 385 39 294 77 q 574 0 475 0 q 764 39 673 0 q 920 143 854 77 q 1024 299 985 208 q 1063 488 1063 389 q 1024 678 1063 587 q 920 834 985 768 q 764 938 854 899 q 574 977 673 977 q 385 938 475 977 q 229 834 294 899 q 125 678 163 768 m 80 280 q 59 329 80 280 q 37 488 37 379 q 80 697 37 597 q 195 868 123 796 q 366 983 267 940 q 574 1025 465 1025 q 783 983 684 1025 q 954 868 882 940 q 1069 697 1026 796 q 1112 488 1112 597 q 1069 280 1112 379 q 954 109 1026 180 q 783 -6 882 37 q 574 -49 684 -49 q 366 -6 465 -49 q 195 109 267 37 q 80 280 123 180 z "},"":{"ha":1158,"x_min":37,"x_max":1112,"o":"m 497 1165 l 458 1200 l 911 1421 l 949 1386 l 497 1165 m 574 1095 l 536 1130 l 987 1351 l 1027 1315 l 574 1095 m 436 626 q 408 598 436 626 q 379 488 379 569 q 436 350 379 408 q 574 293 494 293 q 712 350 655 293 q 770 488 770 408 q 712 626 770 569 q 574 684 655 684 q 436 626 494 684 m 402 316 q 366 351 402 316 q 330 488 330 387 q 402 661 330 589 q 574 732 473 732 q 747 661 675 732 q 819 488 819 589 q 747 316 819 387 q 574 244 675 244 q 402 316 473 244 m 367 695 q 324 652 367 695 q 281 488 281 609 q 367 281 281 368 q 574 195 453 195 q 782 281 696 195 q 867 488 867 368 q 782 695 867 609 q 574 781 696 781 q 367 695 453 781 m 278 317 q 255 356 278 317 q 233 488 233 395 q 278 660 233 581 q 403 784 324 739 q 574 830 481 830 q 746 784 667 830 q 870 660 825 739 q 916 488 916 581 q 870 317 916 395 q 746 192 825 238 q 574 146 667 146 q 403 192 481 146 q 278 317 324 238 m 215 640 q 199 604 215 640 q 184 488 184 568 q 215 337 184 409 q 298 212 245 264 q 423 129 351 159 q 574 98 495 98 q 726 129 654 98 q 851 212 798 159 q 934 337 903 264 q 965 488 965 409 q 934 640 965 568 q 851 765 903 712 q 726 848 798 817 q 574 879 654 879 q 423 848 495 879 q 298 765 351 817 q 215 640 245 712 m 170 317 q 152 358 170 317 q 135 488 135 399 q 170 659 135 578 q 263 799 205 741 q 404 893 322 858 q 574 928 485 928 q 745 893 664 928 q 885 799 827 858 q 979 659 944 741 q 1014 488 1014 578 q 979 317 1014 399 q 885 177 944 236 q 745 84 827 119 q 574 49 664 49 q 404 84 485 49 q 263 177 322 119 q 170 317 205 236 m 125 678 q 105 633 125 678 q 86 488 86 587 q 125 299 86 389 q 229 143 163 208 q 385 39 294 77 q 574 0 475 0 q 764 39 673 0 q 920 143 854 77 q 1024 299 985 208 q 1063 488 1063 389 q 1024 678 1063 587 q 920 834 985 768 q 764 938 854 899 q 574 977 673 977 q 385 938 475 977 q 229 834 294 899 q 125 678 163 768 m 80 280 q 59 329 80 280 q 37 488 37 379 q 80 697 37 597 q 195 868 123 796 q 366 983 267 940 q 574 1025 465 1025 q 783 983 684 1025 q 954 868 882 940 q 1069 697 1026 796 q 1112 488 1112 597 q 1069 280 1112 379 q 954 109 1026 180 q 783 -6 882 37 q 574 -49 684 -49 q 366 -6 465 -49 q 195 109 267 37 q 80 280 123 180 z "}}}
